<svg width="24" height="25" viewBox="0 0 24 25" fill="none" xmlns="http://www.w3.org/2000/svg">
<path d="M23.643 5.2641C22.808 5.6341 21.911 5.8841 20.968 5.9971C21.941 5.4149 22.669 4.49857 23.016 3.4191C22.1019 3.96209 21.1014 4.3443 20.058 4.5491C19.3564 3.79997 18.4271 3.30343 17.4143 3.13658C16.4016 2.96973 15.3621 3.14189 14.4572 3.62636C13.5524 4.11082 12.8328 4.88047 12.4102 5.81581C11.9875 6.75115 11.8855 7.79985 12.12 8.7991C10.2677 8.7061 8.45564 8.22465 6.80144 7.38601C5.14723 6.54736 3.68785 5.37026 2.51801 3.9311C2.11801 4.6211 1.88801 5.4211 1.88801 6.2731C1.88757 7.0401 2.07644 7.79535 2.43789 8.47184C2.79934 9.14833 3.32217 9.72514 3.96001 10.1511C3.22029 10.1276 2.49688 9.92769 1.85001 9.5681V9.6281C1.84994 10.7038 2.22204 11.7465 2.90319 12.5791C3.58434 13.4117 4.53258 13.983 5.58701 14.1961C4.9008 14.3818 4.18135 14.4092 3.48301 14.2761C3.78051 15.2017 4.36001 16.0111 5.14038 16.591C5.92075 17.1709 6.86293 17.4923 7.83501 17.5101C6.18484 18.8055 4.1469 19.5082 2.04901 19.5051C1.67739 19.5052 1.30609 19.4835 0.937012 19.4401C3.06649 20.8093 5.54535 21.5359 8.07701 21.5331C16.647 21.5331 21.332 14.4351 21.332 8.2791C21.332 8.0791 21.327 7.8771 21.318 7.6771C22.2293 7.01808 23.0159 6.202 23.641 5.2671L23.643 5.2641Z" fill="#010211"/>
</svg>
