<svg width="24" height="25" viewBox="0 0 24 25" fill="none" xmlns="http://www.w3.org/2000/svg">
<g clip-path="url(#clip0_393_842)">
<path d="M20.317 4.81912C18.787 4.12912 17.147 3.61912 15.432 3.32912C15.4167 3.32619 15.4009 3.32808 15.3868 3.33453C15.3726 3.34098 15.3608 3.35167 15.353 3.36512C15.143 3.73412 14.909 4.21512 14.745 4.59512C12.9261 4.32336 11.0769 4.32336 9.25799 4.59512C9.07533 4.17398 8.86934 3.76335 8.64099 3.36512C8.63325 3.3515 8.62154 3.34057 8.60743 3.33378C8.59331 3.32699 8.57746 3.32467 8.56199 3.32712C6.84799 3.61712 5.20799 4.12712 3.67699 4.81812C3.66382 4.82365 3.65265 4.83307 3.64499 4.84512C0.532992 9.42012 -0.320008 13.8821 0.0989923 18.2881C0.100158 18.2989 0.103508 18.3094 0.108837 18.3188C0.114167 18.3283 0.121364 18.3365 0.129992 18.3431C1.94638 19.6655 3.97233 20.6729 6.12299 21.3231C6.13798 21.3277 6.15402 21.3277 6.16901 21.3231C6.18399 21.3184 6.19723 21.3094 6.20699 21.2971C6.66979 20.6782 7.07989 20.0216 7.43299 19.3341C7.43789 19.3247 7.44072 19.3144 7.44127 19.3038C7.44183 19.2932 7.44011 19.2826 7.43622 19.2728C7.43233 19.2629 7.42637 19.254 7.41874 19.2466C7.41111 19.2393 7.40199 19.2336 7.39199 19.2301C6.746 18.9868 6.12008 18.6933 5.51999 18.3521C5.50921 18.346 5.50012 18.3372 5.49355 18.3267C5.48698 18.3162 5.48312 18.3042 5.48233 18.2918C5.48153 18.2794 5.48383 18.267 5.48901 18.2557C5.49418 18.2444 5.50208 18.2346 5.51199 18.2271C5.63799 18.1341 5.76399 18.0371 5.88399 17.9401C5.89479 17.9314 5.9078 17.9258 5.92158 17.9241C5.93535 17.9223 5.94934 17.9244 5.96199 17.9301C9.88899 19.6941 14.142 19.6941 18.023 17.9301C18.0357 17.9241 18.0498 17.9217 18.0638 17.9233C18.0778 17.9249 18.091 17.9304 18.102 17.9391C18.222 18.0371 18.347 18.1341 18.474 18.2271C18.484 18.2344 18.492 18.2441 18.4974 18.2553C18.5027 18.2665 18.5052 18.2789 18.5046 18.2912C18.504 18.3036 18.5004 18.3157 18.494 18.3263C18.4876 18.3369 18.4787 18.3458 18.468 18.3521C17.87 18.6961 17.248 18.9871 16.595 19.2291C16.585 19.2328 16.5758 19.2385 16.5682 19.246C16.5606 19.2534 16.5546 19.2624 16.5507 19.2723C16.5468 19.2823 16.5451 19.2929 16.5457 19.3036C16.5463 19.3142 16.5491 19.3246 16.554 19.3341C16.914 20.0211 17.326 20.6751 17.779 21.2961C17.7884 21.3089 17.8015 21.3184 17.8166 21.3234C17.8316 21.3284 17.8478 21.3287 17.863 21.3241C20.0173 20.6758 22.0466 19.6679 23.865 18.3431C23.8739 18.3369 23.8813 18.3289 23.8868 18.3196C23.8923 18.3103 23.8958 18.2999 23.897 18.2891C24.397 13.1951 23.059 8.76912 20.348 4.84712C20.3413 4.83438 20.3303 4.82444 20.317 4.81912ZM8.01999 15.6051C6.83799 15.6051 5.86299 14.5361 5.86299 13.2251C5.86299 11.9131 6.81899 10.8451 8.01999 10.8451C9.22999 10.8451 10.196 11.9221 10.177 13.2251C10.177 14.5371 9.22099 15.6051 8.01999 15.6051ZM15.995 15.6051C14.812 15.6051 13.838 14.5361 13.838 13.2251C13.838 11.9131 14.793 10.8451 15.995 10.8451C17.205 10.8451 18.171 11.9221 18.152 13.2251C18.152 14.5371 17.206 15.6051 15.995 15.6051Z" fill="#010211"/>
</g>
<defs>
<clipPath id="clip0_393_842">
<rect width="24" height="24" fill="white" transform="translate(0 0.327148)"/>
</clipPath>
</defs>
</svg>
