<svg width="24" height="25" viewBox="0 0 24 25" fill="none" xmlns="http://www.w3.org/2000/svg">
<path fill-rule="evenodd" clip-rule="evenodd" d="M7.465 1.39315C8.638 1.33915 9.012 1.32715 12 1.32715C14.988 1.32715 15.362 1.34015 16.534 1.39315C17.706 1.44615 18.506 1.63315 19.206 1.90415C19.939 2.18115 20.604 2.61415 21.154 3.17415C21.714 3.72315 22.146 4.38715 22.422 5.12115C22.694 5.82115 22.88 6.62115 22.934 7.79115C22.988 8.96615 23 9.34015 23 12.3271C23 15.3151 22.987 15.6891 22.934 16.8621C22.881 18.0321 22.694 18.8321 22.422 19.5321C22.146 20.2662 21.7133 20.9313 21.154 21.4811C20.604 22.0411 19.939 22.4732 19.206 22.7491C18.506 23.0211 17.706 23.2071 16.536 23.2611C15.362 23.3151 14.988 23.3271 12 23.3271C9.012 23.3271 8.638 23.3141 7.465 23.2611C6.295 23.2081 5.495 23.0211 4.795 22.7491C4.06092 22.4731 3.39582 22.0404 2.846 21.4811C2.28638 20.9318 1.85331 20.267 1.577 19.5331C1.306 18.8331 1.12 18.0331 1.066 16.8631C1.012 15.6881 1 15.3141 1 12.3271C1 9.33915 1.013 8.96515 1.066 7.79315C1.119 6.62115 1.306 5.82115 1.577 5.12115C1.85372 4.38723 2.28712 3.72246 2.847 3.17315C3.39604 2.61365 4.06047 2.18059 4.794 1.90415C5.494 1.63315 6.294 1.44715 7.464 1.39315H7.465ZM16.445 3.37315C15.285 3.32015 14.937 3.30915 12 3.30915C9.063 3.30915 8.715 3.32015 7.555 3.37315C6.482 3.42215 5.9 3.60115 5.512 3.75215C4.999 3.95215 4.632 4.18915 4.247 4.57415C3.88205 4.9292 3.60118 5.36143 3.425 5.83915C3.274 6.22715 3.095 6.80915 3.046 7.88215C2.993 9.04215 2.982 9.39015 2.982 12.3271C2.982 15.2641 2.993 15.6121 3.046 16.7721C3.095 17.8451 3.274 18.4271 3.425 18.8151C3.601 19.2921 3.882 19.7251 4.247 20.0801C4.602 20.4451 5.035 20.7261 5.512 20.9021C5.9 21.0531 6.482 21.2321 7.555 21.2811C8.715 21.3341 9.062 21.3451 12 21.3451C14.938 21.3451 15.285 21.3341 16.445 21.2811C17.518 21.2321 18.1 21.0531 18.488 20.9021C19.001 20.7021 19.368 20.4651 19.753 20.0801C20.118 19.7251 20.399 19.2921 20.575 18.8151C20.726 18.4271 20.905 17.8451 20.954 16.7721C21.007 15.6121 21.018 15.2641 21.018 12.3271C21.018 9.39015 21.007 9.04215 20.954 7.88215C20.905 6.80915 20.726 6.22715 20.575 5.83915C20.375 5.32615 20.138 4.95915 19.753 4.57415C19.3979 4.20922 18.9657 3.92836 18.488 3.75215C18.1 3.60115 17.518 3.42215 16.445 3.37315ZM10.595 15.7181C11.3797 16.0448 12.2534 16.0889 13.0669 15.8429C13.8805 15.5969 14.5834 15.0761 15.0556 14.3694C15.5278 13.6627 15.7401 12.814 15.656 11.9683C15.572 11.1225 15.197 10.3321 14.595 9.73215C14.2112 9.34863 13.7472 9.05496 13.2363 8.8723C12.7255 8.68963 12.1804 8.62251 11.6405 8.67576C11.1006 8.72902 10.5792 8.90133 10.1138 9.18028C9.64845 9.45923 9.25074 9.83789 8.9493 10.289C8.64786 10.7401 8.45019 11.2524 8.37052 11.7891C8.29084 12.3258 8.33115 12.8734 8.48854 13.3927C8.64593 13.9119 8.91648 14.3898 9.28072 14.7919C9.64496 15.194 10.0938 15.5103 10.595 15.7181ZM8.002 8.32915C8.52702 7.80412 9.15032 7.38765 9.8363 7.10351C10.5223 6.81937 11.2575 6.67312 12 6.67312C12.7425 6.67312 13.4777 6.81937 14.1637 7.10351C14.8497 7.38765 15.473 7.80412 15.998 8.32915C16.523 8.85417 16.9395 9.47747 17.2236 10.1634C17.5078 10.8494 17.654 11.5847 17.654 12.3271C17.654 13.0696 17.5078 13.8049 17.2236 14.4909C16.9395 15.1768 16.523 15.8001 15.998 16.3251C14.9377 17.3855 13.4995 17.9812 12 17.9812C10.5005 17.9812 9.06234 17.3855 8.002 16.3251C6.94166 15.2648 6.34597 13.8267 6.34597 12.3271C6.34597 10.8276 6.94166 9.38948 8.002 8.32915ZM18.908 7.51515C19.0381 7.39242 19.1423 7.24483 19.2143 7.08112C19.2863 6.91742 19.3248 6.74092 19.3274 6.56208C19.33 6.38324 19.2967 6.2057 19.2295 6.03996C19.1622 5.87422 19.0624 5.72366 18.936 5.59719C18.8095 5.47072 18.6589 5.37091 18.4932 5.30367C18.3275 5.23643 18.1499 5.20312 17.9711 5.20573C17.7922 5.20834 17.6157 5.2468 17.452 5.31884C17.2883 5.39089 17.1407 5.49504 17.018 5.62515C16.7793 5.87818 16.6486 6.21427 16.6537 6.56208C16.6588 6.90989 16.7992 7.24203 17.0452 7.48799C17.2911 7.73396 17.6233 7.87438 17.9711 7.87945C18.3189 7.88452 18.655 7.75384 18.908 7.51515Z" fill="#010211"/>
</svg>
