<svg width="24" height="25" viewBox="0 0 24 25" fill="none" xmlns="http://www.w3.org/2000/svg">
<path d="M22.1484 10.1868H16.1484C16.0453 10.1868 15.9609 10.2711 15.9609 10.3743V11.4993C15.9609 11.6024 16.0453 11.6868 16.1484 11.6868H22.1484C22.2516 11.6868 22.3359 11.6024 22.3359 11.4993V10.3743C22.3359 10.2711 22.2516 10.1868 22.1484 10.1868ZM19.0078 13.3743H16.1484C16.0453 13.3743 15.9609 13.4586 15.9609 13.5618V14.6868C15.9609 14.7899 16.0453 14.8743 16.1484 14.8743H19.0078C19.1109 14.8743 19.1953 14.7899 19.1953 14.6868V13.5618C19.1953 13.4586 19.1109 13.3743 19.0078 13.3743ZM11.1867 8.08911H10.1719C10.0266 8.08911 9.90938 8.2063 9.90938 8.35161V14.1641C9.90938 14.2485 9.94922 14.3258 10.0172 14.375L13.507 16.9204C13.6242 17.0047 13.7883 16.9813 13.8727 16.8641L14.475 16.0415V16.0391C14.5594 15.9219 14.5336 15.7579 14.4164 15.6735L11.4469 13.5266V8.35161C11.4492 8.2063 11.3297 8.08911 11.1867 8.08911Z" fill="#F36B7F"/>
<path d="M18.8625 16.325H17.5078C17.3766 16.325 17.2523 16.393 17.182 16.5055C16.8844 16.9766 16.5375 17.4125 16.1391 17.8109C15.4523 18.4977 14.6531 19.0367 13.7648 19.4117C12.8437 19.8008 11.8664 19.9977 10.8586 19.9977C9.84844 19.9977 8.87109 19.8008 7.95234 19.4117C7.06406 19.0367 6.26484 18.4977 5.57813 17.8109C4.89141 17.1242 4.35234 16.325 3.97734 15.4367C3.58828 14.518 3.39141 13.5406 3.39141 12.5305C3.39141 11.5203 3.58828 10.5453 3.97734 9.62423C4.35234 8.73594 4.89141 7.93673 5.57813 7.25001C6.26484 6.56329 7.06406 6.02423 7.95234 5.64923C8.87109 5.26016 9.85078 5.06329 10.8586 5.06329C11.8687 5.06329 12.8461 5.26016 13.7648 5.64923C14.6531 6.02423 15.4523 6.56329 16.1391 7.25001C16.5375 7.64845 16.8844 8.08438 17.182 8.55548C17.2523 8.66798 17.3766 8.73594 17.5078 8.73594H18.8625C19.0242 8.73594 19.1273 8.56719 19.0547 8.42423C17.5266 5.38438 14.4281 3.4086 10.9688 3.36876C5.90391 3.30548 1.69688 7.45157 1.6875 12.5117C1.67813 17.5813 5.78672 21.6945 10.8562 21.6945C14.3602 21.6945 17.5102 19.7117 19.0547 16.6367C19.1273 16.4938 19.0219 16.325 18.8625 16.325Z" fill="#F36B7F"/>
</svg>
