<svg width="24" height="25" viewBox="0 0 24 25" fill="none" xmlns="http://www.w3.org/2000/svg">
<path d="M11 4.53052L10.5 3.53052L10 4.53052L9 4.65552L9.834 5.36352L9.5 6.53052L10.5 5.86452L11.5 6.53052L11.166 5.36352L12 4.65552L11 4.53052ZM19.334 15.1965L18.5 13.5305L17.666 15.1965L16 15.4055L17.389 16.5865L16.834 18.5305L18.5 17.4195L20.166 18.5305L19.611 16.5865L21 15.4055L19.334 15.1965ZM6.667 6.86352L6 5.53052L5.333 6.86352L4 7.03052L5.111 7.97452L4.667 9.53052L6 8.64152L7.333 9.53052L6.889 7.97452L8 7.03052L6.667 6.86352ZM3.414 17.5305C3.414 18.0645 3.622 18.5665 4 18.9445L5.586 20.5305C5.964 20.9085 6.466 21.1165 7 21.1165C7.534 21.1165 8.036 20.9085 8.414 20.5305L20 8.94452C20.378 8.56652 20.586 8.06452 20.586 7.53052C20.586 6.99652 20.378 6.49452 20 6.11652L18.414 4.53052C17.658 3.77452 16.342 3.77452 15.586 4.53052L4 16.1165C3.622 16.4945 3.414 16.9965 3.414 17.5305ZM17 5.94452L18.586 7.53052L15 11.1165L13.414 9.53052L17 5.94452Z" fill="#7A1A9C"/>
</svg>
