<svg width="111" height="33" viewBox="0 0 111 33" fill="none" xmlns="http://www.w3.org/2000/svg">
<path d="M16.9058 32.4478C25.9664 32.4478 33.3115 25.2572 33.3115 16.3871C33.3115 7.51712 25.9664 0.326538 16.9058 0.326538C7.84511 0.326538 0.5 7.51712 0.5 16.3871C0.5 25.2572 7.84511 32.4478 16.9058 32.4478Z" fill="#0D0619"/>
<path d="M11.0316 23.2835C10.257 23.2907 9.48549 23.1883 8.74078 22.9793C7.30637 22.5334 6.56979 21.5966 6.47463 20.1205C6.4529 19.1975 6.5488 18.2754 6.7601 17.3758C7.02443 15.993 7.23236 14.5619 7.56012 13.1757C8.14516 10.7005 9.91085 9.22101 12.4942 8.93755C13.783 8.73777 15.1017 8.83964 16.3428 9.23484C16.834 9.4146 17.2791 9.6978 17.6468 10.0645C17.7948 10.2097 17.8265 10.2996 17.6468 10.4517C17.1021 10.9543 16.4576 11.3414 15.7536 11.5888C15.0496 11.8362 14.3012 11.9387 13.555 11.8897C12.1453 11.786 11.2466 12.4359 10.9752 13.8117C10.6721 15.3708 10.4219 16.9229 10.154 18.5062C10.1323 18.6689 10.1229 18.8329 10.1258 18.997C10.1147 19.1554 10.1369 19.3143 10.191 19.4638C10.2451 19.6134 10.33 19.7505 10.4404 19.8665C10.5508 19.9826 10.6843 20.0751 10.8327 20.1385C10.9811 20.2018 11.1411 20.2345 11.303 20.2346C12.7127 20.404 13.5726 19.8301 13.9215 18.5062C13.985 18.2642 14.0731 18.195 14.3233 18.1985C15.3136 18.1985 16.304 18.1985 17.2943 18.1985C17.393 18.1985 17.5833 18.1017 17.5481 18.3541C17.2767 20.283 16.4696 21.8593 14.5524 22.6924C13.4353 23.1339 12.2348 23.3354 11.0316 23.2835Z" fill="#04FFA4"/>
<path d="M19.5698 14.6172C18.3997 15.72 16.9406 15.9066 15.4534 16.0311C15.2031 16.0518 14.9494 16.0518 14.7027 16.0726C14.456 16.0933 14.3714 16.0726 14.4243 15.7891C14.604 14.8627 14.7767 13.9293 14.9247 12.996C14.9635 12.7643 15.108 12.7989 15.2771 12.7885C16.3409 12.772 17.373 12.4313 18.2305 11.8137C19.0099 11.2232 19.5796 10.4067 19.8588 9.48032C19.8646 9.43264 19.8804 9.38667 19.9053 9.34534C19.9302 9.304 19.9636 9.26821 20.0034 9.24024C20.0432 9.21228 20.0885 9.19274 20.1364 9.18289C20.1843 9.17304 20.2338 9.17309 20.2817 9.18303C21.4271 9.18303 22.576 9.18303 23.7214 9.18303C24.0175 9.18303 24.0457 9.26945 23.9999 9.52871C23.1963 13.9927 22.3986 18.4543 21.6068 22.9137C21.561 23.1695 21.4729 23.2352 21.2192 23.2317C20.2394 23.2317 19.2632 23.2317 18.2834 23.2317C18.012 23.2317 17.931 23.1868 17.9979 22.886C18.5231 20.1931 19.0306 17.4933 19.5416 14.797C19.5522 14.759 19.5592 14.7036 19.5698 14.6172Z" fill="#04FFA4"/>
<path d="M24.966 23.2213C24.3704 23.2213 23.7748 23.2213 23.1792 23.2213C22.9078 23.2213 22.8725 23.1521 22.9219 22.9032C23.1157 21.918 23.2743 20.9293 23.4576 19.9407C23.4928 19.7367 23.5563 19.6469 23.81 19.6469C25.0153 19.6469 26.2207 19.6469 27.426 19.6469C27.6304 19.6469 27.7256 19.6676 27.6833 19.913C27.5023 20.9017 27.3344 21.8915 27.1793 22.8825C27.1405 23.1348 27.0489 23.2282 26.774 23.2282C26.1607 23.2212 25.5651 23.2213 24.966 23.2213Z" fill="#04FFA4"/>
<path d="M42.6694 22.945C41.2127 22.945 40.0543 22.5417 39.1944 21.7351C38.3345 20.9285 37.9022 19.7693 37.8975 18.2574V15.492C37.8975 13.9802 38.3298 12.8209 39.1944 12.0143C40.059 11.2077 41.2174 10.8044 42.6694 10.8044C44.1238 10.8044 45.2457 11.1939 46.0351 11.9729C46.8246 12.7518 47.2193 13.82 47.2193 15.1774V15.2707H45.2104V15.1186C45.2367 14.4601 45.0146 13.8152 44.5866 13.3072C44.1708 12.8371 43.5293 12.6158 42.6694 12.6158C42.3026 12.5976 41.9361 12.656 41.594 12.7871C41.252 12.9182 40.9422 13.119 40.6852 13.3764C40.1745 13.9554 39.914 14.7069 39.9592 15.4712V18.3058C39.9207 19.063 40.1807 19.8057 40.6852 20.38C40.9408 20.6396 41.2501 20.8425 41.5924 20.9749C41.9347 21.1072 42.302 21.1661 42.6694 21.1474C43.5329 21.1474 44.1708 20.9089 44.5866 20.456C45.0146 19.948 45.2367 19.3031 45.2104 18.6446V18.3612H47.2193V18.5928C47.2193 19.9525 46.8246 21.0206 46.0351 21.7973C45.2457 22.5739 44.1238 22.9565 42.6694 22.945Z" fill="#0D0619"/>
<path d="M47.6025 22.7099V11.0326H49.5621V15.5542H49.8546C49.9622 15.3387 50.1119 15.1461 50.2951 14.9872C50.531 14.7795 50.8065 14.6197 51.1057 14.5171C51.5146 14.3842 51.9439 14.3222 52.3745 14.3339C52.9778 14.322 53.5732 14.4701 54.0979 14.7626C54.5944 15.0453 54.9979 15.4615 55.2609 15.9621C55.5511 16.525 55.6941 17.1498 55.6768 17.7804V22.7099H53.7172V17.9221C53.7393 17.6531 53.7064 17.3824 53.6204 17.126C53.5345 16.8696 53.3973 16.6325 53.2168 16.4288C53.0269 16.2591 52.8044 16.1283 52.5623 16.044C52.3203 15.9597 52.0635 15.9236 51.8071 15.9379C51.5004 15.923 51.1943 15.9759 50.9113 16.0926C50.6283 16.2092 50.3755 16.3867 50.1718 16.612C49.7398 17.1622 49.5269 17.8479 49.5726 18.5409V22.7099H47.6025Z" fill="#0D0619"/>
<path d="M59.0696 22.9449C58.5192 22.9521 57.9732 22.8474 57.4661 22.6372C57.0127 22.4474 56.6213 22.1388 56.3348 21.7453C56.0452 21.3207 55.8985 20.8178 55.9154 20.3073C55.9025 19.8144 56.0493 19.3303 56.3348 18.9245C56.619 18.5283 57.0127 18.2201 57.4696 18.0361C58.0022 17.8349 58.5694 17.7363 59.1401 17.7457H61.5754V17.2549C61.5839 17.0606 61.5521 16.8666 61.4818 16.6848C61.4115 16.5029 61.3043 16.337 61.1666 16.1971C60.9931 16.0479 60.7906 15.9346 60.5714 15.8639C60.3522 15.7932 60.1207 15.7666 59.8908 15.7857C59.4265 15.7513 58.9663 15.8923 58.6044 16.1798C58.308 16.447 58.1077 16.8011 58.0335 17.1892L56.2255 16.605C56.3625 16.1713 56.5853 15.7684 56.881 15.4193C57.2135 15.0495 57.63 14.7617 58.0969 14.5792C58.6789 14.3395 59.3055 14.2218 59.9366 14.2336C60.8755 14.1803 61.8015 14.4683 62.5376 15.0425C62.8621 15.3409 63.1151 15.7062 63.2784 16.1121C63.4417 16.518 63.5113 16.9543 63.4821 17.3897V20.6253C63.4821 20.971 63.6407 21.1266 63.9579 21.1266H64.6628V22.7098H63.2812C62.9216 22.7259 62.5673 22.621 62.2768 22.4125C62.1485 22.3173 62.0456 22.1931 61.9769 22.0504C61.9081 21.9077 61.8756 21.7509 61.8821 21.5932V21.5587H61.5931C61.4985 21.7615 61.3802 21.9529 61.2406 22.129C61.0318 22.3775 60.7662 22.5741 60.4653 22.7029C60.0232 22.8811 59.5472 22.9637 59.0696 22.9449ZM59.3939 21.3754C59.9786 21.4037 60.5519 21.2093 60.9939 20.8327C61.1987 20.6484 61.3598 20.4222 61.4658 20.1701C61.5717 19.9181 61.62 19.6463 61.6072 19.3739V19.208H59.2917C58.9312 19.192 58.5745 19.2849 58.2696 19.4742C58.1406 19.5607 58.0365 19.6783 57.9674 19.8158C57.8983 19.9532 57.8664 20.1058 57.8749 20.2589C57.8718 20.416 57.9073 20.5716 57.9785 20.7124C58.0496 20.8532 58.1543 20.9751 58.2837 21.0678C58.6094 21.287 58.9994 21.3951 59.3939 21.3754Z" fill="#0D0619"/>
<path d="M65.6464 13.4178C65.3081 13.4221 64.9811 13.2982 64.7336 13.0721C64.4895 12.8301 64.3526 12.5034 64.3526 12.1629C64.3526 11.8225 64.4895 11.4958 64.7336 11.2538C64.9811 11.0276 65.3081 10.9038 65.6464 10.9081C65.817 10.9028 65.987 10.9306 66.1467 10.99C66.3064 11.0493 66.4525 11.1389 66.5768 11.2538C66.8119 11.5003 66.9427 11.8253 66.9427 12.1629C66.9427 12.5006 66.8119 12.8255 66.5768 13.0721C66.4525 13.187 66.3064 13.2766 66.1467 13.3359C65.987 13.3953 65.817 13.4231 65.6464 13.4178ZM64.6736 22.7098V14.4687H66.6332V22.7098H64.6736Z" fill="#0D0619"/>
<path d="M67.5046 22.7098V14.4687H69.4289V15.6163H69.7214C69.9059 15.2628 70.1772 14.9598 70.5109 14.7348C71.0398 14.4194 71.6556 14.2732 72.2731 14.3166C72.8761 14.3051 73.4709 14.4557 73.9929 14.7521C74.4912 15.0406 74.8976 15.4596 75.1665 15.962C75.455 16.5255 75.5978 17.15 75.5824 17.7803V22.7098H73.6229V17.9221C73.6442 17.6528 73.6107 17.382 73.5241 17.1256C73.4376 16.8692 73.2998 16.6323 73.1189 16.4287C72.9294 16.2584 72.707 16.1272 72.4648 16.0428C72.2227 15.9585 71.9657 15.9228 71.7092 15.9378C71.402 15.923 71.0954 15.9758 70.8118 16.0924C70.5282 16.2091 70.2748 16.3866 70.0703 16.6119C69.6336 17.1605 69.4144 17.8458 69.4536 18.5408V22.7098H67.5046Z" fill="#0D0619"/>
<path d="M79.3221 22.7099V11.0326H80.4111V21.7489H86.6844V22.7133L79.3221 22.7099Z" fill="#0D0619"/>
<path d="M89.5774 22.9449C89.0378 22.952 88.5022 22.8533 88.002 22.6545C87.5541 22.4771 87.1666 22.1786 86.8848 21.7937C86.602 21.3872 86.4588 20.9028 86.476 20.411C86.4607 19.9334 86.6042 19.4638 86.8848 19.0732C87.1701 18.7091 87.5552 18.4321 87.995 18.2747C88.4899 18.0895 89.0161 17.998 89.5457 18.005H92.5766V17.3448C92.5932 17.0661 92.5514 16.7871 92.4539 16.5249C92.3563 16.2627 92.2049 16.0229 92.0092 15.8203C91.7767 15.6237 91.507 15.474 91.2156 15.3797C90.9241 15.2854 90.6165 15.2483 90.3105 15.2706C89.7114 15.2235 89.1157 15.3951 88.6376 15.7523C88.1595 16.1096 87.8328 16.6274 87.7201 17.2065L86.7333 16.9196C86.8623 16.4491 87.0812 16.0068 87.3782 15.6163C87.6886 15.2214 88.0927 14.907 88.5554 14.7003C89.109 14.4574 89.7112 14.3392 90.3175 14.3546C91.2029 14.2989 92.075 14.587 92.7458 15.1566C93.0414 15.4491 93.2709 15.7995 93.419 16.1849C93.5672 16.5703 93.6308 16.982 93.6057 17.3932V21.3444C93.6057 21.69 93.7678 21.8421 94.085 21.8421H94.885V22.7098H93.796C93.6427 22.7182 93.4892 22.6952 93.3454 22.6422C93.2016 22.5892 93.0706 22.5075 92.9608 22.4022C92.855 22.2887 92.7733 22.1556 92.7207 22.0108C92.668 21.8659 92.6454 21.7122 92.6541 21.5587V21.4446H92.4815C92.3207 21.7044 92.129 21.9446 91.9105 22.1602C91.6529 22.4116 91.3427 22.605 91.0012 22.7271C90.5447 22.8863 90.0617 22.9602 89.5774 22.9449ZM89.6479 22.0426C90.0352 22.0583 90.4218 21.9979 90.7849 21.865C91.1481 21.732 91.4804 21.5291 91.7625 21.2683C92.0443 20.9767 92.262 20.6313 92.4021 20.2537C92.5421 19.8761 92.6015 19.4743 92.5766 19.0732V18.8727H89.5598C89.0416 18.8532 88.5291 18.9843 88.0866 19.2495C87.8929 19.3743 87.7364 19.5472 87.633 19.7506C87.5296 19.954 87.4831 20.1807 87.4981 20.4075C87.4871 20.643 87.5369 20.8773 87.6429 21.0888C87.7489 21.3003 87.9076 21.4821 88.1042 21.6174C88.5597 21.9164 89.1004 22.0653 89.6479 22.0426Z" fill="#0D0619"/>
<path d="M99.2928 22.945C98.5497 22.9861 97.8116 22.8028 97.1782 22.4195C96.7138 22.1155 96.3306 21.7065 96.061 21.2269H95.8566V22.7099H94.8662V11.0326H95.8847V16.0209H96.0927C96.2523 15.7245 96.462 15.4568 96.713 15.2292C97.0195 14.9555 97.3791 14.7451 97.7703 14.6105C98.2653 14.4373 98.7886 14.3553 99.3139 14.3685C100.023 14.3587 100.723 14.5341 101.34 14.8766C101.947 15.2196 102.442 15.7227 102.771 16.3285C103.138 17.0156 103.32 17.783 103.3 18.5582V18.7552C103.319 19.5312 103.135 20.2991 102.764 20.9849C102.429 21.59 101.931 22.0925 101.323 22.4368C100.705 22.7815 100.004 22.957 99.2928 22.945ZM99.0566 22.0427C99.4802 22.0595 99.9027 21.9895 100.297 21.8372C100.692 21.6848 101.049 21.4534 101.347 21.1578C101.651 20.8303 101.886 20.4468 102.037 20.0296C102.188 19.6123 102.253 19.1697 102.229 18.7276V18.5893C102.253 18.1491 102.187 17.7086 102.037 17.2932C101.886 16.8779 101.653 16.496 101.351 16.1695C100.73 15.5991 99.911 15.2817 99.0602 15.2817C98.2094 15.2817 97.3904 15.5991 96.7694 16.1695C96.4643 16.4944 96.2285 16.8758 96.076 17.2914C95.9235 17.707 95.8573 18.1483 95.8812 18.5893V18.7276C95.8573 19.1686 95.9235 19.6099 96.076 20.0255C96.2285 20.4411 96.4643 20.8225 96.7694 21.1474C97.0667 21.4438 97.4235 21.6764 97.8172 21.8305C98.2109 21.9846 98.633 22.0569 99.0566 22.0427Z" fill="#0D0619"/>
<path d="M107.199 22.9449C106.292 22.9732 105.398 22.7322 104.633 22.2536C103.928 21.7869 103.488 21.0125 103.329 19.934L104.337 19.7508C104.395 20.2514 104.586 20.7283 104.891 21.1335C105.155 21.4651 105.509 21.7168 105.913 21.8595C106.325 22.0063 106.76 22.0801 107.199 22.0773C107.777 22.1049 108.35 21.9629 108.845 21.6693C109.039 21.5505 109.199 21.3841 109.307 21.1865C109.416 20.9889 109.47 20.7669 109.465 20.5424C109.483 20.3346 109.436 20.1265 109.331 19.9452C109.226 19.7639 109.068 19.6178 108.877 19.5261C108.382 19.3042 107.857 19.1518 107.319 19.0732L106.533 18.9419C106.048 18.8616 105.574 18.7235 105.123 18.5305C104.732 18.3693 104.389 18.1136 104.126 17.7873C103.878 17.449 103.754 17.0385 103.773 16.6223C103.762 16.2995 103.834 15.979 103.981 15.6902C104.129 15.4015 104.348 15.1539 104.619 14.9699C105.303 14.572 106.085 14.364 106.88 14.3682C107.675 14.3725 108.454 14.5888 109.134 14.9941C109.723 15.435 110.112 16.0857 110.216 16.8055L109.243 16.9991C109.219 16.725 109.134 16.4594 108.995 16.2206C108.855 15.9819 108.665 15.7757 108.436 15.6164C107.955 15.3355 107.402 15.1963 106.843 15.2154C106.319 15.1896 105.799 15.3095 105.342 15.5611C105.162 15.6688 105.015 15.8219 104.916 16.0042C104.817 16.1866 104.769 16.3916 104.778 16.5981C104.765 16.7907 104.806 16.9831 104.896 17.1547C104.986 17.3264 105.122 17.4709 105.289 17.573C105.725 17.8121 106.203 17.9681 106.699 18.0327L107.481 18.1641C108.006 18.2422 108.521 18.3743 109.018 18.5582C109.435 18.7063 109.808 18.9561 110.1 19.2841C110.378 19.6357 110.519 20.0734 110.498 20.5182C110.513 20.8632 110.44 21.2064 110.285 21.5167C110.131 21.827 109.9 22.0945 109.613 22.295C108.899 22.7574 108.054 22.985 107.199 22.9449Z" fill="#0D0619"/>
</svg>
