<svg width="1440" height="527" viewBox="0 0 1440 527" fill="none" xmlns="http://www.w3.org/2000/svg">
<g clip-path="url(#clip0_503_2)">
<path fill-rule="evenodd" clip-rule="evenodd" d="M318.126 753.363L318.126 717.524L252.147 717.524L252.147 753.363L251.147 753.363L251.147 717.524L185.168 717.524L185.168 753.363L184.168 753.363L184.168 717.524L118.189 717.524L118.189 753.363L117.189 753.363L117.189 717.524L51.2103 717.524L51.2103 753.363L50.2103 753.363L50.2103 717.524L-15.7687 717.524L-15.7687 753.363L-16.7687 753.363L-16.7687 717.524L-83.7478 717.524L-83.7478 716.524L-16.7687 716.524L-16.7687 662.825L-83.7478 662.825L-83.7478 661.825L-16.7687 661.825L-16.7687 608.126L-83.7478 608.126L-83.7478 607.126L-16.7687 607.126L-16.7687 553.427L-83.7478 553.427L-83.7478 552.427L-16.7687 552.427L-16.7687 498.727L-83.7478 498.727L-83.7478 497.727L-16.7687 497.727L-16.7687 444.028L-83.7478 444.028L-83.7478 443.028L-16.7687 443.028L-16.7687 389.329L-83.7478 389.329L-83.7478 388.329L-16.7687 388.329L-16.7687 334.628L-83.7477 334.628L-83.7478 333.628L-16.7687 333.628L-16.7687 279.928L-83.7477 279.928L-83.7477 278.928L-16.7687 278.928L-16.7687 225.231L-83.7477 225.231L-83.7477 224.231L-16.7687 224.231L-16.7687 170.532L-83.7477 170.532L-83.7477 169.532L-16.7687 169.532L-16.7686 115.946L-15.7686 115.946L-15.7687 169.532L50.2103 169.532L50.2103 169.529L51.2103 169.529L51.2103 333.628L184.168 333.628L184.168 334.628L51.2103 334.628L51.2103 388.329L117.189 388.329L117.189 334.744L118.189 334.744L118.189 388.329L184.168 388.329L184.168 334.744L185.168 334.744L185.168 443.028L251.147 443.028L251.147 388.327L252.147 388.327L252.147 443.028L318.126 443.028L318.126 261.663L319.126 261.663L319.126 443.028L385.105 443.028L385.105 443.027L386.105 443.027L386.105 443.028L452.084 443.028L452.084 443.027L453.084 443.027L453.084 443.028L519.063 443.028L519.063 388.327L520.063 388.327L520.063 443.028L586.042 443.028L586.042 334.744L587.042 334.744L587.042 443.028L653.021 443.028L653.021 443.027L654.021 443.027L654.021 443.028L720 443.028L720 443.027L721 443.027L721 443.028L786.979 443.028L786.979 388.328L787.979 388.328L787.979 443.028L853.958 443.028L853.958 443.027L854.958 443.027L854.958 443.028L920.937 443.028L920.937 334.744L921.937 334.744L921.937 443.028L987.916 443.028L987.916 411.189L988.916 411.189L988.916 443.028L1054.9 443.028L1054.89 389.329L1054.89 388.329L1054.9 364.282L1055.9 364.282L1055.9 388.329L1121.87 388.329L1121.87 334.744L1122.87 334.744L1122.87 388.329L1188.85 388.329L1188.85 334.628L1121.87 334.628L1121.87 333.628L1188.85 333.628L1188.85 279.931L1188.85 278.931L1188.85 278.929L1189.85 278.929L1189.85 278.931L1255.83 278.931L1255.83 225.345L1256.83 225.345L1256.83 278.931L1322.81 278.931L1322.81 225.231L1255.83 225.231L1255.83 224.231L1322.81 224.231L1322.81 170.646L1323.81 170.646L1323.81 224.231L1389.79 224.231L1389.79 170.532L1322.81 170.532L1322.81 169.532L1389.79 169.532L1389.79 115.833L1389.79 114.833L1389.79 114.83L1390.79 114.83L1390.79 114.833L1456.77 114.833L1456.77 57.1446L1457.77 57.1446L1457.77 114.833L1523.75 114.833L1523.75 115.833L1457.77 115.833L1457.77 169.532L1523.75 169.532L1523.75 170.532L1457.77 170.532L1457.77 224.231L1523.75 224.231L1523.75 225.231L1457.77 225.231L1457.77 278.931L1523.75 278.931L1523.75 279.931L1457.77 279.931L1457.77 333.628L1523.75 333.628L1523.75 334.628L1457.77 334.628L1457.77 388.329L1523.75 388.329L1523.75 389.329L1457.77 389.329L1457.77 443.028L1523.75 443.028L1523.75 444.028L1457.77 444.028L1457.77 497.728L1523.75 497.728L1523.75 498.728L1457.77 498.728L1457.77 552.427L1523.75 552.427L1523.75 553.427L1457.77 553.427L1457.77 607.126L1523.75 607.126L1523.75 608.126L1457.77 608.126L1457.77 661.825L1523.75 661.825L1523.75 662.825L1457.77 662.825L1457.77 716.525L1523.75 716.525L1523.75 717.525L1457.77 717.525L1457.77 753.363L1456.77 753.363L1456.77 717.525L1390.79 717.525L1390.79 753.363L1389.79 753.363L1389.79 717.525L1323.81 717.525L1323.81 753.363L1322.81 753.363L1322.81 717.525L1256.83 717.525L1256.83 753.363L1255.83 753.363L1255.83 717.525L1189.85 717.525L1189.85 753.363L1188.85 753.363L1188.85 717.525L1122.87 717.525L1122.87 753.363L1121.87 753.363L1121.87 717.525L1055.9 717.525L1055.9 753.363L1054.9 753.363L1054.9 717.525L988.916 717.525L988.916 753.363L987.916 753.363L987.916 717.525L921.937 717.525L921.937 753.363L920.937 753.363L920.937 717.525L854.958 717.525L854.958 753.363L853.958 753.363L853.958 717.525L787.979 717.524L787.979 753.363L786.979 753.363L786.979 717.524L721 717.524L721 753.363L720 753.363L720 717.524L654.021 717.524L654.021 753.363L653.021 753.363L653.021 717.524L587.042 717.524L587.042 753.363L586.042 753.363L586.042 717.524L520.063 717.524L520.063 753.363L519.063 753.363L519.063 717.524L453.084 717.524L453.084 753.363L452.084 753.363L452.084 717.524L386.105 717.524L386.105 753.363L385.105 753.363L385.105 717.524L319.126 717.524L319.126 753.363L318.126 753.363ZM1456.77 115.833L1390.79 115.833L1390.79 169.532L1456.77 169.532L1456.77 115.833ZM50.2103 170.532L-15.7687 170.532L-15.7687 224.231L50.2103 224.231L50.2103 170.532ZM1390.79 224.231L1390.79 170.532L1456.77 170.532L1456.77 224.231L1390.79 224.231ZM1456.77 225.231L1390.79 225.231L1390.79 278.931L1456.77 278.931L1456.77 225.231ZM1389.79 225.231L1323.81 225.231L1323.81 278.931L1389.79 278.931L1389.79 225.231ZM-15.7687 388.329L-15.7687 334.628L50.2103 334.628L50.2103 388.329L-15.7687 388.329ZM50.2103 279.928L50.2103 333.628L-15.7687 333.628L-15.7687 279.928L50.2103 279.928ZM50.2103 278.928L50.2103 225.231L-15.7687 225.231L-15.7687 278.928L50.2103 278.928ZM1456.77 279.931L1390.79 279.931L1390.79 333.628L1456.77 333.628L1456.77 279.931ZM1389.79 279.931L1323.81 279.931L1323.81 333.628L1389.79 333.628L1389.79 279.931ZM1322.81 279.931L1256.83 279.931L1256.83 333.628L1322.81 333.628L1322.81 279.931ZM1255.83 279.931L1189.85 279.931L1189.85 333.628L1255.83 333.628L1255.83 279.931ZM-15.7687 443.028L-15.7687 389.329L50.2103 389.329L50.2103 443.028L-15.7687 443.028ZM51.2103 443.028L51.2103 389.329L117.189 389.329L117.189 443.028L51.2103 443.028ZM118.189 443.028L118.189 389.329L184.168 389.329L184.168 443.028L118.189 443.028ZM1456.77 334.628L1390.79 334.628L1390.79 388.329L1456.77 388.329L1456.77 334.628ZM1389.79 334.628L1323.81 334.628L1323.81 388.329L1389.79 388.329L1389.79 334.628ZM1322.81 334.628L1256.83 334.628L1256.83 388.329L1322.81 388.329L1322.81 334.628ZM1255.83 334.628L1189.85 334.628L1189.85 388.329L1255.83 388.329L1255.83 334.628ZM1055.9 443.028L1055.9 389.329L1121.87 389.329L1121.87 443.028L1055.9 443.028ZM1122.87 443.028L1122.87 389.329L1188.85 389.329L1188.85 443.028L1122.87 443.028ZM1189.85 443.028L1189.85 389.329L1255.83 389.329L1255.83 443.028L1189.85 443.028ZM1256.83 443.028L1256.83 389.329L1322.81 389.329L1322.81 443.028L1256.83 443.028ZM1323.81 443.028L1323.81 389.329L1389.79 389.329L1389.79 443.028L1323.81 443.028ZM1390.79 443.028L1390.79 389.329L1456.77 389.329L1456.77 443.028L1390.79 443.028ZM1456.77 444.028L1390.79 444.028L1390.79 497.728L1456.77 497.728L1456.77 444.028ZM1389.79 444.028L1323.81 444.028L1323.81 497.728L1389.79 497.728L1389.79 444.028ZM1322.81 444.028L1256.83 444.028L1256.83 497.728L1322.81 497.728L1322.81 444.028ZM1255.83 444.028L1189.85 444.028L1189.85 497.728L1255.83 497.728L1255.83 444.028ZM1188.85 444.028L1122.87 444.028L1122.87 497.728L1188.85 497.728L1188.85 444.028ZM1121.87 444.028L1055.9 444.028L1055.9 497.728L1121.87 497.728L1121.87 444.028ZM1054.9 444.028L988.916 444.028L988.916 497.728L1054.9 497.728L1054.9 444.028ZM987.916 444.028L921.937 444.028L921.937 497.728L987.916 497.728L987.916 444.028ZM920.937 444.028L854.958 444.028L854.958 497.728L920.937 497.728L920.937 444.028ZM853.958 444.028L787.979 444.028L787.979 497.728L853.958 497.728L853.958 444.028ZM786.979 444.028L721 444.028L721 497.728L786.979 497.728L786.979 444.028ZM720 444.028L654.021 444.028L654.021 497.728L720 497.728L720 444.028ZM653.021 444.028L587.042 444.028L587.042 497.728L653.021 497.728L653.021 444.028ZM586.042 444.028L520.063 444.028L520.063 497.728L586.042 497.728L586.042 444.028ZM519.063 444.028L453.084 444.028L453.084 497.728L519.063 497.728L519.063 444.028ZM452.084 444.028L386.105 444.028L386.105 497.728L452.084 497.728L452.084 444.028ZM385.105 444.028L319.126 444.028L319.126 497.727L385.105 497.728L385.105 444.028ZM318.126 444.028L252.147 444.028L252.147 497.727L318.126 497.727L318.126 444.028ZM251.147 444.028L185.168 444.028L185.168 497.727L251.147 497.727L251.147 444.028ZM184.168 444.028L118.189 444.028L118.189 497.727L184.168 497.727L184.168 444.028ZM117.189 444.028L51.2103 444.028L51.2103 497.727L117.189 497.727L117.189 444.028ZM50.2103 444.028L-15.7687 444.028L-15.7687 497.727L50.2103 497.727L50.2103 444.028ZM-15.7687 552.427L-15.7687 498.727L50.2103 498.727L50.2103 552.427L-15.7687 552.427ZM51.2103 552.427L51.2103 498.727L117.189 498.727L117.189 552.427L51.2103 552.427ZM118.189 552.427L118.189 498.727L184.168 498.727L184.168 552.427L118.189 552.427ZM185.168 552.427L185.168 498.727L251.147 498.727L251.147 552.427L185.168 552.427ZM252.147 552.427L252.147 498.727L318.126 498.727L318.126 552.427L252.147 552.427ZM319.126 552.427L319.126 498.727L385.105 498.728L385.105 552.427L319.126 552.427ZM386.105 552.427L386.105 498.728L452.084 498.728L452.084 552.427L386.105 552.427ZM453.084 552.427L453.084 498.728L519.063 498.728L519.063 552.427L453.084 552.427ZM520.063 552.427L520.063 498.728L586.042 498.728L586.042 552.427L520.063 552.427ZM587.042 552.427L587.042 498.728L653.021 498.728L653.021 552.427L587.042 552.427ZM654.021 552.427L654.021 498.728L720 498.728L720 552.427L654.021 552.427ZM721 552.427L721 498.728L786.979 498.728L786.979 552.427L721 552.427ZM787.979 552.427L787.979 498.728L853.958 498.728L853.958 552.427L787.979 552.427ZM854.958 552.427L854.958 498.728L920.937 498.728L920.937 552.427L854.958 552.427ZM921.937 552.427L921.937 498.728L987.916 498.728L987.916 552.427L921.937 552.427ZM988.916 552.427L988.916 498.728L1054.9 498.728L1054.9 552.427L988.916 552.427ZM1055.9 552.427L1055.9 498.728L1121.87 498.728L1121.87 552.427L1055.9 552.427ZM1122.87 552.427L1122.87 498.728L1188.85 498.728L1188.85 552.427L1122.87 552.427ZM1189.85 552.427L1189.85 498.728L1255.83 498.728L1255.83 552.427L1189.85 552.427ZM1256.83 552.427L1256.83 498.728L1322.81 498.728L1322.81 552.427L1256.83 552.427ZM1323.81 552.427L1323.81 498.728L1389.79 498.728L1389.79 552.427L1323.81 552.427ZM1390.79 552.427L1390.79 498.728L1456.77 498.728L1456.77 552.427L1390.79 552.427ZM1456.77 553.427L1390.79 553.427L1390.79 607.126L1456.77 607.126L1456.77 553.427ZM1389.79 553.427L1323.81 553.427L1323.81 607.126L1389.79 607.126L1389.79 553.427ZM1322.81 553.427L1256.83 553.427L1256.83 607.126L1322.81 607.126L1322.81 553.427ZM1255.83 553.427L1189.85 553.427L1189.85 607.126L1255.83 607.126L1255.83 553.427ZM1188.85 553.427L1122.87 553.427L1122.87 607.126L1188.85 607.126L1188.85 553.427ZM1121.87 553.427L1055.9 553.427L1055.9 607.126L1121.87 607.126L1121.87 553.427ZM1054.9 553.427L988.916 553.427L988.916 607.126L1054.9 607.126L1054.9 553.427ZM987.916 553.427L921.937 553.427L921.937 607.126L987.916 607.126L987.916 553.427ZM920.937 553.427L854.958 553.427L854.958 607.126L920.937 607.126L920.937 553.427ZM853.958 553.427L787.979 553.427L787.979 607.126L853.958 607.126L853.958 553.427ZM786.979 553.427L721 553.427L721 607.126L786.979 607.126L786.979 553.427ZM720 553.427L654.021 553.427L654.021 607.126L720 607.126L720 553.427ZM653.021 553.427L587.042 553.427L587.042 607.126L653.021 607.126L653.021 553.427ZM586.042 553.427L520.063 553.427L520.063 607.126L586.042 607.126L586.042 553.427ZM519.063 553.427L453.084 553.427L453.084 607.126L519.063 607.126L519.063 553.427ZM452.084 553.427L386.105 553.427L386.105 607.126L452.084 607.126L452.084 553.427ZM385.105 553.427L319.126 553.427L319.126 607.126L385.105 607.126L385.105 553.427ZM318.126 553.427L252.147 553.427L252.147 607.126L318.126 607.126L318.126 553.427ZM251.147 553.427L185.168 553.427L185.168 607.126L251.147 607.126L251.147 553.427ZM184.168 553.427L118.189 553.427L118.189 607.126L184.168 607.126L184.168 553.427ZM117.189 553.427L51.2103 553.427L51.2103 607.126L117.189 607.126L117.189 553.427ZM50.2103 553.427L-15.7687 553.427L-15.7687 607.126L50.2103 607.126L50.2103 553.427ZM-15.7687 661.825L-15.7687 608.126L50.2103 608.126L50.2103 661.825L-15.7687 661.825ZM51.2103 661.825L51.2103 608.126L117.189 608.126L117.189 661.825L51.2103 661.825ZM118.189 661.825L118.189 608.126L184.168 608.126L184.168 661.825L118.189 661.825ZM185.168 661.825L185.168 608.126L251.147 608.126L251.147 661.825L185.168 661.825ZM252.147 661.825L252.147 608.126L318.126 608.126L318.126 661.825L252.147 661.825ZM319.126 661.825L319.126 608.126L385.105 608.126L385.105 661.825L319.126 661.825ZM386.105 661.825L386.105 608.126L452.084 608.126L452.084 661.825L386.105 661.825ZM453.084 661.825L453.084 608.126L519.063 608.126L519.063 661.825L453.084 661.825ZM520.063 661.825L520.063 608.126L586.042 608.126L586.042 661.825L520.063 661.825ZM587.042 661.825L587.042 608.126L653.021 608.126L653.021 661.825L587.042 661.825ZM654.021 661.825L654.021 608.126L720 608.126L720 661.825L654.021 661.825ZM721 661.825L721 608.126L786.979 608.126L786.979 661.825L721 661.825ZM787.979 661.825L787.979 608.126L853.958 608.126L853.958 661.825L787.979 661.825ZM854.958 661.825L854.958 608.126L920.937 608.126L920.937 661.825L854.958 661.825ZM921.937 661.825L921.937 608.126L987.916 608.126L987.916 661.825L921.937 661.825ZM988.916 661.825L988.916 608.126L1054.9 608.126L1054.9 661.825L988.916 661.825ZM1055.9 661.825L1055.9 608.126L1121.87 608.126L1121.87 661.825L1055.9 661.825ZM1122.87 661.825L1122.87 608.126L1188.85 608.126L1188.85 661.825L1122.87 661.825ZM1189.85 661.825L1189.85 608.126L1255.83 608.126L1255.83 661.825L1189.85 661.825ZM1256.83 661.825L1256.83 608.126L1322.81 608.126L1322.81 661.825L1256.83 661.825ZM1323.81 661.825L1323.81 608.126L1389.79 608.126L1389.79 661.825L1323.81 661.825ZM1390.79 661.825L1390.79 608.126L1456.77 608.126L1456.77 661.825L1390.79 661.825ZM1456.77 662.825L1390.79 662.825L1390.79 716.525L1456.77 716.525L1456.77 662.825ZM1389.79 662.825L1323.81 662.825L1323.81 716.525L1389.79 716.525L1389.79 662.825ZM1322.81 662.825L1256.83 662.825L1256.83 716.525L1322.81 716.525L1322.81 662.825ZM1255.83 662.825L1189.85 662.825L1189.85 716.525L1255.83 716.525L1255.83 662.825ZM1188.85 662.825L1122.87 662.825L1122.87 716.525L1188.85 716.525L1188.85 662.825ZM1121.87 662.825L1055.9 662.825L1055.9 716.525L1121.87 716.525L1121.87 662.825ZM1054.9 662.825L988.916 662.825L988.916 716.525L1054.9 716.525L1054.9 662.825ZM987.916 662.825L921.937 662.825L921.937 716.525L987.916 716.525L987.916 662.825ZM920.937 662.825L854.958 662.825L854.958 716.525L920.937 716.525L920.937 662.825ZM853.958 662.825L787.979 662.825L787.979 716.524L853.958 716.525L853.958 662.825ZM786.979 662.825L721 662.825L721 716.524L786.979 716.524L786.979 662.825ZM720 662.825L654.021 662.825L654.021 716.524L720 716.524L720 662.825ZM653.021 662.825L587.042 662.825L587.042 716.524L653.021 716.524L653.021 662.825ZM586.042 662.825L520.063 662.825L520.063 716.524L586.042 716.524L586.042 662.825ZM519.063 662.825L453.084 662.825L453.084 716.524L519.063 716.524L519.063 662.825ZM452.084 662.825L386.105 662.825L386.105 716.524L452.084 716.524L452.084 662.825ZM385.105 662.825L319.126 662.825L319.126 716.524L385.105 716.524L385.105 662.825ZM318.126 662.825L252.147 662.825L252.147 716.524L318.126 716.524L318.126 662.825ZM251.147 662.825L185.168 662.825L185.168 716.524L251.147 716.524L251.147 662.825ZM184.168 662.825L118.189 662.825L118.189 716.524L184.168 716.524L184.168 662.825ZM117.189 662.825L51.2103 662.825L51.2103 716.524L117.189 716.524L117.189 662.825ZM50.2103 662.825L-15.7687 662.825L-15.7687 716.524L50.2103 716.524L50.2103 662.825ZM-83.7477 114.83L-16.7686 114.83L-16.7686 115.83L-83.7477 115.83L-83.7477 114.83Z" fill="url(#paint0_linear_503_2)"/>
</g>
<defs>
<linearGradient id="paint0_linear_503_2" x1="720" y1="1051.99" x2="720" y2="277.244" gradientUnits="userSpaceOnUse">
<stop stop-color="#4743C5"/>
<stop offset="1" stop-color="#E0EAFF" stop-opacity="0.15"/>
</linearGradient>
<clipPath id="clip0_503_2">
<rect width="1440" height="526" fill="white" transform="translate(0 0.227539)"/>
</clipPath>
</defs>
</svg>
