<svg width="49" height="49" viewBox="0 0 49 49" fill="none" xmlns="http://www.w3.org/2000/svg">
<path d="M3.64441 8C3.64441 6.80653 4.11852 5.66193 4.96243 4.81802C5.80634 3.97411 6.95093 3.5 8.14441 3.5H17.1444C18.3379 3.5 19.4825 3.97411 20.3264 4.81802C21.1703 5.66193 21.6444 6.80653 21.6444 8V17C21.6444 18.1935 21.1703 19.3381 20.3264 20.182C19.4825 21.0259 18.3379 21.5 17.1444 21.5H8.14441C6.95093 21.5 5.80634 21.0259 4.96243 20.182C4.11852 19.3381 3.64441 18.1935 3.64441 17V8ZM27.6444 8C27.6444 6.80653 28.1185 5.66193 28.9624 4.81802C29.8063 3.97411 30.9509 3.5 32.1444 3.5H41.1444C42.3379 3.5 43.4825 3.97411 44.3264 4.81802C45.1703 5.66193 45.6444 6.80653 45.6444 8V17C45.6444 18.1935 45.1703 19.3381 44.3264 20.182C43.4825 21.0259 42.3379 21.5 41.1444 21.5H32.1444C30.9509 21.5 29.8063 21.0259 28.9624 20.182C28.1185 19.3381 27.6444 18.1935 27.6444 17V8ZM3.64441 32C3.64441 30.8065 4.11852 29.6619 4.96243 28.818C5.80634 27.9741 6.95093 27.5 8.14441 27.5H17.1444C18.3379 27.5 19.4825 27.9741 20.3264 28.818C21.1703 29.6619 21.6444 30.8065 21.6444 32V41C21.6444 42.1935 21.1703 43.3381 20.3264 44.182C19.4825 45.0259 18.3379 45.5 17.1444 45.5H8.14441C6.95093 45.5 5.80634 45.0259 4.96243 44.182C4.11852 43.3381 3.64441 42.1935 3.64441 41V32ZM27.6444 32C27.6444 30.8065 28.1185 29.6619 28.9624 28.818C29.8063 27.9741 30.9509 27.5 32.1444 27.5H41.1444C42.3379 27.5 43.4825 27.9741 44.3264 28.818C45.1703 29.6619 45.6444 30.8065 45.6444 32V41C45.6444 42.1935 45.1703 43.3381 44.3264 44.182C43.4825 45.0259 42.3379 45.5 41.1444 45.5H32.1444C30.9509 45.5 29.8063 45.0259 28.9624 44.182C28.1185 43.3381 27.6444 42.1935 27.6444 41V32Z" fill="#F5A937"/>
</svg>
