<svg width="48" height="49" viewBox="0 0 48 49" fill="none" xmlns="http://www.w3.org/2000/svg">
<path d="M24 0.5C10.7464 0.5 0 11.2464 0 24.5C0 37.7536 10.7464 48.5 24 48.5C37.2536 48.5 48 37.7536 48 24.5C48 11.2464 37.2536 0.5 24 0.5ZM25.1946 36.1357L25.2054 37.8339C25.2054 38.0696 25.0125 38.2679 24.7768 38.2679H23.2554C23.0196 38.2679 22.8268 38.075 22.8268 37.8393V36.1571C18.0696 35.8036 15.8304 33.0929 15.5893 30.1464C15.5679 29.8946 15.7661 29.6804 16.0179 29.6804H18.4929C18.7018 29.6804 18.8839 29.8304 18.9161 30.0339C19.1893 31.7321 20.5125 33.0018 22.8857 33.3179V25.6732L21.5625 25.3357C18.7607 24.6661 16.0929 22.9196 16.0929 19.2982C16.0929 15.3929 19.0607 13.2929 22.8536 12.9232V11.1554C22.8536 10.9196 23.0464 10.7268 23.2821 10.7268H24.7875C25.0232 10.7268 25.2161 10.9196 25.2161 11.1554V12.9071C28.8857 13.2768 31.6393 15.4196 31.9607 18.7571C31.9875 19.0089 31.7893 19.2286 31.5321 19.2286H29.1268C28.9125 19.2286 28.7304 19.0679 28.7036 18.8589C28.4893 17.2946 27.2357 16.0196 25.1946 15.7411V22.9357L26.5554 23.2518C30.0268 24.1089 32.3893 25.7696 32.3893 29.4875C32.3893 33.5214 29.3893 35.7714 25.1946 36.1357ZM19.425 19.0518C19.425 20.4125 20.2661 21.4679 22.0768 22.1214C22.3286 22.2232 22.5804 22.3036 22.8804 22.3893V15.7464C20.9036 15.9982 19.425 17.1071 19.425 19.0518ZM25.6661 26.2946C25.5161 26.2625 25.3661 26.225 25.1946 26.1768V33.3393C27.4768 33.1357 29.0518 31.8821 29.0518 29.7821C29.0518 28.1375 28.2 27.0661 25.6661 26.2946Z" fill="#207E69"/>
</svg>
