<svg width="32" height="32" viewBox="0 0 32 32" fill="none" xmlns="http://www.w3.org/2000/svg">
<path d="M26.36 9.64L26.3733 9.62667L22.12 5.37333C21.9318 5.18736 21.6779 5.08306 21.4133 5.08306C21.1487 5.08306 20.8948 5.18736 20.7066 5.37333C20.32 5.76 20.32 6.4 20.7066 6.78667L22.8133 8.89333C21.4133 9.42667 20.4666 10.8533 20.7066 12.5067C20.92 13.9733 22.1733 15.16 23.64 15.32C24.2666 15.3867 24.8133 15.28 25.3333 15.0533V24.6667C25.3333 25.4 24.7333 26 24 26C23.2666 26 22.6666 25.4 22.6666 24.6667V18.6667C22.6666 17.2 21.4666 16 20 16H18.6666V6.66667C18.6666 5.2 17.4666 4 16 4H7.99998C6.53331 4 5.33331 5.2 5.33331 6.66667V26.6667C5.33331 27.4 5.93331 28 6.66665 28H17.3333C18.0666 28 18.6666 27.4 18.6666 26.6667V18H20.6666V24.48C20.6666 26.2267 21.92 27.8133 23.6533 27.9867C24.1182 28.0353 24.588 27.9856 25.0324 27.8408C25.4768 27.6961 25.8858 27.4595 26.2328 27.1464C26.5799 26.8333 26.8572 26.4507 27.0468 26.0235C27.2363 25.5963 27.334 25.134 27.3333 24.6667V12C27.3333 11.08 26.96 10.24 26.36 9.64ZM16 13.3333H7.99998V8C7.99998 7.26667 8.59998 6.66667 9.33331 6.66667H14.6666C15.4 6.66667 16 7.26667 16 8V13.3333ZM24 13.3333C23.2666 13.3333 22.6666 12.7333 22.6666 12C22.6666 11.2667 23.2666 10.6667 24 10.6667C24.7333 10.6667 25.3333 11.2667 25.3333 12C25.3333 12.7333 24.7333 13.3333 24 13.3333Z" fill="#F5A937"/>
</svg>
