<svg width="86" height="24" viewBox="0 0 86 24" fill="none" xmlns="http://www.w3.org/2000/svg">
<path d="M14.1302 20.5294H2.0059C1.859 20.5295 1.71504 20.4882 1.59051 20.4103C1.46598 20.3324 1.36592 20.221 1.30177 20.0888C1.23763 19.9567 1.212 19.8091 1.22783 19.6631C1.24366 19.517 1.3003 19.3784 1.39126 19.263L4.82341 14.9024C4.98388 14.6983 5.07837 14.4501 5.09431 14.1909C5.11025 13.9317 5.04688 13.6738 4.91265 13.4516L0.212123 5.68485C0.0776612 5.46376 0.00451377 5.21084 0.000202285 4.95211C-0.0041092 4.69337 0.0605695 4.43815 0.18759 4.2127C0.31461 3.98725 0.499387 3.7997 0.72292 3.66934C0.946453 3.53897 1.20068 3.47049 1.45945 3.47095H12.5179C12.6613 3.47102 12.802 3.51053 12.9244 3.58515C13.0469 3.65977 13.1465 3.76663 13.2124 3.89405C13.2782 4.02147 13.3077 4.16453 13.2977 4.3076C13.2877 4.45066 13.2385 4.58823 13.1556 4.70524L10.2679 8.77509C10.1243 8.97776 10.0428 9.21793 10.0336 9.46618C10.0243 9.71443 10.0876 9.96 10.2158 10.1728L15.2502 18.5251C15.371 18.7247 15.4368 18.9527 15.4409 19.1859C15.4449 19.4192 15.3871 19.6494 15.2733 19.8531C15.1595 20.0567 14.9938 20.2266 14.793 20.3454C14.5922 20.4642 14.3635 20.5277 14.1302 20.5294V20.5294Z" fill="#4743C5"/>
<g clip-path="url(#clip0_379_3826)">
<path d="M23.5118 17.9663C22.9502 17.552 22.4801 17.0264 22.1309 16.4223C21.7816 15.8181 21.5607 15.1486 21.4819 14.4552H24.225C24.3878 15.2028 24.8166 15.8656 25.4318 16.3205C26.1455 16.7921 26.9915 17.0228 27.8458 16.9788C28.5467 17.0087 29.2418 16.8374 29.8485 16.4851C30.0809 16.3478 30.2721 16.1506 30.4024 15.9141C30.5326 15.6777 30.597 15.4108 30.5889 15.141C30.5927 14.9396 30.5532 14.7396 30.4727 14.555C30.3922 14.3703 30.2729 14.2054 30.1228 14.0711C29.7919 13.7757 29.3977 13.5599 28.9705 13.4403C28.5042 13.4403 27.8735 13.1384 27.078 12.9738C26.2007 12.8307 25.3377 12.6105 24.4993 12.3155C23.8421 12.1135 23.2535 11.7337 22.7986 11.2182C22.3006 10.6198 22.046 9.85612 22.0853 9.07866C22.0502 8.508 22.1629 7.9379 22.4128 7.42366C22.6627 6.90943 23.0414 6.46848 23.5118 6.14353C24.6215 5.41997 25.9176 5.03467 27.2424 5.03467C28.5671 5.03467 29.8632 5.41997 30.9729 6.14353C31.9936 6.95345 32.67 8.11969 32.8659 9.40782H30.3695C30.2203 8.71309 29.8071 8.1034 29.2173 7.70711C28.6 7.32678 27.8847 7.13599 27.16 7.15846C26.5261 7.11917 25.8953 7.27223 25.3498 7.59745C25.1476 7.72053 24.9806 7.89387 24.8653 8.10056C24.7499 8.30726 24.6901 8.54025 24.6915 8.77696C24.6805 8.96069 24.7147 9.14432 24.7913 9.31172C24.8678 9.47911 24.984 9.62508 25.1301 9.73698C25.4361 10.0052 25.8036 10.1937 26.2 10.2856C26.7947 10.4588 27.3994 10.5963 28.0105 10.6972C28.9401 10.8601 29.8568 11.0893 30.7536 11.3829C31.4519 11.5925 32.0786 11.9912 32.5642 12.535C33.0863 13.1643 33.3506 13.9679 33.3045 14.7844C33.3228 15.3789 33.2008 15.9693 32.9482 16.5078C32.6956 17.0464 32.3198 17.518 31.8509 17.8841C30.7058 18.7106 29.3107 19.1175 27.9007 19.0361C26.3617 19.149 24.8262 18.7747 23.5118 17.9663V17.9663Z" fill="#010211"/>
<path d="M34.4846 3.07135C34.3184 2.91728 34.1858 2.73055 34.0951 2.52286C34.0045 2.31518 33.9575 2.091 33.9575 1.86438C33.9575 1.63776 34.0045 1.41358 34.0951 1.2059C34.1858 0.998207 34.3184 0.811479 34.4846 0.65741C34.8269 0.338123 35.2781 0.161544 35.7463 0.163672C36.2244 0.15151 36.6881 0.328997 37.0358 0.65741C37.202 0.811479 37.3346 0.998207 37.4252 1.2059C37.5159 1.41358 37.5625 1.63776 37.5625 1.86438C37.5625 2.091 37.5159 2.31518 37.4252 2.52286C37.3346 2.73055 37.202 2.91728 37.0358 3.07135C36.6881 3.39976 36.2244 3.57725 35.7463 3.56509C35.2781 3.56722 34.8269 3.39064 34.4846 3.07135ZM37.2277 18.9813H34.4846V5.45783H37.2277V18.9813Z" fill="#010211"/>
<path d="M38.8457 18.8993V5.3758H41.5888V7.26854C42.0839 6.60392 42.6978 6.03648 43.3993 5.59512C44.026 5.26853 44.7226 5.0991 45.4292 5.10138C46.2644 5.08516 47.0886 5.29367 47.8157 5.70495C48.1362 5.89099 48.4158 6.13992 48.6374 6.43694C48.859 6.73396 49.0178 7.07292 49.1049 7.43312C49.4884 6.68542 50.0825 6.06618 50.8136 5.65188C51.5447 5.23758 52.381 5.04621 53.2195 5.10138C53.8421 5.05542 54.4673 5.14712 55.0505 5.36994C55.6336 5.59276 56.1605 5.94132 56.5938 6.39073C57.3997 7.44025 57.7989 8.7456 57.7182 10.0664V18.8993H54.9751V10.5054C55.0448 9.67822 54.8215 8.8528 54.3443 8.17364C54.1346 7.90558 53.8625 7.693 53.5517 7.55434C53.2409 7.41567 52.9007 7.35519 52.5612 7.3782C52.2046 7.35976 51.8483 7.41889 51.5168 7.55149C51.1853 7.68409 50.8866 7.88693 50.6412 8.14618C50.2338 8.60701 49.9505 9.16407 49.8181 9.76469C49.6458 10.5943 49.5722 11.4414 49.5988 12.2883V18.8993H46.8557V10.5054C46.9105 9.67563 46.678 8.8522 46.1974 8.17364C45.9761 7.91188 45.6981 7.70426 45.3843 7.56639C45.0706 7.42852 44.7292 7.36411 44.3868 7.3782C44.0179 7.36563 43.6512 7.44089 43.317 7.5977C42.9939 7.73534 42.711 7.9523 42.4942 8.22856C42.1072 8.65711 41.8336 9.17577 41.6986 9.73723C41.5141 10.5746 41.4313 11.4311 41.4518 12.2883V18.8993H38.8457Z" fill="#010211"/>
<path d="M69.238 6.00658C70.1675 6.60621 70.9013 7.46418 71.3499 8.47527C71.838 9.63446 72.0896 10.8796 72.0896 12.1374C72.0896 13.3951 71.838 14.6403 71.3499 15.7995C70.8952 16.814 70.1632 17.6793 69.238 18.2956C68.3026 18.885 67.2162 19.19 66.1108 19.1734C65.3264 19.1923 64.5477 19.0329 63.8338 18.7071C63.0883 18.2929 62.4498 17.7106 61.9687 17.0064V23.9189H59.2256V5.37572H61.9687V7.26847C62.4601 6.58059 63.0968 6.00918 63.8338 5.59505C64.541 5.24707 65.3229 5.07757 66.1108 5.10131C67.2207 5.0797 68.3112 5.39539 69.238 6.00658V6.00658ZM63.6145 8.03645C63.0171 8.46285 62.5438 9.04027 62.2429 9.7097C61.8813 10.462 61.7029 11.2892 61.7219 12.1236C61.7057 12.9667 61.8839 13.8021 62.2429 14.565C62.529 15.2435 63.0053 15.8247 63.6145 16.2383C64.2036 16.6414 64.9031 16.8523 65.6169 16.8419C66.1456 16.8548 66.67 16.7421 67.1468 16.5132C67.6236 16.2843 68.0393 15.9457 68.36 15.5251C69.0208 14.5188 69.3729 13.3412 69.3729 12.1374C69.3729 10.9335 69.0208 9.75598 68.36 8.74968C68.0393 8.32906 67.6236 7.99041 67.1468 7.76153C66.67 7.53266 66.1456 7.42014 65.6169 7.43305C64.9048 7.43448 64.2088 7.64418 63.6145 8.03645V8.03645Z" fill="#010211"/>
<path d="M76.4811 18.899C75.6246 18.9661 74.7735 18.7118 74.0942 18.1857C73.8014 17.8495 73.58 17.4574 73.4433 17.033C73.3065 16.6086 73.2575 16.1608 73.299 15.7169V0.328125H76.0421V15.0036C76.0082 15.43 76.0936 15.8575 76.2889 16.2381C76.4327 16.3769 76.6064 16.4812 76.7965 16.5429C76.9866 16.6047 77.1882 16.6224 77.3862 16.5947H78.1543V18.844L76.4811 18.899Z" fill="#010211"/>
<path d="M78.9214 18.8992V5.37572H81.6645V7.10372C82.1375 6.4446 82.7699 5.91611 83.5025 5.56759C84.2278 5.24748 85.0139 5.08843 85.8066 5.10131H86.0537V7.84441H85.3405C84.8803 7.81483 84.4187 7.87991 83.9847 8.03561C83.5506 8.1913 83.1532 8.43434 82.8167 8.74968C82.3891 9.23802 82.0662 9.80886 81.8681 10.4269C81.6699 11.045 81.6006 11.6972 81.6645 12.3431V19.0088L78.9214 18.8992Z" fill="#010211"/>
</g>
<defs>
<clipPath id="clip0_379_3826">
<rect width="64.5177" height="23.8375" fill="white" transform="translate(21.4824 0.0812988)"/>
</clipPath>
</defs>
</svg>
