<svg width="24" height="25" viewBox="0 0 24 25" fill="none" xmlns="http://www.w3.org/2000/svg">
<path d="M12 8.53052H4C3.46957 8.53052 2.96086 8.74123 2.58579 9.1163C2.21071 9.49138 2 10.0001 2 10.5305V14.5305C2 15.0609 2.21071 15.5697 2.58579 15.9447C2.96086 16.3198 3.46957 16.5305 4 16.5305H5V20.5305C5 20.7957 5.10536 21.0501 5.29289 21.2376C5.48043 21.4252 5.73478 21.5305 6 21.5305H8C8.26522 21.5305 8.51957 21.4252 8.70711 21.2376C8.89464 21.0501 9 20.7957 9 20.5305V16.5305H12L17 20.5305V4.53052L12 8.53052ZM15 16.1305L13 14.5305H4V10.5305H13L15 8.93052V16.1305ZM21.5 12.5305C21.5 14.2405 20.54 15.7905 19 16.5305V8.53052C20.53 9.28052 21.5 10.8305 21.5 12.5305Z" fill="#F98E11"/>
</svg>
