<svg width="32" height="32" viewBox="0 0 32 32" fill="none" xmlns="http://www.w3.org/2000/svg">
<path d="M29.1753 7.1828C27.4783 6.471 25.7799 6.2002 24.0825 6.2002C18.6939 6.19976 13.3057 8.92753 7.9171 8.92753C6.56568 8.92753 5.21514 8.75603 3.86372 8.32729C3.71191 8.27916 3.55966 8.25641 3.41092 8.25641C2.65799 8.25641 2 8.83915 2 9.64808V23.528C2 24.0805 2.31631 24.6042 2.82424 24.8168C4.52127 25.5291 6.21962 25.7999 7.9171 25.7999C13.3057 25.7999 18.6943 23.0721 24.0829 23.0721C25.4343 23.0721 26.7849 23.2436 28.1363 23.6724C28.2881 23.7205 28.4403 23.7432 28.5891 23.7432C29.342 23.7432 30 23.1605 30 22.3516V8.4721C29.9996 7.91911 29.6833 7.39586 29.1753 7.1828ZM15.9998 20.2C14.0665 20.2 12.4998 18.3192 12.4998 16C12.4998 13.6805 14.0669 11.8001 15.9998 11.8001C17.9326 11.8001 19.4997 13.6805 19.4997 16C19.4997 18.3201 17.9322 20.2 15.9998 20.2Z" fill="#207E69"/>
</svg>
