<svg width="150" height="140" viewBox="0 0 150 140" fill="none" xmlns="http://www.w3.org/2000/svg">
<g clip-path="url(#clip0_418_342)">
<path d="M138.746 51.6533L137.929 52.9415L136.649 53.7959L135.88 54.7536L135.222 55.8297L134.166 56.4986L133.284 57.3461L132.398 58.1874L131.508 59.0262L130.789 60.0656L129.664 60.6293L128.86 61.5774L127.813 62.224L126.923 63.0715L125.946 63.8059L124.922 64.4743L123.932 65.2138L122.84 65.8018L121.853 66.5689L120.872 67.3508L119.906 68.1625L118.852 68.8372L117.623 69.206L116.549 69.8373L115.617 70.733L114.518 71.3289L113.207 71.4984L112.304 72.488L111.009 72.663L110.095 73.3227L108.986 73.5445L107.924 74.2641L106.663 74.5032L105.598 75.2387L104.388 75.5959L103.144 75.8511L101.992 76.3638L100.874 76.9977L99.6918 77.4448L98.4189 77.5782L97.2098 77.9243L96.2373 78.306L95.196 78.415L94.0032 78.5888L92.8977 79.1614L91.6815 79.2204L90.5226 79.5626L89.3724 79.9786L88.1449 79.9306L86.9473 80.0482L85.7876 80.4575L84.5622 80.3381L83.3601 80.3897L82.377 80.6941L81.3691 80.7326L80.0865 80.81L78.794 80.6704L77.5167 80.8281L76.233 80.8311L74.9498 80.8745L73.8619 81.2121L72.7837 80.8038L71.6968 80.883L70.6048 81.0082L69.5161 81.0098L68.5067 80.9776L67.5302 80.5538L66.3198 80.6094L65.1282 80.4583L63.9141 80.4882L62.7862 79.8688L61.5515 80.0179L60.3853 79.707L59.1834 79.6062L57.9833 79.4776L56.8936 78.8172L55.623 79.0017L54.6914 78.44L53.681 78.2198L52.5253 77.6949L51.1879 77.8273L50.0343 77.2988L48.8655 76.8328L47.7118 76.3291L46.5677 75.8075L45.3375 75.5296L44.1095 75.231L42.8936 74.8891L41.8564 74.1072L40.7722 73.8499L39.7758 73.3827L38.5948 72.9871L37.6677 72.0544L36.5019 71.6265L35.3302 71.2008L34.3283 70.4472L33.2772 69.7927L32.2771 69.0521L31.1347 68.5583L30.099 67.8808L28.8896 67.4791L28.0473 66.4979L27.0527 65.7885L25.9301 65.2643L24.9162 64.6103L23.909 63.9435L23.1548 62.9388L22.2666 62.1209L21.3159 61.3847L20.3843 60.6235L19.4549 59.8584L18.3602 59.2814L17.6687 58.2423L16.6331 57.5877L15.9171 56.5869L15.0778 55.7208L14.1118 54.9815L13.1964 53.8176L11.9785 52.9407L11.493 51.7416L10.6214 50.8977L9.93411 49.8917L8.96158 49.1269L8.20283 48.1794L7.6275 47.0874L6.56891 46.3711L6.13785 45.175L5.15252 44.3896L4.78795 43.1583L3.86109 42.321L3.14951 41.3316L2.62712 40.1723L2.55611 41.3671L2.54833 42.5491L2.87025 43.732L2.52148 44.9398L3.55624 45.8281L4.23068 46.8851L4.72673 48.0814L5.61219 48.9817L6.56464 49.8215L7.19267 50.9247L7.83099 52.0266L8.59902 53.0216L9.68119 53.7326L10.527 54.652L11.3613 55.5824L12.3519 56.5417L12.1785 57.8023L12.1434 59.0181L11.9682 60.2343L12.0726 61.45L12.1697 62.666L12.1421 63.8822L12.0809 65.0979L12.0992 66.3144L11.9938 67.5304L12.2578 68.7466L11.9933 69.9629L12.1062 71.1794L12.3075 72.3956L11.89 73.6121L12.3551 74.8288L12.0116 76.0456L12.123 77.261L12.3152 78.4775L12.3045 79.6933L12.3358 80.9097L11.8751 82.1267L12.2523 83.3437L12.029 84.5607L12.3637 85.7775L12.0636 86.9942L12.2826 88.212L12.2643 89.4308L12.0051 90.7488L13.1254 90.51L14.2046 90.7131L14.1311 89.4178L14.0952 88.1867L14.261 86.9554L13.9497 85.7236L14.3476 84.4924L14.116 83.2606L13.9748 82.029L14.0121 80.7972L13.9532 79.5654L14.1908 78.3334L13.9514 77.1016L14.2462 75.8695L14.2056 74.6372L14.0493 73.4051L14.2309 72.1744L14.1138 70.9423L14.2018 69.711L14.0924 68.4792L14.0302 67.2466L14.0897 66.0141L14.2598 64.7815L14.3092 63.5495L14.0021 62.3171L14.2879 61.0838L14.3516 59.8497L14.249 58.6521L14.8903 59.5343L15.832 60.2575L16.8148 60.9294L17.5073 61.9354L18.6211 62.4455L19.3513 63.4168L20.3431 64.067L21.1207 64.9923L22.1364 65.6078L23.0374 66.3762L23.9617 67.115L25.0012 67.6876L26.1276 68.3251L26.1645 69.599L25.7858 70.8369L25.7976 72.0746L25.9085 73.3125L25.8571 74.5507L25.9693 75.7886L26.1808 77.0255L26.1742 78.2634L26.1813 79.5006L26.0686 80.7385L25.7284 81.977L26.162 83.2154L25.7773 84.4538L25.907 85.6917L26.0955 86.9299L25.8917 88.1691L25.8747 89.4093L26.0039 90.621L26.9736 90.7884L27.9848 90.6557L27.9356 89.417L28.0648 88.1849L27.7678 86.9526L28.0139 85.7201L28.1456 84.4878L28.1193 83.2567L28.166 82.0244L28.0694 80.7929L28.0162 79.5608L27.8842 78.3282L28.1888 77.0957L28.1715 75.8631L28.1201 74.6308L28.0561 73.3982L27.833 72.1647L28.097 70.9303L28.2018 69.7748L29.1177 70.1798L30.0031 71.0878L31.1538 71.5466L32.2362 72.119L33.2123 72.8891L34.3228 73.41L35.3207 74.1539L36.5408 74.4473L37.6862 74.884L38.6708 75.6745L39.8293 76.1015L39.7206 77.3146L40.0077 78.5263L40.0626 79.7371L39.6002 80.9488L39.8561 82.1609L39.907 83.3731L39.8702 84.5852L39.5854 85.7971L39.8915 87.009L39.5703 88.2219L40.0157 89.4359L39.9826 90.5105L40.8236 90.8637L41.7372 90.5743L41.7427 89.406L41.7382 88.1633L41.6634 86.9197L41.9121 85.6757L41.8709 84.4316L41.5879 83.1876L42.0024 81.944L42.0581 80.7002L41.8368 79.4554L42.0149 78.2096L41.8059 76.9561L43.0033 77.3886L44.0879 78.0572L45.3317 78.2958L46.5704 78.5316L47.7264 79.0068L48.8131 79.7165L50.0674 79.8854L51.2221 80.394L52.4831 80.5132L53.7869 80.8722L53.9091 82.1262L53.56 83.3432L53.6601 84.5602L53.5771 85.777L53.4263 86.994L53.7916 88.212L53.7038 89.4308L53.5227 90.7751L54.6736 90.7021L55.6371 90.6138L55.4569 89.493L55.7585 88.3363L55.9015 87.1795L55.5545 86.023L55.5578 84.8662L55.7573 83.7084L55.9118 82.5498L55.5869 81.3573L56.867 81.5607L58.0556 81.7258L59.1824 82.2268L60.3926 82.2694L61.551 82.6259L62.7268 82.891L63.9304 82.9513L65.1536 82.8094L66.3125 83.2608L67.3009 83.305L67.3807 84.4691L67.2971 85.704L67.5091 86.9391L67.7154 88.1752L67.3912 89.4124L67.6948 90.5026L68.5235 90.572L69.4333 90.5689L69.6878 89.4382L69.6323 88.2273L69.6479 87.0164L69.4765 85.8045L69.3302 84.5916L69.4216 83.3458L70.6016 83.6155L71.6998 83.3302L72.7762 83.6216L73.8659 83.3392L74.9486 83.3024L76.2373 83.7788L77.5121 83.2733L78.8121 83.6699L80.0762 83.2098L81.3041 83.3366L81.4838 84.5347L81.2492 85.7566L81.2191 86.9784L81.5154 88.2015L81.3887 89.4254L81.5209 90.5202L82.3725 90.5449L83.3347 90.6146L83.1852 89.3984L83.2893 88.1482L83.3092 86.8978L83.1448 85.6463L83.1659 84.3938L83.5026 83.182L84.578 83.0812L85.7811 83.0161L86.931 82.5361L88.1811 82.7918L89.3556 82.5057L90.5338 82.2556L91.6875 81.8813L92.8693 81.6646L94.0466 81.4229L95.1978 81.1644L94.9785 82.3429L95.0241 83.529L95.0971 84.7151L95.0148 85.901L95.1388 87.0871L95.0736 88.2743L95.4356 89.4622L95.3087 90.5715L96.2225 90.6179L97.1614 90.596L97.0502 89.4002L97.1192 88.1505L97.2489 86.9008L97.0525 85.6517L96.979 84.4023L97.4597 83.1518L97.2861 81.9004L97.0517 80.5954L98.4729 80.456L99.6175 79.8926L100.899 79.8015L102.08 79.3656L103.281 78.9948L104.358 78.267L105.5 77.7428L106.737 77.4721L107.946 77.1156L108.976 76.5799L109.178 77.7173L109.128 78.8925L109.035 80.0669L108.977 81.242L108.988 82.4177L108.886 83.5933L109.095 84.769L108.973 85.9441L109.201 87.1195L108.969 88.296L109.061 89.4731L108.984 90.7248L110.072 90.6907L110.912 90.5138L111.056 89.4022L111.044 88.1528L111.182 86.9041L110.844 85.655L111.251 84.4053L111.232 83.1557L111.269 81.906L111.167 80.6566L111.277 79.4069L110.919 78.1563L110.896 76.9048L111.187 75.6835L112.163 75.0667L113.194 74.3657L114.333 73.8951L115.506 73.4825L116.633 72.9751L117.566 72.1055L118.728 71.6581L119.695 70.8678L120.816 70.3401L121.998 69.9037L123.113 68.9756L122.974 70.2459L122.98 71.4458L122.971 72.6454L123.1 73.8453L122.684 75.0455L122.875 76.2454L123.153 77.4443L122.904 78.6442L122.682 79.8433L122.843 81.0432L122.762 82.2436L122.82 83.444L123.111 84.6444L122.927 85.8446L122.963 87.0448L122.673 88.2459L122.988 89.4481L123.084 90.5072L123.922 90.6758L124.97 90.6881L125 89.441L124.696 88.2319L125.059 87.0223L124.974 85.8132L125.085 84.6036L124.879 83.3938L124.933 82.1842L125.046 80.9758L124.846 79.7662L125.175 78.5574L125.129 77.3481L124.712 76.1382L125.134 74.9284L125.169 73.7185L125.145 72.5089L125.027 71.2991L124.941 70.0882L124.73 68.8765L124.956 67.6718L125.924 67.0073L126.745 66.1021L127.918 65.6821L128.727 64.768L129.592 63.9353L130.557 63.23L131.454 62.4389L132.452 61.7677L133.306 60.9261L134.252 60.1878L135.182 59.4281L135.842 58.3809L136.934 57.5671L136.874 58.8407L136.717 60.0638L136.744 61.2862L136.61 62.5088L136.554 63.7319L136.76 64.9545L136.851 66.1777L136.654 67.4005L136.883 68.6236L136.966 69.8468L136.702 71.0701L136.574 72.2933L136.531 73.5166L136.545 74.7403L136.984 75.9637L136.903 77.186L136.568 78.4094L136.704 79.632L137.014 80.8554L136.75 82.0793L136.67 83.3032L136.805 84.5271L136.975 85.7504L136.566 86.9741L136.891 88.1987L136.827 89.4241L136.76 90.6565L137.772 90.5835L138.663 90.5523L138.538 89.4389L138.542 88.2288L138.805 87.0182L139.018 85.8073L138.755 84.597L138.898 83.3864L138.955 82.1752L138.832 80.9646L138.529 79.7535L138.95 78.5426L138.583 77.3315L138.91 76.1206L138.62 74.9092L138.752 73.6981L138.668 72.4867L138.629 71.2751L138.604 70.0637L138.728 68.8536L138.529 67.6422L138.625 66.4316L138.731 65.2204L138.745 64.0088L138.828 62.7972L138.525 61.5855L139 60.3741L138.788 59.1625L138.748 57.9498L138.526 56.7364L138.81 55.5296L139.695 54.677L140.311 53.5519L141.313 52.7777L142.105 51.8141L142.798 50.7678L143.659 49.8621L144.442 48.8911L145.23 47.9219L145.697 46.7133L146.467 45.7339L147.395 44.8104L147.08 43.6123L147.124 42.4284L147.311 41.2436L147.182 40.0889L146.694 41.1017L146.205 42.2238L145.357 43.1039L144.735 44.1382L143.887 45.0087L143.325 46.0891L142.65 47.0887L141.97 48.0857L141.107 48.9345L140.428 49.9346L139.556 50.7701L138.746 51.6533Z" fill="#BB2027"/>
<path d="M21.0699 101.624L20.2048 100.79L19.5652 99.6716L18.5239 98.9352L17.7654 97.9302L16.7686 97.1519L16.0058 96.1503L15.0468 95.3324L14.2986 94.5467L13.5587 95.3066L12.5412 96.0441L11.9978 97.2183L11.1775 98.1369L10.3673 99.0651L9.50447 99.9452L8.37638 100.583L7.75764 101.544L6.25293 100.524L7.27187 99.6428L8.16009 98.8599L8.95899 97.994L9.59329 96.9766L10.417 96.1352L11.1891 95.2446L11.8728 94.2726L12.6426 93.3794L13.4781 92.544L14.278 91.4668L15.23 92.4174L15.7165 93.6012L16.5585 94.4477L17.5022 95.1974L18.2206 96.16L19.2433 96.8345L19.9215 97.8371L20.6976 98.7468L21.7278 99.4175L22.2331 100.435L21.0699 101.624Z" fill="#BB2027"/>
<path d="M45.2926 101.689L44.5361 100.678L43.7232 99.7248L42.5836 99.0818L41.7734 98.1261L40.9564 97.1765L40.3618 96.0152L39.4909 95.1138L38.5133 94.2329L37.6444 95.1881L36.8069 96.0915L36.1136 97.1278L35.3978 98.1424L34.5248 99.0126L33.7588 99.9821L32.8209 100.796L31.9779 101.497L30.5088 100.514L31.5606 99.7116L32.3399 98.8284L32.9652 97.8025L33.7074 96.8843L34.3969 95.9195L35.3353 95.1822L36.2514 94.424L37.044 93.5518L37.6753 92.5285L38.4925 91.6108L39.3953 92.4634L40.0449 93.4924L40.8794 94.346L41.8015 95.1164L42.6709 95.9348L43.3594 96.9275L44.2559 97.7224L44.9873 98.6745L45.8765 99.4796L46.7898 100.516L45.2926 101.689Z" fill="#BB2027"/>
<path d="M69.5272 101.837L68.4802 100.936L67.6446 100.004L67.0776 98.8162L66.101 98.0185L65.3262 97.0291L64.5868 96.0053L63.5528 95.2592L62.728 94.1662L61.8511 95.1813L61.2075 96.2631L60.4209 97.2131L59.3902 97.9379L58.4799 98.7736L57.7603 99.7857L57.1165 100.871L56.156 101.784L55.0352 100.433L55.7287 99.6688L56.4603 98.7415L57.2058 97.8266L57.9618 96.9209L58.8216 96.1133L59.5618 95.1933L60.44 94.4002L61.1175 93.4218L62.0576 92.683L62.7065 91.439L63.5011 92.5672L64.4079 93.3514L65.0653 94.3734L66.0493 95.0849L66.6796 96.1309L67.5285 96.9707L68.2666 97.9164L69.2208 98.6567L69.881 99.6795L70.6631 100.44L69.5272 101.837Z" fill="#BB2027"/>
<path d="M93.7244 101.714L92.9802 100.663L91.973 99.8945L91.1129 98.9857L90.291 98.0413L89.5415 97.0274L88.8073 95.9987L87.6213 95.397L86.9418 94.08L86.1901 95.2965L85.4742 96.3113L84.5544 97.1389L83.5887 97.9234L82.6896 98.7698L81.8466 99.6681L81.078 100.638L80.3768 101.729L78.8818 100.528L79.6935 99.4392L80.7228 98.7862L81.2682 97.6868L82.2603 96.9991L83.0168 96.096L83.621 95.0504L84.5632 94.3165L85.1957 93.2968L85.9746 92.4092L86.9215 91.906L87.9025 92.3883L88.4214 93.5415L89.1862 94.4615L90.3346 95.0168L90.8716 96.1513L91.9362 96.7862L92.6924 97.7146L93.2143 98.8663L94.0671 99.7056L94.9667 100.457L93.7244 101.714Z" fill="#BB2027"/>
<path d="M117.925 101.616L117.218 100.641L116.149 99.9313L115.41 98.9075L114.366 98.174L113.804 96.9813L112.915 96.0999L112.16 95.0885L111.156 94.2265L110.402 95.2947L109.473 96.1126L108.766 97.1364L107.909 98.0214L106.969 98.8299L106.155 99.7547L105.366 100.706L104.604 101.629L103.35 100.462L104.173 99.6837L104.995 98.8401L105.739 97.9229L106.595 97.1102L107.327 96.1841L108.054 95.2521L108.607 94.1599L109.72 93.5827L110.216 92.4346L111.135 91.707L111.836 92.6556L112.862 93.3265L113.488 94.3778L114.448 95.1128L115.231 96.0136L115.987 96.9412L116.937 97.6859L117.559 98.7416L118.427 99.5676L119.26 100.476L117.925 101.616Z" fill="#BB2027"/>
<path d="M142.133 101.569L141.403 100.669L140.564 99.7401L139.503 99.022L138.838 97.9285L138.07 96.9322L137.085 96.1417L136.155 95.297L135.369 94.5258L134.383 95.0798L133.83 96.2445L133.02 97.1731L132.01 97.917L131.412 99.0406L130.504 99.8792L129.741 100.854L128.818 101.625L127.476 100.485L128.142 99.4579L129.145 98.7808L129.91 97.8833L130.704 97.0126L131.507 96.1529L132.045 95.0472L132.936 94.2658L133.615 93.2886L134.448 92.4511L135.349 91.4431L136.115 92.5933L137.069 93.3331L137.711 94.3699L138.506 95.261L139.488 95.9727L140.159 96.9818L141.005 97.8249L141.874 98.6461L142.645 99.5632L143.366 100.449L142.133 101.569Z" fill="#BB2027"/>
<path d="M147.239 89.5509L147.058 90.599L147.423 91.7177L147.336 92.8375L147.172 93.8129L146.098 93.9047L144.894 94.0114L143.689 94.1808L142.484 93.8741L141.279 93.7286L140.074 94.0818L138.869 94.0782L137.665 93.8754L136.461 93.7182L135.257 94.0548L134.052 94.0486L132.849 94.127L131.645 93.847L130.441 94.016L129.237 93.8501L128.032 93.7603L126.828 93.8606L125.623 94.1471L124.418 93.82L123.213 93.7233L122.008 93.8157L120.803 93.7307L119.599 93.9463L118.394 94.1561L117.19 93.8264L115.986 94.1877L114.782 94.0344L113.577 94.0818L112.373 93.7937L111.168 93.8498L109.963 93.834L108.758 94.0083L107.553 94.1571L106.348 94.0691L105.143 93.781L103.939 94.1137L102.734 93.8557L101.53 94.1586L100.325 94.202L99.1203 93.7161L97.915 94.1936L96.7096 93.7496L95.5045 94.1443L94.2996 93.8866L93.095 94.0737L91.8904 93.835L90.6855 93.8047L89.4806 94.1061L88.2755 93.9772L87.0701 94.1584L85.8648 94.0611L84.6599 94.0114L83.455 94.1512L82.2502 94.0456L81.0453 94.0254L79.8402 94.1923L78.6348 94.1709L77.4294 93.8223L76.2243 93.8935L75.0194 93.818L73.8143 94.1441L72.6092 93.7105L71.4036 93.8072L70.1982 93.8509L68.9931 94.0042L67.788 93.9803L66.5829 93.9647L65.3775 93.9341L64.1719 93.7126L62.9667 93.759L61.7616 93.8333L60.5563 93.7496L59.3504 93.8756L58.145 93.8093L56.9399 94.1775L55.7345 94.0775L54.5287 93.9889L53.3233 94.042L52.1179 94.1359L50.9128 94.0657L49.7074 93.9338L48.5028 94.1334L47.2984 94.2081L46.0943 93.7195L44.8894 93.896L43.6838 94.1423L42.4785 93.8123L41.2738 94.0344L40.0692 93.7455L38.8639 93.7978L37.658 93.7636L36.4526 94.0897L35.2477 94.1836L34.0424 93.9884L32.8365 93.8654L31.6311 93.8557L30.4255 94.0678L29.2196 94.0173L28.0143 93.9226L26.8081 93.8634L25.6025 93.8741L24.3964 93.7705L23.1905 93.9831L21.9844 93.8595L20.7785 94.091L19.5722 93.8557L18.3658 93.9484L17.1594 93.8435L15.9545 93.9167L14.7482 94.1729L13.5428 93.9772L12.3367 93.9897L11.13 93.8488L9.92342 94.1923L8.71679 93.7787L7.51042 93.7983L6.30404 93.7608L5.09667 93.8639L3.88828 93.7524L2.57452 94.0749L2.5 92.839L2.79482 91.7203L2.6104 90.6008L2.5128 89.2952L3.88402 89.3215L5.08813 89.4978L6.29275 89.5872L7.49737 89.2804L8.70249 89.4744L9.90736 89.2899L11.1122 89.4282L12.3166 89.6949L13.521 89.2718L14.7251 89.4254L15.9289 89.4185L17.1331 89.4279L18.3369 89.2968L19.541 89.7204L20.7449 89.5259L21.9493 89.2429L23.1536 89.4961L24.3583 89.7219L25.5634 89.5576L26.7687 89.64L27.9736 89.581L29.1782 89.2855L30.3829 89.4731L31.5872 89.4361L32.7913 89.7311L33.9957 89.4111L35.1998 89.26L36.4042 89.5065L37.6088 89.5397L38.8137 89.5563L40.0185 89.2467L41.2242 89.6163L42.429 89.5295L43.6339 89.642L44.8385 89.4325L46.0429 89.4874L47.2475 89.6032L48.4519 89.3988L49.6565 89.7339L50.8614 89.6869L52.0665 89.2628L53.2721 89.6918L54.4772 89.7285L55.6821 89.704L56.8867 89.5841L58.0913 89.4958L59.2962 89.282L60.5008 89.5119L61.7059 89.5277L62.9115 89.2848L64.1167 89.6617L65.3218 89.4374L66.5267 89.3289L67.7315 89.3999L68.9364 89.3766L70.1415 89.528L71.3469 89.4713L72.5523 89.5701L73.7574 89.6581L74.9622 89.3646L76.1674 89.3057L77.3725 89.3748L78.5779 89.5343L79.7835 89.5068L80.9886 89.6425L82.1937 89.7002L83.3988 89.4899L84.6042 89.3976L85.8098 89.5984L87.0149 89.3646L88.2201 89.2802L89.4254 89.5497L90.6311 89.679L91.8367 89.7227L93.0418 89.7089L94.2472 89.2626L95.4528 89.3447L96.6584 89.6854L97.8635 89.5468L99.0689 89.2319L100.274 89.4996L101.479 89.5816L102.683 89.4443L103.887 89.2712L105.092 89.6872L106.298 89.3565L107.503 89.4215L108.708 89.4917L109.912 89.4149L111.118 89.3304L112.324 89.2393L113.529 89.2429L114.734 89.5106L115.939 89.727L117.145 89.4596L118.351 89.605L119.556 89.6635L120.762 89.5382L121.967 89.2304L123.174 89.6579L124.379 89.285L125.585 89.6173L126.791 89.3225L127.997 89.4565L129.203 89.3713L130.41 89.3317L131.616 89.3057L132.822 89.4318L134.027 89.2291L135.234 89.3279L136.439 89.4356L137.645 89.4499L138.852 89.5341L140.058 89.2261L141.265 89.7086L142.471 89.4933L143.678 89.4522L144.885 89.2268L146.092 89.5165L147.239 89.5509Z" fill="#E12729"/>
<path d="M147.332 98.7593L147.5 100.236L147.465 101.828L146.097 101.586L144.893 101.592L143.689 101.916L142.484 101.916L141.279 101.456L140.074 101.933L138.869 101.522L137.665 101.73L136.46 101.472L135.256 101.706L134.052 101.438L132.848 101.724L131.644 101.623L130.44 101.433L129.236 101.536L128.032 101.784L126.828 101.853L125.623 101.614L124.418 101.617L123.213 101.733L122.008 101.581L120.803 101.47L119.599 101.785L118.394 101.591L117.19 101.704L115.986 101.909L114.781 101.66L113.577 101.597L112.373 101.847L111.168 101.58L109.963 101.504L108.757 101.712L107.552 101.669L106.348 101.658L105.143 101.449L103.938 101.558L102.734 101.532L101.529 101.566L100.325 101.911L99.1201 101.523L97.9147 101.637L96.7093 101.811L95.5042 101.875L94.2994 101.914L93.0947 101.574L91.8901 101.744L90.6853 101.724L89.4804 101.903L88.2753 101.444L87.0699 101.779L85.8645 101.666L84.6597 101.784L83.4548 101.891L82.2499 101.472L81.045 101.935L79.8399 101.608L78.6346 101.645L77.4292 101.44L76.2241 101.937L75.0192 101.765L73.8141 101.677L72.609 101.567L71.4033 101.456L70.198 101.623L68.9928 101.789L67.7877 101.928L66.5826 101.611L65.3772 101.81L64.1716 101.796L62.9665 101.941L61.7614 101.509L60.556 101.656L59.3501 101.825L58.1448 101.642L56.9396 101.588L55.7343 101.452L54.5284 101.62L53.323 101.592L52.1177 101.91L50.9125 101.557L49.7072 101.535L48.5026 101.757L47.2982 101.825L46.0941 101.896L44.8892 101.559L43.6836 101.47L42.4782 101.502L41.2736 101.519L40.069 101.548L38.8636 101.848L37.6577 101.546L36.4524 101.781L35.2475 101.558L34.0421 101.536L32.8362 101.712L31.6309 101.574L30.4253 101.885L29.2194 101.448L28.014 101.557L26.8079 101.436L25.6023 101.709L24.3961 101.715L23.1903 101.502L21.9842 101.925L20.7783 101.567L19.5719 101.923L18.3655 101.523L17.1592 101.835L15.9543 101.898L14.7479 101.632L13.5425 101.561L12.3364 101.553L11.1298 101.881L9.92317 101.524L8.71655 101.894L7.51017 101.832L6.3038 101.523L5.09642 101.692L3.88804 101.933L2.64453 101.717L2.83823 100.236L2.843 98.9254L3.88377 98.6488L5.08789 98.6307L6.29251 98.6465L7.49713 98.547L8.70225 98.7276L9.90711 98.7634L11.112 98.9415L12.3163 98.8353L13.5207 98.7366L14.7248 98.7646L15.9287 98.8269L17.1328 98.8083L18.3367 98.9155L19.5408 98.647L20.7447 98.916L21.949 98.8011L23.1534 98.5965L24.358 99.0211L25.5631 98.548L26.7685 98.8973L27.9734 98.784L29.178 98.5886L30.3826 98.5995L31.587 98.5679L32.7911 99.0362L33.9955 98.6526L35.1996 98.8797L36.4039 98.5393L37.6086 98.8445L38.8134 98.6217L40.0183 98.6404L41.2239 98.9402L42.4288 98.646L43.6336 98.8851L44.8383 98.7874L46.0426 98.7509L47.2473 98.9195L48.4516 98.6028L49.6562 99.0076L50.8611 98.772L52.0662 98.6281L53.2718 98.6661L54.477 98.6062L55.6818 98.8478L56.8865 98.6044L58.0911 98.9042L59.2959 98.8629L60.5006 98.7039L61.7057 98.8887L62.9113 98.7697L64.1164 98.8593L65.3215 98.748L66.5264 98.6848L67.7313 98.7452L68.9361 98.9183L70.1413 98.9685L71.3466 98.6562L72.552 98.9468L73.7571 99.0117L74.962 98.9126L76.1671 98.9175L77.3722 98.7976L78.5776 98.6271L79.7832 98.9183L80.9883 98.5699L82.1935 98.8417L83.3986 98.7123L84.604 98.9499L85.8096 98.8103L87.0147 98.879L88.2198 98.9254L89.4252 98.7851L90.6308 98.6205L91.8364 98.5868L93.0415 98.9719L94.2469 98.9601L95.4525 98.8473L96.6582 98.8996L97.8633 98.7856L99.0686 98.5704L100.274 98.5771L101.479 98.5699L102.683 98.6845L103.887 99.0305L105.092 98.5898L106.298 98.981L107.503 98.8491L108.708 98.6575L109.912 98.8647L111.117 98.882L112.323 98.7407L113.529 98.9244L114.734 98.7953L115.939 98.7429L117.145 98.8744L118.35 98.5725L119.556 98.8226L120.762 98.9565L121.967 98.93L123.173 98.9775L124.379 98.8792L125.585 98.8251L126.791 98.6909L127.997 99.0007L129.203 98.9831L130.409 98.9308L131.616 98.8657L132.822 98.6388L134.027 98.9073L135.233 99.0272L136.439 98.5801L137.645 98.8899L138.851 98.6929L140.058 98.6467L141.265 98.8432L142.471 98.7728L143.677 98.9706L144.885 98.6817L146.091 98.5717L147.332 98.7593Z" fill="#E12729"/>
</g>
<defs>
<clipPath id="clip0_418_342">
<rect width="145" height="62" fill="white" transform="translate(2.5 40)"/>
</clipPath>
</defs>
</svg>
