<svg width="151" height="140" viewBox="0 0 151 140" fill="none" xmlns="http://www.w3.org/2000/svg">
<g clip-path="url(#clip0_418_326)">
<path d="M77.2121 16.9269C77.3336 17.4302 77.0221 17.4188 76.912 17.8765C76.7809 18.3646 76.9956 18.4235 76.8531 18.885C76.6632 19.3712 76.2985 19.2307 76.1276 19.658C75.9092 20.1024 76.0383 20.167 75.8256 20.5867C75.5635 21.0122 75.9756 21.2648 75.7154 21.6864C75.3964 22.1099 75.1989 21.9181 74.8931 22.3284C74.5474 22.7082 74.7031 22.845 74.3708 23.2096C73.9909 23.5667 73.5655 23.109 73.2312 23.4185C72.84 23.7167 72.9178 23.8231 72.5456 24.1061L71.7213 24.6113C71.2788 24.8411 71.3946 25.0747 70.9616 25.2893C70.4868 25.4792 70.4811 25.4678 70.0329 25.6388C69.5448 25.7945 69.5201 25.7071 69.0605 25.8287C68.5667 25.9464 68.5951 26.1174 68.1108 26.2085C67.5923 26.2902 67.5505 25.7717 67.0928 25.8078C66.5971 25.8439 66.5933 26.011 66.1185 25.9977C65.6133 25.9806 65.5848 26.2351 65.1024 26.163C64.5839 26.0908 64.6808 25.6179 64.2363 25.4982C63.7577 25.3786 63.6666 25.6483 63.2278 25.4773C62.7511 25.3007 62.6391 25.5685 62.2003 25.3482C61.7274 25.1165 61.942 24.7138 61.5489 24.465C61.2667 24.3093 60.9969 24.1321 60.7417 23.9351C60.3486 23.6294 60.1548 23.8687 59.8054 23.5382C59.4559 23.2077 59.3591 23.2609 59.0457 22.8943C58.8114 22.6563 58.5937 22.4025 58.3942 22.1346C58.1871 21.8755 57.9968 21.6033 57.8245 21.3199C57.5662 20.8697 57.7694 20.7501 57.57 20.3284C57.3629 19.8707 57.3307 19.884 57.1673 19.4453C57.0059 18.9705 56.6545 19.0901 56.5216 18.621C56.3981 18.112 56.9109 17.9905 56.8216 17.5422C56.7533 17.056 56.4703 17.0959 56.4114 16.6249C56.3886 16.1197 56.1151 16.1311 56.0885 15.6449C56.1132 15.1207 56.5937 15.1435 56.6146 14.682C56.6697 14.1882 56.6849 14.19 56.7495 13.7323C56.8141 13.2746 56.4665 13.1626 56.5785 12.6858C56.6693 12.3638 56.7771 12.0468 56.9014 11.7362C57.0392 11.4336 57.1959 11.1399 57.3705 10.8569C57.4796 10.5385 57.6065 10.2266 57.7504 9.92242C57.8879 9.61105 58.0446 9.30849 58.2195 9.01648C58.531 8.58344 59.0286 9.01648 59.3287 8.66131C59.6287 8.30615 59.2983 7.9206 59.6553 7.58254C60.0124 7.24447 60.3163 7.56544 60.6847 7.27866C61.0817 6.97098 60.8747 6.65 61.2868 6.3898C61.735 6.10871 62.0009 6.61202 62.4131 6.4088C62.8252 6.20558 62.6771 5.75925 63.1367 5.59022C63.444 5.46396 63.7617 5.36482 64.0863 5.29393C64.5896 5.16099 64.6295 5.35661 65.1005 5.29393C65.6038 5.21986 65.5715 4.92928 66.0634 4.91408C66.5895 4.89889 66.5952 5.26924 67.0624 5.30343C67.5638 5.34141 67.5942 4.96536 68.0766 5.03563C68.5913 5.123 68.5382 5.43448 68.994 5.53704C69.4802 5.66809 69.484 5.65289 69.9322 5.78964C70.4013 5.96627 70.502 5.70037 70.9521 5.8789C71.4174 6.10492 71.3605 6.22267 71.7859 6.43539C72.2208 6.70128 72.1866 6.75826 72.5893 7.00516C72.9938 7.30904 73.0755 7.19509 73.461 7.48567C73.8409 7.83134 73.9776 7.6756 74.3423 8.00987C74.6974 8.38972 74.5436 8.53596 74.8665 8.88922L75.4647 9.68121C75.7401 10.1123 75.9643 9.9756 76.2244 10.3953C76.4695 10.8645 75.9662 11.1133 76.1732 11.5349C76.3631 11.9945 76.4752 11.9527 76.6442 12.3953C76.7999 12.8739 77.0411 12.8093 77.1703 13.2784C77.2899 13.7836 77.326 13.7798 77.4096 14.2603C77.4932 14.794 76.5055 15.0428 77.2197 15.3467C77.5793 15.5344 77.9802 15.6292 78.3859 15.6226C78.7915 15.616 79.1891 15.5081 79.5425 15.3087C80.1901 14.8605 79.193 14.568 79.1037 14.0286C79.0031 13.4322 79.5064 13.343 79.3696 12.7675C79.2044 12.154 78.6346 12.3117 78.4637 11.7837C78.2529 11.2234 78.589 11.0943 78.3649 10.5625C78.0933 10.006 77.9851 10.0611 77.7192 9.55776C77.4001 9.03737 77.3393 9.06776 77.043 8.59294C76.6803 8.10673 76.6632 8.1751 76.2833 7.70029C75.8788 7.25397 75.9813 7.159 75.592 6.75066C75.1438 6.34232 75.4192 6.03654 74.9804 5.6415C74.4752 5.26165 74.2701 5.53514 73.8143 5.19517C73.2939 4.8742 73.3984 4.69947 72.8989 4.39748C72.3443 4.11829 72.3993 4.00054 71.8695 3.74604C71.2845 3.51243 71.2997 3.45735 70.7489 3.25413C70.1392 3.06421 70.0272 3.48204 69.4764 3.3358C68.8762 3.20665 68.861 3.29781 68.2989 3.20475C67.6968 3.12308 67.7025 3.01483 67.1289 2.98254C66.7319 2.9622 66.334 2.96981 65.9381 3.00533C65.3227 3.02622 65.3531 3.25793 64.7833 3.3434C64.3953 3.41172 64.0139 3.51404 63.6438 3.64918C63.074 3.78592 62.9923 3.53332 62.451 3.72325C61.8699 3.93407 61.9458 4.11639 61.4387 4.3671C61.0798 4.52334 60.7337 4.7075 60.4036 4.91788C60.0509 5.09067 59.7107 5.28804 59.3856 5.50855C58.9032 5.87511 58.588 5.48576 58.1511 5.8884C57.6858 6.32143 57.9517 6.59302 57.5814 7.02795C57.1749 7.48757 57.306 7.59773 56.9755 8.05545C56.645 8.51317 56.0904 8.16751 55.7866 8.68031C55.4675 9.23109 55.9062 9.47989 55.6688 9.99079C55.4676 10.3285 55.2856 10.6772 55.1237 11.0354C54.9243 11.6052 54.5672 11.4893 54.4134 12.0572C54.2653 12.6668 54.4381 12.7086 54.3336 13.2746C54.2463 13.8843 54.2956 13.8919 54.2349 14.4597C54.2045 15.0713 53.9956 15.0618 53.9728 15.6449C54.0032 16.2659 53.9348 16.2697 53.9728 16.8528C54.0506 17.4739 53.9937 17.4834 54.081 18.0645C54.2064 18.6875 54.8255 18.5374 54.9585 19.0768C55.1237 19.6466 54.8293 19.7549 55.0193 20.3C55.2415 20.8697 55.4599 20.7786 55.6973 21.2914C55.9632 21.8384 56.1151 21.751 56.3962 22.241C56.6773 22.731 56.2367 23.0843 56.5861 23.5705C56.8296 23.8952 57.0942 24.2036 57.3781 24.4935C57.7979 24.9664 58.0676 24.6834 58.4797 25.0823C58.7843 25.3333 59.1068 25.5618 59.4445 25.766C59.9269 26.1459 59.7598 26.3928 60.2574 26.7061C60.7911 27.0385 60.869 26.8961 61.3856 27.1468C61.7257 27.3664 62.0804 27.5624 62.4472 27.7336C62.8159 27.9017 63.1969 28.0413 63.5868 28.1515C64.2003 28.3148 64.3237 27.7071 64.8745 27.7887C65.4652 27.878 65.4272 28.2294 66.014 28.254C66.6294 28.2768 66.6256 28.5123 67.2106 28.4763C67.8373 28.4307 67.8145 28.1325 68.3748 28.0432C68.9731 27.9426 69.051 28.3775 69.6264 28.2426C70.2399 28.0793 70.0993 27.5741 70.6311 27.4013C71.2009 27.1905 71.2522 27.3329 71.7707 27.1145C72.3158 26.8486 72.4734 27.1658 72.9938 26.8923L74.027 26.2579C74.5303 25.8781 74.3271 25.6122 74.7753 25.2665C75.2254 24.8601 75.5502 25.2133 75.9851 24.8088C76.4163 24.3397 75.9092 23.8801 76.2814 23.4793C76.6404 23.0026 77.1323 23.3711 77.4856 22.8943C77.8198 22.3588 77.5843 22.2144 77.8806 21.7244C78.1598 21.1717 77.9699 21.0787 78.2149 20.5697C78.4409 20.0094 78.6213 20.0758 78.8226 19.5346C79.0012 18.9458 79.1816 18.9933 79.3335 18.4273C79.4665 17.81 78.9024 17.7132 78.9936 17.1662C79.0847 16.6192 80.2832 16.3514 79.6317 15.9013C79.2778 15.7233 78.8844 15.6384 78.4886 15.6547C78.0929 15.671 77.7078 15.7879 77.3697 15.9943C76.572 16.2811 77.1494 16.3932 77.2121 16.9269V16.9269Z" fill="#2B292D"/>
<path d="M94.2814 16.9268C94.403 17.4301 94.0915 17.4187 93.9813 17.8764C93.8503 18.3645 94.0649 18.4234 93.9224 18.8849C93.7325 19.3711 93.3679 19.2306 93.1969 19.6579C92.9785 20.1023 93.1077 20.1669 92.8949 20.5866C92.6328 21.0121 93.045 21.2647 92.7848 21.6863C92.4657 22.1098 92.2682 21.918 91.9624 22.3283C91.6167 22.7081 91.7725 22.8448 91.4401 23.2095C91.0603 23.5666 90.6348 23.1088 90.3006 23.4184C89.9093 23.7166 89.9872 23.823 89.6149 24.106L88.7906 24.6112C88.3481 24.841 88.464 25.0746 88.0309 25.2892C87.5561 25.4791 87.5504 25.4677 87.1022 25.6387C86.6141 25.7944 86.5894 25.707 86.1298 25.8286C85.636 25.9463 85.6645 26.1173 85.1802 26.2084C84.6617 26.2901 84.6104 25.7716 84.1603 25.8077C83.6665 25.8438 83.6627 26.0109 83.1878 25.9976C82.6826 25.9805 82.6542 26.235 82.1717 26.1629C81.6532 26.0907 81.7501 25.6178 81.3057 25.4981C80.8271 25.3785 80.7359 25.6482 80.2972 25.4772C79.8205 25.3006 79.7084 25.5684 79.2697 25.3481C78.7968 25.1164 79.0114 24.7137 78.6182 24.4649C78.336 24.3092 78.0662 24.132 77.8111 23.935C77.4179 23.6292 77.2242 23.8685 76.8747 23.5381C76.5253 23.2076 76.4284 23.2608 76.115 22.8942C75.8807 22.6562 75.6631 22.4024 75.4636 22.1345C75.2565 21.8753 75.0662 21.6032 74.8938 21.3197C74.6355 20.8696 74.8387 20.75 74.6393 20.3283C74.4323 19.8706 74.4 19.8839 74.2367 19.4452C74.0752 18.9704 73.7239 19.09 73.5909 18.6209C73.4675 18.1119 73.9708 17.9904 73.891 17.5421C73.8226 17.0559 73.5396 17.0958 73.4807 16.6248C73.458 16.1196 73.1845 16.131 73.1579 15.6448C73.1826 15.1206 73.6631 15.1434 73.684 14.6818C73.739 14.188 73.7542 14.1899 73.8188 13.7322C73.8834 13.2745 73.5358 13.1624 73.6479 12.6857C73.7599 12.209 73.815 12.1976 73.9689 11.7361C74.108 11.4338 74.2653 11.1401 74.4399 10.8567C74.5482 10.5381 74.675 10.2261 74.8197 9.92231C74.9573 9.61094 75.1139 9.30838 75.2888 9.01637C75.6003 8.58333 76.0979 9.01637 76.398 8.6612C76.6981 8.30604 76.3676 7.92049 76.7247 7.58243C77.0817 7.24436 77.3856 7.56533 77.7541 7.27855C78.151 6.97087 77.944 6.64989 78.3561 6.38969C78.8044 6.1086 79.0703 6.61191 79.4824 6.40869C79.923 6.18837 79.7464 5.75914 80.206 5.59011C80.5164 5.46332 80.8373 5.36417 81.1651 5.29382C81.6684 5.16087 81.7083 5.3565 82.1793 5.29382C82.6826 5.21975 82.6504 4.92917 83.1423 4.91397C83.6684 4.89878 83.6741 5.26913 84.1413 5.30332C84.6427 5.3413 84.6731 4.96525 85.1555 5.03552C85.6702 5.12289 85.617 5.43437 86.0728 5.53693C86.559 5.66798 86.5628 5.65278 87.011 5.78953C87.4802 5.96616 87.5808 5.70026 88.0309 5.87879C88.4963 6.10481 88.4393 6.22256 88.8647 6.43528C89.2997 6.70117 89.2655 6.75815 89.6681 7.00505C90.0726 7.30893 90.1543 7.19498 90.5399 7.48556C90.9197 7.83123 91.0565 7.67549 91.4211 8.00976C91.7763 8.38961 91.6224 8.53585 91.9453 8.88911L92.5436 9.6811C92.819 10.1122 93.0431 9.97549 93.3033 10.3952C93.5483 10.8643 93.045 11.1131 93.252 11.5348C93.4419 11.9944 93.554 11.9526 93.723 12.3951C93.8788 12.8738 94.12 12.8092 94.2491 13.2783C94.3688 13.7835 94.4048 13.7797 94.4884 14.2602C94.572 14.7939 93.5844 15.0427 94.2985 15.3466C94.657 15.5326 95.0561 15.6265 95.4599 15.6199C95.8638 15.6133 96.2596 15.5063 96.6118 15.3086C97.2594 14.8604 96.2623 14.5679 96.1731 14.0285C96.0724 13.4321 96.5757 13.3429 96.439 12.7674C96.2737 12.1539 95.7039 12.3116 95.533 11.7836C95.3222 11.2233 95.6584 11.0942 95.4342 10.5624C95.1627 10.0059 95.0544 10.061 94.7885 9.55765C94.4694 9.03726 94.4087 9.06764 94.1124 8.59283C93.7477 8.10662 93.7325 8.17499 93.3527 7.70018C92.9481 7.25386 93.0507 7.15889 92.6613 6.75055C92.2131 6.34221 92.4885 6.03643 92.0498 5.64139C91.5446 5.26154 91.3395 5.53503 90.8836 5.19506C90.3632 4.87409 90.4677 4.69936 89.9682 4.39737C89.4155 4.11438 89.4744 3.99663 88.9407 3.74213C88.3557 3.50852 88.3709 3.45344 87.8201 3.25022C87.2105 3.0603 87.0984 3.47813 86.5476 3.33189C85.9475 3.20274 85.9323 3.29391 85.3701 3.20084C84.768 3.11917 84.7737 3.01092 84.2001 2.97863C83.8057 2.95864 83.4103 2.96626 83.0169 3.00142C82.3997 3.02611 82.4262 3.25782 81.866 3.33569C81.4817 3.40466 81.1043 3.50698 80.7378 3.64147C80.1433 3.78581 80.0617 3.53321 79.5204 3.72314C78.9392 3.93396 79.0152 4.11628 78.5081 4.36699C78.1492 4.52323 77.8031 4.70739 77.473 4.91777C77.1202 5.09056 76.7801 5.28793 76.455 5.50844C75.9726 5.875 75.6573 5.48565 75.2205 5.88829C74.7551 6.32132 75.021 6.59291 74.6507 7.02784C74.2442 7.48746 74.3753 7.59762 74.0448 8.05534C73.7144 8.51306 73.1598 8.1674 72.8559 8.6802C72.5368 9.23098 72.9755 9.47978 72.7381 9.99068C72.5369 10.3283 72.3549 10.6771 72.1931 11.0353C71.9936 11.6051 71.6366 11.4892 71.4827 12.0571C71.3346 12.6667 71.5074 12.7085 71.403 13.2745C71.3156 13.8842 71.365 13.8918 71.3042 14.4596C71.2738 15.0712 71.0649 15.0617 71.0421 15.6448C71.0725 16.2658 71.0041 16.2696 71.0421 16.8527C71.12 17.4738 71.063 17.4832 71.1504 18.0644C71.2757 18.6874 71.8949 18.5373 72.0278 19.0767C72.1931 19.6465 71.8987 19.7548 72.0886 20.2998C72.3108 20.8696 72.5292 20.7785 72.7666 21.2913C73.0325 21.8382 73.1845 21.7509 73.4656 22.2409C73.7466 22.7309 73.3041 23.0842 73.6555 23.5704C73.8989 23.8951 74.1635 24.2034 74.4475 24.4934C74.8672 24.9663 75.1369 24.6833 75.549 25.0822C75.8536 25.3332 76.1761 25.5617 76.5139 25.7659C76.9963 26.1458 76.8291 26.3927 77.3267 26.706C77.8604 27.0384 77.9383 26.896 78.4549 27.1467C78.795 27.3663 79.1497 27.5623 79.5166 27.7335C79.8853 27.9016 80.2662 28.0412 80.6561 28.1514C81.2696 28.3147 81.393 27.7069 81.9438 27.7886C82.5345 27.8779 82.4965 28.2292 83.0739 28.2539C83.6892 28.2767 83.6855 28.5122 84.2704 28.4761C84.8972 28.4306 84.8744 28.1324 85.4347 28.0431C86.0329 27.9425 86.1108 28.3774 86.6863 28.2425C87.2997 28.0792 87.1592 27.574 87.691 27.4012C88.2608 27.1903 88.312 27.3328 88.8305 27.1144C89.3756 26.8485 89.5333 27.1657 90.0537 26.8922L91.0868 26.2578C91.5902 25.878 91.3869 25.6121 91.8352 25.2664C92.2853 24.86 92.6101 25.2132 93.045 24.8087C93.4761 24.3396 92.969 23.8799 93.3413 23.4792C93.7002 23.0025 94.1921 23.3709 94.5454 22.8942C94.8797 22.3586 94.6442 22.2143 94.9404 21.7243C95.2196 21.1716 95.0297 21.0785 95.2747 20.5695C95.5007 20.0093 95.6812 20.0757 95.8825 19.5344C96.061 18.9457 96.2414 18.9932 96.3934 18.4272C96.5263 17.8099 95.9622 17.7131 96.0534 17.1661C96.1446 16.6191 97.3411 16.3513 96.6916 15.9012C96.3373 15.7169 95.9417 15.6268 95.5426 15.6395C95.1435 15.6521 94.7543 15.7671 94.4125 15.9733C93.6414 16.281 94.2225 16.3931 94.2814 16.9268V16.9268Z" fill="#2B292D"/>
<path d="M128.161 62.6004L128.252 56.3708C128.252 53.1421 127.705 53.1421 127.705 50.1394L127.614 43.9098C127.614 40.6811 127.804 40.6811 127.804 37.6802V31.4526C127.826 30.7492 127.777 30.0454 127.657 29.352C127.563 28.8591 127.423 28.3759 127.24 27.9086C126.791 26.8325 126.191 25.8264 125.456 24.921C124.677 23.9815 123.706 23.2204 122.607 22.6894C121.569 22.1791 120.445 21.8661 119.293 21.7664C115.874 21.6847 116.019 21.3865 112.97 21.3599C109.742 21.3599 109.742 21.6334 106.741 21.6334H100.513L94.2836 21.5423C91.0549 21.5423 91.0549 20.906 88.0541 20.906C84.8253 20.906 84.8253 21.4511 81.8245 21.4511C78.5958 21.4511 78.5958 21.7246 75.595 21.7246C72.3662 21.7246 72.3662 20.906 69.3635 20.906C66.1348 20.906 66.1348 21.6334 63.1339 21.6334L56.9044 21.5423C53.6756 21.5423 53.6756 21.0883 50.6748 21.0883C47.4461 21.0883 47.4461 21.3599 44.4453 21.3599L38.2138 21.453C34.9851 21.453 35.0173 21.1738 31.9595 21.1871C30.6743 21.2104 29.4049 21.4759 28.218 21.9696C27.0787 22.4333 26.0522 23.136 25.2077 24.0303C24.3063 24.9671 23.5932 26.0684 23.1071 27.2742C22.6334 28.405 22.4031 29.6229 22.431 30.8486C22.431 34.0773 23.2515 34.0773 23.2515 37.0801C23.2515 40.3088 22.7956 40.3088 22.7956 43.3096C22.7956 46.5384 23.0691 46.5384 23.0691 49.5392C23.0691 52.7679 23.2591 52.7679 23.2591 55.7688C23.2591 58.9975 22.4386 58.9975 22.4386 61.9983V68.2298C22.4386 71.4585 22.8944 71.4585 22.8944 74.4593L22.9856 80.6889C22.9856 83.9176 22.5297 83.9176 22.5297 86.9185C22.5297 90.1472 22.7197 90.1472 22.7197 93.148C22.7197 96.3768 22.5297 96.3768 22.5297 99.3795C22.4823 102.608 22.4823 102.608 22.4386 105.609C22.4386 108.838 23.2591 108.838 23.2591 111.839C23.2591 115.067 22.8032 115.067 22.8032 118.068C22.8032 121.297 22.5297 121.297 22.5297 124.298C22.508 125.388 22.5875 126.479 22.7671 127.555C22.9576 128.723 23.3025 129.86 23.7927 130.938C24.3184 132.069 24.979 133.133 25.7604 134.105C26.5211 135.087 27.5494 135.827 28.7213 136.236C29.9161 136.714 31.2314 136.799 32.478 136.481C33.4702 136.225 34.4922 136.103 35.5169 136.119C38.7456 136.119 38.7456 136.309 41.7483 136.309C44.977 136.309 44.977 136.763 47.9779 136.763H54.2074C57.4362 136.763 57.4362 136.309 60.437 136.309C63.6657 136.309 63.6657 136.945 66.6666 136.945C69.8953 136.945 69.8953 136.035 72.898 136.035C76.1268 136.035 76.1267 136.854 79.1276 136.854C82.3563 136.854 82.3563 136.489 85.3571 136.489C88.5859 136.489 88.5859 136.217 91.5867 136.217C94.8154 136.217 94.8154 136.489 97.8163 136.489C101.045 136.489 101.045 136.763 104.048 136.763C107.276 136.763 107.276 136.035 110.277 136.035C113.278 136.035 115.003 137.674 117.151 136.763C118.48 136.193 118.695 135.64 118.277 135.08H118.493C118.463 135.587 119.008 136.219 120.393 136.474C121.04 136.535 121.693 136.446 122.3 136.212C122.907 135.978 123.451 135.606 123.889 135.125C124.899 134.04 125.756 132.822 126.434 131.503C127.008 130.404 127.471 129.25 127.817 128.058C128.079 127.023 128.201 125.956 128.18 124.888C128.18 121.66 127.359 121.66 127.359 118.659C127.359 115.43 127.815 115.43 127.815 112.427C127.815 109.199 127.625 109.199 127.625 106.198C127.58 102.969 127.58 102.969 127.534 99.9682L127.443 93.7387C127.443 90.5099 127.633 90.5099 127.633 87.5091C127.633 84.2804 128.18 84.2804 128.18 81.2777C128.18 78.0489 127.724 78.0489 127.724 75.0481C127.724 71.8194 127.997 71.8194 127.997 68.8185C127.978 65.6031 128.161 65.6031 128.161 62.6004V62.6004Z" fill="#3040C4"/>
<path d="M127.461 40.6737C127.486 40.254 127.509 39.8267 127.526 39.293C127.491 39.298 127.458 39.3063 127.425 39.3177C127.174 39.4525 127.019 40.4591 127.461 40.6737Z" fill="#9FBFFF"/>
<path d="M126.923 36.1876C126.705 36.1116 126.469 36.1049 126.247 36.1687C126.308 35.6293 126.237 34.9056 125.554 35.1127C125.28 35.1943 124.845 36.2218 125.195 36.6321C124.731 37.0708 124.167 37.9122 125.111 38.0736C125.288 38.1686 125.704 37.8191 125.943 37.3747C126.577 37.2626 127.493 36.8353 126.923 36.1876Z" fill="#9FBFFF"/>
<path d="M126.103 43.074C126.416 43.1272 127.622 42.1662 126.768 41.8281C126.511 41.6838 125.302 42.6448 126.103 43.074Z" fill="#9FBFFF"/>
<path d="M125.428 39.6194C125.026 39.5188 123.854 41.0667 124.976 41.3288C125.278 41.834 125.764 42.2081 126.186 41.6327C126.222 41.2395 126.103 40.8479 125.856 40.5406C125.956 40.1341 125.922 39.7733 125.428 39.6194Z" fill="#9FBFFF"/>
<path d="M118.232 22.268C118.006 22.268 117.726 22.57 117.584 22.8378C117.495 22.7903 117.405 22.7428 117.311 22.9213C116.9 23.0448 116.346 25.1511 117.842 24.9232C117.932 24.9706 117.979 24.8814 118.032 24.7921C118.163 24.982 118.342 25.0713 118.661 24.9004C118.798 24.8586 118.758 24.7218 118.805 24.6326C119.113 24.9118 119.375 25.0542 119.7 24.8833C119.652 24.9725 119.742 25.02 119.7 25.1093C119.421 25.417 119.272 25.9089 119.491 26.1406C119.111 26.6268 119.05 27.3941 119.631 27.5897C119.39 27.8575 119.339 28.1272 119.614 28.3494C119.714 28.3107 119.823 28.3008 119.928 28.3209C119.958 28.3399 119.966 28.3646 119.99 28.3855C120.134 28.3114 120.267 28.2181 120.385 28.1082L120.564 28.2032C120.685 28.2338 120.812 28.221 120.925 28.1671C120.987 28.3788 121.114 28.5654 121.289 28.7002C121.464 28.835 121.677 28.911 121.897 28.9173C121.958 29.0108 122.049 29.0807 122.155 29.1153C122.261 29.1498 122.376 29.147 122.48 29.1072C122.615 29.0673 122.615 29.0673 122.67 28.9781C123.073 29.0787 123.525 29.092 123.495 28.5033C123.455 28.3665 123.187 28.2241 122.925 28.0816L122.843 27.8081C123.006 27.4892 123.078 27.1319 123.052 26.7749C123.166 26.7502 123.273 26.7028 123.368 26.6356C123.463 26.5683 123.544 26.4827 123.605 26.3837L123.652 26.2944C123.747 26.1178 123.534 25.6601 123.225 25.3809C123.924 25.981 124.98 26.3305 125.47 25.2479C125.384 25.1321 125.322 25.0352 125.225 24.9118C124.483 24.0163 123.564 23.2843 122.526 22.7618C122.501 22.8872 122.484 23.0141 122.475 23.1417L122.285 23.4968C122.317 23.7343 122.387 23.9651 122.492 24.1806C122.05 24.2148 121.632 24.3937 121.303 24.6896C121.166 24.7313 121.029 24.7731 120.982 24.8605C120.951 24.906 120.93 24.9578 120.92 25.0123C120.911 25.0667 120.914 25.1225 120.929 25.1758C120.897 25.395 120.938 25.6186 121.046 25.812C120.999 25.9013 120.993 26.1254 120.946 26.2147C120.856 26.1672 120.809 26.2564 120.72 26.2147C120.738 26.0925 120.729 25.9677 120.694 25.8494C120.658 25.7311 120.596 25.6223 120.513 25.5309L120.649 25.4891C120.786 25.4493 120.839 25.134 120.893 24.8187C121.35 24.606 121.814 24.1673 121.335 23.5671C121.601 23.7095 122.653 23.2423 122.351 22.7371C122.376 22.7291 122.4 22.719 122.423 22.7067L122.374 22.6801C121.967 22.4842 121.547 22.316 121.117 22.1768C121.074 22.2651 121.049 22.3609 121.044 22.4587C121.039 22.5565 121.053 22.6544 121.086 22.7466L121.352 22.8891C121.294 22.9251 121.243 22.9726 121.204 23.0287C121.164 23.0847 121.137 23.1482 121.122 23.2152C121.108 23.2823 121.107 23.3516 121.12 23.4189C121.133 23.4862 121.16 23.5502 121.198 23.607C121.013 23.5848 120.824 23.6078 120.649 23.6739C120.475 23.74 120.318 23.8474 120.194 23.9868L119.92 24.0704C119.804 23.7887 119.626 23.5368 119.4 23.3335C119.48 23.2153 119.515 23.0727 119.5 22.9308L119.637 22.8891C119.689 22.8714 119.737 22.8425 119.777 22.8045C119.817 22.7664 119.849 22.7201 119.869 22.6687C120.321 22.682 120.777 22.4693 120.653 22.0591C120.19 22.2892 119.667 22.3695 119.157 22.2889C118.807 22.2521 118.462 22.1822 118.125 22.08C118.19 22.1313 118.142 22.2205 118.232 22.268V22.268Z" fill="#9FBFFF"/>
<path d="M84.5169 46.3501C84.1066 46.4755 83.6945 48.3139 84.8777 48.031C85.2861 47.9075 85.5615 46.1089 84.5169 46.3501Z" fill="#9FBFFF"/>
<path d="M117.753 36.4307C118.026 36.349 118.336 34.9113 117.475 35.0234C117.683 34.7888 117.803 34.4894 117.815 34.1763C118.047 33.956 117.954 32.4195 117.086 32.7556C116.949 32.7974 116.849 33.2001 117.019 33.5153C116.556 33.9541 116.07 35.0708 117.065 35.143L117.154 35.1905C116.917 35.6311 116.892 36.5428 117.753 36.4307V36.4307Z" fill="#9FBFFF"/>
<path d="M84.8864 21.4833C85.0308 21.6353 85.4961 21.3637 85.7126 21.0161C85.2986 21.0655 84.9415 21.1225 84.6016 21.1813C84.6255 21.2487 84.6632 21.3103 84.7122 21.3623C84.7613 21.4143 84.8206 21.4555 84.8864 21.4833V21.4833Z" fill="#9FBFFF"/>
<path d="M80.3083 27.0444C80.8781 27.6939 84.6481 26.8544 83.0774 24.864C82.5988 24.2638 78.9579 25.2913 80.3083 27.0444Z" fill="#9FBFFF"/>
<path d="M119.603 28.3471C119.502 28.3718 119.394 28.4022 119.28 28.4364C119.318 28.3516 119.335 28.2593 119.33 28.1667C119.325 28.0742 119.299 27.984 119.253 27.9036C119.207 27.8232 119.142 27.7547 119.065 27.7037C118.988 27.6528 118.899 27.6207 118.807 27.6102C118.492 27.557 117.409 29.1524 118.579 29.3195C118.71 29.5094 118.798 29.5512 118.929 29.7355C119.273 29.9254 120.725 28.9985 119.979 28.3832C119.871 28.4364 119.774 28.4705 119.732 28.4497C119.685 28.4203 119.642 28.3859 119.603 28.3471V28.3471Z" fill="#9FBFFF"/>
<path d="M112.305 24.3607C112.584 24.053 111.862 22.4064 110.975 23.1965C110.928 23.2616 110.902 23.3393 110.9 23.4195C110.897 23.4997 110.919 23.5788 110.962 23.6466C110.848 23.6717 110.741 23.7192 110.646 23.7864C110.551 23.8536 110.471 23.9391 110.409 24.0379C109.234 24.0967 107.5 24.771 108.366 26.1498C108.537 26.4689 109.617 26.5905 110.485 26.2524L110.436 26.3416C110.453 26.394 110.482 26.4418 110.52 26.4818C110.558 26.5218 110.605 26.5531 110.656 26.5734C110.698 26.7101 110.787 26.7633 110.964 26.8525L111.101 26.8108C111.454 26.8978 111.817 26.9387 112.181 26.9323L112.449 27.0748C112.402 27.164 112.259 27.2039 112.217 27.2932C111.765 27.2818 111.397 27.542 111.562 28.089C111.735 28.4099 113.307 28.6777 113.414 28.0491C113.872 27.8364 114.063 27.4793 113.712 27.0634C113.562 26.9752 113.394 26.9243 113.22 26.9152C113.272 26.8976 113.32 26.8687 113.36 26.8306C113.4 26.7926 113.432 26.7463 113.452 26.6949C113.664 26.5138 113.799 26.2594 113.832 25.9827C113.955 26.3929 114.126 26.7139 114.673 26.5525C114.994 26.3815 114.764 24.8849 113.985 25.2686L113.843 25.5364C113.891 25.4471 113.801 25.3996 113.843 25.3104C113.72 24.9001 112.514 24.5962 111.6 24.7976C111.79 24.6665 111.921 24.6247 112.105 24.4956C112.168 24.4025 112.267 24.45 112.305 24.3607V24.3607Z" fill="#9FBFFF"/>
<path d="M112.406 46.8501C112.72 46.9033 113.654 45.7998 112.758 45.551C112.444 45.4959 111.373 46.6469 112.406 46.8501Z" fill="#9FBFFF"/>
<path d="M118.001 25.692C117.783 25.6159 117.547 25.6093 117.325 25.673C117.241 25.3995 117.112 25.2153 116.66 25.2039C116.387 25.2855 115.796 27.0309 116.884 26.9246C117.24 27.1164 118.837 26.4821 118.001 25.692V25.692Z" fill="#9FBFFF"/>
<path d="M117.571 28.2087C117.168 28.108 116.144 29.1583 117.083 29.5495C117.35 29.692 118.42 28.5486 117.571 28.2087Z" fill="#9FBFFF"/>
<path d="M116.573 28.3626C116.936 28.3266 117.204 26.754 116.207 26.9078C115.933 26.9895 115.576 28.5146 116.573 28.3626Z" fill="#9FBFFF"/>
<path d="M115.978 30.3319C115.657 30.5047 115.875 32.4514 116.927 31.7582C117.3 31.498 116.988 29.7279 115.978 30.3319Z" fill="#9FBFFF"/>
<path d="M115.767 23.2383C115.591 23.1414 114.949 23.4852 114.757 23.8422C114.254 24.1442 113.92 24.7672 114.542 25.0995C114.9 25.2895 115.819 24.638 115.79 24.0511C116.022 23.8308 116.125 23.4282 115.767 23.2383Z" fill="#9FBFFF"/>
<path d="M115.158 40.4228C115.384 40.4228 115.537 39.9366 115.634 39.534C116.014 39.3338 116.31 39.0063 116.472 38.609C116.587 38.4664 116.667 38.2979 116.703 38.118C116.739 37.9382 116.732 37.7522 116.681 37.5758C117.146 37.1371 117.621 36.2464 116.725 35.9976C116.5 35.9976 116.035 36.4287 115.75 36.9643C115.638 37.1345 115.564 37.3275 115.535 37.5295C115.506 37.7315 115.523 37.9374 115.583 38.1323C115.327 38.2708 115.105 38.4656 114.935 38.7021C114.614 38.873 114.024 40.6184 115.158 40.4228Z" fill="#9FBFFF"/>
<path d="M115.058 29.2688C115.072 28.8168 113.159 27.907 113.254 29.2194C113.29 29.5803 115.165 30.3552 115.058 29.2688Z" fill="#9FBFFF"/>
<path d="M127.549 32.5372V31.4527C127.549 31.3957 127.549 31.3407 127.549 31.2837C127.249 31.3624 126.98 31.5299 126.777 31.7642C126.646 31.5743 126.238 31.7053 125.78 31.918C125.744 31.8147 125.679 31.724 125.593 31.6566C125.507 31.5892 125.403 31.5481 125.294 31.5382C124.89 31.4356 123.63 32.936 124.888 33.1526C124.977 33.2 125.161 33.069 125.393 32.8487C125.482 32.8981 125.435 32.9854 125.524 33.0386C125.653 33.2285 126.563 33.0234 126.853 32.4897L126.943 32.5372C127.039 32.5775 127.142 32.5982 127.246 32.5982C127.35 32.5982 127.453 32.5775 127.549 32.5372V32.5372Z" fill="#9FBFFF"/>
<path d="M112.077 33.9729L112.213 33.9311C112.168 34.0989 112.159 34.2742 112.185 34.4459C112.212 34.6175 112.274 34.7818 112.367 34.9282C112.08 35.4619 112.008 36.4477 112.918 36.2577C113.127 36.0723 113.274 35.8267 113.337 35.5546C113.401 35.2826 113.38 34.9975 113.275 34.7383C113.378 34.3338 113.307 33.6102 112.95 33.4088C113.038 33.3501 113.11 33.2708 113.16 33.1777C113.21 33.0847 113.237 32.9808 113.237 32.8752C113.249 32.8817 113.261 32.8858 113.274 32.8872C113.288 32.8886 113.301 32.8873 113.314 32.8834C113.326 32.8795 113.338 32.873 113.348 32.8644C113.358 32.8558 113.366 32.8453 113.372 32.8334C113.495 32.6184 113.555 32.3735 113.546 32.1262C113.537 31.8789 113.459 31.639 113.321 31.4336C113.334 30.9816 112.859 30.1554 112.314 30.3226C112.147 29.7756 111.222 28.9361 110.795 29.7376L110.836 29.8743L110.74 30.0529C110.741 29.9418 110.715 29.8321 110.663 29.7338C110.611 29.6356 110.535 29.5521 110.442 29.4909C110.35 29.4298 110.243 29.393 110.132 29.384C110.022 29.375 109.91 29.3941 109.809 29.4394C109.488 29.6122 109.254 31.5457 110.531 31.0861L110.578 30.9968C110.577 31.0957 110.598 31.1936 110.64 31.2832C110.681 31.3729 110.743 31.4521 110.819 31.5148C110.895 31.5776 110.985 31.6223 111.081 31.6457C111.177 31.6692 111.277 31.6707 111.374 31.6501C111.485 31.5966 111.582 31.5167 111.655 31.4174C111.729 31.3181 111.777 31.2024 111.796 31.0804C111.932 31.0386 112.069 30.9987 112.117 30.9094L112.2 31.1829C111.885 31.1278 110.958 32.0053 111.349 32.558C110.897 32.5466 109.881 33.3766 110.59 33.9824C110.621 34.2316 110.743 34.4604 110.933 34.6244C110.803 34.71 110.694 34.8231 110.613 34.9558C110.531 35.0885 110.48 35.2374 110.463 35.3921C110.446 35.5467 110.463 35.7032 110.513 35.8506C110.563 35.9979 110.645 36.1323 110.753 36.2444C111.156 36.3451 112.314 35.2492 111.651 34.7782C111.887 34.5541 112.168 34.2464 112.077 33.9729V33.9729ZM111.925 32.9758C111.883 32.8391 111.883 32.8391 111.925 32.7498L112.014 32.7973L111.925 32.9758Z" fill="#9FBFFF"/>
<path d="M113.383 44.1777C113.212 43.8567 111.728 43.6345 112.017 44.5917C112.101 44.8538 113.584 45.076 113.383 44.1777Z" fill="#9FBFFF"/>
<path d="M87.1276 23.7114C86.7725 23.5214 85.2911 24.7901 86.4078 25.2725C86.8162 25.3751 88.1456 24.1463 87.1276 23.7114Z" fill="#9FBFFF"/>
<path d="M113.761 37.044C114.076 37.0972 114.701 35.7146 113.799 35.6899C113.483 35.631 112.769 36.9719 113.761 37.044Z" fill="#9FBFFF"/>
<path d="M125.952 33.732C125.733 33.5003 124.242 33.732 124.799 34.6038C125.019 34.826 126.474 34.4594 125.952 33.732Z" fill="#9FBFFF"/>
<path d="M74.6609 28.8318C74.4007 28.4633 72.4958 28.8166 73.189 29.8745C73.358 30.1955 75.3124 29.7529 74.6609 28.8318Z" fill="#9FBFFF"/>
<path d="M74.9797 33.5817C74.8087 33.2607 72.8677 33.2512 73.4242 34.3509C73.5951 34.6814 75.5361 34.6814 74.9797 33.5817Z" fill="#9FBFFF"/>
<path d="M76.3866 25.1853C76.3468 25.0485 76.1682 24.9536 75.9897 24.8586L76.2632 24.7769C76.5842 24.6041 76.1834 22.7865 75.3136 23.3506C75.0401 23.4323 75.0629 24.247 75.4123 24.663C74.9603 24.6497 74.552 24.7731 74.6279 25.2726C74.0392 25.3011 72.9832 25.9943 73.7771 26.6496C73.9974 26.8813 75.0952 26.3248 75.1559 25.7835C75.7333 25.9716 76.5462 25.945 76.3866 25.1853V25.1853Z" fill="#9FBFFF"/>
<path d="M74.617 21.7041C74.5467 22.2435 74.7177 22.8437 75.4622 22.6233C75.6695 22.3714 75.7698 22.0482 75.7414 21.7231H75.3463C75.0709 21.7269 74.8506 21.7136 74.617 21.7041Z" fill="#9FBFFF"/>
<path d="M68.8568 21.4912C68.4541 21.3905 68.0021 21.3772 67.9831 22.0609C67.9299 22.3743 69.1758 23.041 69.4607 22.5073C69.3601 22.9118 69.3468 23.3619 69.9773 23.4702C70.38 23.5708 71.4151 22.0647 70.2926 21.8083C70.3921 21.7004 70.4631 21.5694 70.4993 21.4272C70.5354 21.2849 70.5355 21.1359 70.4996 20.9936C70.1748 20.9556 69.8045 20.929 69.3601 20.9214C69.1246 21.0387 68.9441 21.2431 68.8568 21.4912V21.4912Z" fill="#9FBFFF"/>
<path d="M77.194 28.5848C76.7913 28.4841 75.7505 30.2162 77.0041 30.4309C77.4124 30.5334 78.4114 28.6646 77.194 28.5848Z" fill="#9FBFFF"/>
<path d="M77.377 44.9376C77.0143 44.9718 76.7807 46.9071 77.9202 46.4874C78.3305 46.362 78.4273 44.4685 77.377 44.9376Z" fill="#9FBFFF"/>
<path d="M51.3327 21.7305C51.0516 22.0401 51.0402 22.4902 51.4789 22.9536C51.8417 23.2518 53.9688 22.3231 53.4123 21.3108C52.4927 21.1653 51.5629 21.0929 50.6318 21.0943C50.8074 21.3626 51.0486 21.5817 51.3327 21.7305Z" fill="#9FBFFF"/>
<path d="M118.592 56.6822C118.283 56.403 116.454 57.252 117.515 58.0535C117.871 58.2434 119.523 57.2957 118.592 56.6822Z" fill="#9FBFFF"/>
<path d="M54.8476 25.2135C55.3946 25.0483 55.953 24.4311 55.4174 23.9202C55.2863 23.7302 54.6045 23.9429 54.1886 24.3C53.7309 24.5146 53.0167 25.8479 54.0974 25.9695C54.3386 25.9676 54.6577 25.5649 54.8476 25.2135V25.2135Z" fill="#9FBFFF"/>
<path d="M68.0382 29.8665C68.401 29.8323 69.1778 27.9673 68.0002 28.0148C67.685 27.9616 66.7752 29.8779 68.0382 29.8665Z" fill="#9FBFFF"/>
<path d="M77.4317 33.0612C77.0708 33.0973 76.2541 34.8351 77.519 34.8256C77.8894 34.7895 78.5199 32.9567 77.4317 33.0612Z" fill="#9FBFFF"/>
<path d="M60.6062 21.603L59.0697 21.5764C58.8418 21.8822 58.7962 22.2336 59.3033 22.4444C59.3926 22.4919 59.44 22.4026 59.5293 22.4444C59.6604 22.6343 59.7952 22.5868 59.8845 22.6343C60.1295 22.7046 60.553 22.1101 60.6062 21.603V21.603Z" fill="#9FBFFF"/>
<path d="M81.5168 29.065C81.1598 28.8751 79.6385 30.0147 80.7059 30.5845C81.0629 30.7687 82.495 29.5892 81.5168 29.065Z" fill="#9FBFFF"/>
<path d="M84.8364 28.2085C84.5287 27.9293 82.5819 28.1458 83.3169 29.1144C83.5885 29.4829 85.4878 29.1296 84.8364 28.2085Z" fill="#9FBFFF"/>
<path d="M83.7127 34.59C84.0679 34.78 85.4582 33.4638 84.3433 32.9814C83.9881 32.7914 82.5067 34.0601 83.7127 34.59Z" fill="#9FBFFF"/>
<path d="M86.7604 28.8942C86.2666 28.7441 84.8763 30.0603 86.1279 30.5028C86.5325 30.6035 87.8335 29.2398 86.7604 28.8942Z" fill="#9FBFFF"/>
<path d="M83.7006 30.1229C83.5296 29.8019 81.5411 29.8817 82.1812 31.0289C82.3103 31.4353 84.1678 31.1694 83.7006 30.1229Z" fill="#9FBFFF"/>
<path d="M85.7045 26.1558C86.0255 25.9848 85.9685 24.8092 85.3854 24.6117C85.3914 24.5997 85.3998 24.5891 85.41 24.5805C85.4202 24.5719 85.4321 24.5654 85.4449 24.5615C85.4576 24.5576 85.4711 24.5563 85.4844 24.5578C85.4977 24.5592 85.5105 24.5633 85.5222 24.5699C85.6115 24.6193 85.7482 24.5699 85.8432 24.399C86.0331 24.2679 85.8204 23.5861 85.5127 23.3069C85.5735 22.7656 85.5431 22.1787 84.9087 22.2965C84.6827 22.2965 84.3902 23.0562 84.4681 23.5481C84.3725 23.5601 84.2805 23.5923 84.1984 23.6428C84.1162 23.6932 84.0458 23.7606 83.9919 23.8404C83.9379 23.9203 83.9017 24.0108 83.8855 24.1058C83.8694 24.2008 83.8737 24.2982 83.8983 24.3914C84.0196 24.5166 84.1657 24.6151 84.3273 24.6805C84.4888 24.7459 84.6623 24.7768 84.8366 24.7712C84.601 25.2232 84.6941 26.7597 85.7045 26.1558V26.1558Z" fill="#9FBFFF"/>
<path d="M85.8288 36.408C86.1441 36.4631 87.0481 34.7727 85.9674 34.6512C85.5173 34.6398 84.6133 36.3301 85.8288 36.408Z" fill="#9FBFFF"/>
<path d="M64.1569 23.2135C63.8436 23.1603 63.1484 23.8174 63.1769 24.4062C62.7971 24.8924 62.647 25.6103 63.4542 25.8136C63.6988 25.6722 63.9045 25.4725 64.053 25.2322C64.2014 24.9919 64.2881 24.7185 64.3051 24.4366C64.6318 24.0454 64.7837 23.3217 64.1569 23.2135V23.2135Z" fill="#9FBFFF"/>
<path d="M66.8246 23.1511C66.5454 23.4607 67.2197 25.1947 68.099 24.4065C68.3782 24.097 67.7515 22.2737 66.8246 23.1511Z" fill="#9FBFFF"/>
<path d="M64.4743 26.4726C64.8295 26.6625 66.3033 25.6198 65.3727 25.0083C65.0175 24.8164 63.3652 25.7642 64.4743 26.4726Z" fill="#9FBFFF"/>
<path d="M66.5454 33.3026C66.2833 32.9341 64.2473 33.1127 65.026 34.2104C65.29 34.5789 67.1969 34.2237 66.5454 33.3026V33.3026Z" fill="#9FBFFF"/>
<path d="M82.2586 41.5929C82.6213 41.5587 83.4779 39.9558 82.3497 39.9254C81.9433 39.8228 81.0373 41.5188 82.2586 41.5929Z" fill="#9FBFFF"/>
<path d="M79.3749 23.227C79.311 23.3127 79.2698 23.4131 79.255 23.5189C79.2402 23.6247 79.2523 23.7325 79.2901 23.8324C79.328 23.9324 79.3904 24.0211 79.4716 24.0906C79.5528 24.16 79.6501 24.2079 79.7547 24.2298C80.1593 24.3324 81.371 22.9212 80.2979 22.5756C80.1194 22.4806 79.7509 22.7408 79.561 23.096L79.7034 22.8301C79.7509 22.7408 79.6617 22.6933 79.5325 22.5091L79.7224 22.152C79.9255 21.9628 80.0866 21.7331 80.1953 21.4778C79.316 21.5063 78.7253 21.5614 78.1271 21.6126C78.1319 21.7509 78.1535 21.888 78.1916 22.021C78.0549 22.0609 77.9599 22.2394 77.9523 22.4654C77.8023 22.9573 78.9114 23.6657 79.3749 23.227V23.227Z" fill="#9FBFFF"/>
<path d="M73.3975 23.92C72.993 23.8174 71.6445 25.2703 72.8961 25.7129C73.2513 25.9028 74.5124 24.4024 73.3975 23.92V23.92Z" fill="#9FBFFF"/>
<path d="M77.609 25.0292C77.9774 24.769 77.4874 22.904 76.5188 23.6447C76.2396 23.9524 76.6878 25.6807 77.609 25.0292Z" fill="#9FBFFF"/>
<path d="M88.6695 25.1092C88.2592 25.2327 87.8471 27.0731 89.0284 26.7901C89.4387 26.6647 89.7141 24.8661 88.6695 25.1092Z" fill="#9FBFFF"/>
<path d="M89.5045 32.5373C89.8122 32.8165 91.3753 31.8213 90.4902 31.1185C90.135 30.9286 88.5264 31.7871 89.5045 32.5373Z" fill="#9FBFFF"/>
<path d="M96.3011 41.4393C96.7114 41.3139 96.8082 39.4204 95.756 39.8895C95.2584 39.9655 95.0723 41.8115 96.3011 41.4393Z" fill="#9FBFFF"/>
<path d="M96.7111 26.5507C96.4035 26.2696 94.7929 27.3541 95.8128 28.015C96.1698 28.205 97.6418 27.1623 96.7111 26.5507Z" fill="#9FBFFF"/>
<path d="M97.1343 22.7694C96.9615 22.4484 95.6567 22.3212 95.4592 22.9023C95.3699 22.8549 95.0964 22.9384 94.7755 23.1094C94.1601 22.551 91.3568 22.4294 91.4973 24.1027C91.2656 24.323 91.2599 24.549 91.5201 24.9175C91.5619 25.0523 92.0139 25.0656 92.3349 24.8947C93.3187 25.1928 94.7679 25.0523 94.9768 24.0191C95.2286 23.9371 95.4419 23.7663 95.577 23.5386C96.0214 23.776 97.5598 23.6829 97.1343 22.7694V22.7694Z" fill="#9FBFFF"/>
<path d="M95.4355 27.0118C95.3937 26.875 95.1278 26.7307 94.8657 26.5882C95.2817 26.2388 95.4792 25.6576 94.8657 25.3233C94.6872 25.2284 94.182 25.5303 93.9921 25.8931C93.9028 25.8456 93.861 25.7032 93.7718 25.6614C93.4166 25.4715 92.222 26.2046 92.5657 26.8465L92.3872 26.7516C92.3454 26.6148 92.2562 26.5616 92.2163 26.4306C91.9604 26.3209 91.6725 26.3118 91.4102 26.4051C91.1479 26.4984 90.9304 26.6872 90.8013 26.9339C89.6143 27.4429 88.9666 28.0108 89.5706 29.0231C90.0036 29.7125 93.673 29.2719 92.5999 27.2112L92.7785 27.3062C92.957 27.4011 93.278 27.2302 93.6464 26.9681C93.6149 27.0893 93.627 27.2177 93.6806 27.3308C93.7908 27.7335 95.6292 28.1456 95.4355 27.0118Z" fill="#9FBFFF"/>
<path d="M92.3329 33.0216C91.9303 32.919 90.8002 34.6037 92.105 34.7309C92.5571 34.7442 93.6396 33.1469 92.3329 33.0216V33.0216Z" fill="#9FBFFF"/>
<path d="M104.971 21.81C105.05 22.074 106.165 22.15 106.228 21.6353H104.519C104.653 21.7288 104.808 21.7887 104.971 21.81V21.81Z" fill="#9FBFFF"/>
<path d="M104.58 44.1511C104.935 44.341 106.588 43.3914 105.655 42.7799C105.3 42.5899 103.471 43.4427 104.58 44.1511Z" fill="#9FBFFF"/>
<path d="M96.9557 21.5879C96.9509 21.6981 96.9737 21.8078 97.0222 21.907C96.8323 22.49 97.1684 23.1301 98.0763 22.9307C98.3498 22.8471 98.5891 22.4027 98.646 21.8614C98.7353 21.9108 98.6878 21.9981 98.7771 22.0513C99.0791 22.4786 100.523 22.2849 101.349 21.6411H100.266L96.9557 21.5879Z" fill="#9FBFFF"/>
<path d="M103.841 36.5447C104.109 36.6871 105.31 35.728 104.556 35.2152C104.2 35.0196 102.96 36.068 103.841 36.5447Z" fill="#9FBFFF"/>
<path d="M92.0026 36.8505C92.3102 37.1297 93.8315 35.9977 92.8116 35.3311C92.4565 35.1469 90.8459 36.2313 92.0026 36.8505Z" fill="#9FBFFF"/>
<path d="M93.0145 21.5176C92.9663 21.5881 92.938 21.6702 92.9326 21.7554C92.9272 21.8407 92.9448 21.9257 92.9837 22.0018C93.0226 22.0778 93.0813 22.1419 93.1535 22.1874C93.2258 22.2329 93.309 22.258 93.3943 22.2602C93.6241 22.3172 93.9641 21.924 94.0667 21.5461H94.0344C93.6545 21.5442 93.3183 21.5347 93.0145 21.5176Z" fill="#9FBFFF"/>
<path d="M93.8882 30.7612C93.7154 30.4402 91.8218 30.3433 92.2415 31.4829C91.7857 31.6956 91.4571 32.0944 91.9851 32.6053C92.2054 32.837 93.6185 32.3337 93.4115 31.6557C93.8217 31.5266 94.1902 31.2626 93.8882 30.7612Z" fill="#9FBFFF"/>
<path d="M118.914 50.0993C118.995 50.3728 120.384 50.7716 120.273 49.9094C120.243 49.5485 118.756 49.1022 118.914 50.0993Z" fill="#9FBFFF"/>
<path d="M88.8189 24.6153L88.9974 24.7102C89.2633 24.8527 90.5054 24.0284 89.7571 23.5118L89.6659 23.4757C89.8691 22.6685 89.7153 21.6695 88.6707 21.9126C88.0743 22.1576 87.1456 24.7501 88.8189 24.6153Z" fill="#9FBFFF"/>
<path d="M123.6 43.6822C123.245 43.4923 121.677 44.7135 122.744 45.2833C123.091 45.4751 124.668 44.2539 123.6 43.6822Z" fill="#9FBFFF"/>
<path d="M126.831 47.6991C126.516 47.6459 125.446 48.7892 126.432 49.0874C126.745 49.1425 127.638 47.9023 126.831 47.6991Z" fill="#9FBFFF"/>
<path d="M43.2969 23.2706C42.8524 23.0313 40.4233 24.3646 41.8401 25.3598C42.3264 25.7264 44.5789 24.2981 43.2969 23.2706Z" fill="#9FBFFF"/>
<path d="M44.8538 27.4225C45.1615 27.7016 46.772 26.6172 45.887 25.9144C45.5793 25.6353 43.7921 26.6248 44.8538 27.4225Z" fill="#9FBFFF"/>
<path d="M127.995 55.9079C127.995 55.735 127.995 55.5508 127.983 55.397C127.936 55.4743 127.912 55.5635 127.914 55.6541C127.916 55.7447 127.944 55.8327 127.995 55.9079V55.9079Z" fill="#9FBFFF"/>
<path d="M103.287 43.5736C102.876 43.6971 102.464 45.5375 103.646 45.2526C104.056 45.1272 104.379 43.2413 103.287 43.5736Z" fill="#9FBFFF"/>
<path d="M98.0215 39.4998C97.7119 39.2206 95.9722 40.1208 96.9446 40.8691C97.2618 41.1483 98.9084 40.2006 98.0215 39.4998Z" fill="#9FBFFF"/>
<path d="M91.907 38.7442C91.5025 38.6416 90.154 40.0946 91.3638 40.4003C91.719 40.5903 92.9801 39.0899 91.907 38.7442Z" fill="#9FBFFF"/>
<path d="M116.882 43.4066C116.662 43.1749 115.249 43.6763 115.908 44.3733C116.126 44.6051 117.539 44.1017 116.882 43.4066Z" fill="#9FBFFF"/>
<path d="M110.159 36.7192C109.986 36.3982 108.003 36.252 108.56 37.3516C108.732 37.6726 110.673 37.6802 110.159 36.7192Z" fill="#9FBFFF"/>
<path d="M116.003 52.3222C116.056 52.0088 114.769 51.2054 114.696 52.1968C114.643 52.5102 115.976 53.2243 116.003 52.3222Z" fill="#9FBFFF"/>
<path d="M119.593 36.8428C119.68 36.8922 119.864 36.7611 120.096 36.5408C120.065 36.5863 120.044 36.6381 120.035 36.6926C120.025 36.747 120.028 36.8028 120.043 36.8561C120.031 37.3081 121.722 38.2122 121.8 36.9947C121.8 36.7687 121.319 36.3946 120.917 36.2939C121.106 35.9368 120.064 34.463 119.452 35.3956C119.403 35.4829 119.452 35.6197 119.486 35.7564C119.207 36.066 119.01 36.6472 119.593 36.8428V36.8428Z" fill="#9FBFFF"/>
<path d="M102.255 23.6774C102.426 23.9984 103.775 24.0364 104.065 23.5027C104.155 23.5501 104.196 23.6926 104.286 23.7344C104.551 23.8768 105.794 23.0525 105.045 22.5359C104.925 22.5054 104.797 22.5174 104.684 22.5701C104.607 22.0725 104.305 21.5673 103.752 21.9586C103.528 21.9586 103.514 22.403 103.549 22.7658C102.914 22.6575 101.82 22.7639 102.255 23.6774V23.6774Z" fill="#9FBFFF"/>
<path d="M123.694 32.171C123.918 32.171 124.157 31.7323 124.264 31.3277C124.716 31.341 125.213 31.2651 125.227 30.813C125.445 31.0447 126.539 30.7143 126.687 30.2205L126.777 30.2698C126.729 30.3572 126.818 30.4047 126.947 30.5889C127.037 30.6364 127.173 30.5889 127.399 30.6022C127.391 30.7778 127.443 30.9509 127.548 31.0922C127.558 30.5072 127.511 29.9227 127.407 29.3468C127.313 28.8537 127.173 28.3704 126.989 27.9034C126.649 27.1 126.223 26.3359 125.719 25.6243C125.098 25.7249 124.416 26.1599 124.929 26.8873L125.107 26.9822C124.78 27.3792 124.446 28.0021 125.069 28.3345C125 28.4332 124.961 28.5501 124.958 28.6707C124.954 28.7912 124.986 28.9101 125.05 29.0125C125.003 29.0999 124.913 29.0524 124.86 29.1417C124.829 29.1872 124.808 29.239 124.799 29.2935C124.79 29.3479 124.792 29.4037 124.807 29.457C124.687 29.4974 124.582 29.5737 124.507 29.6756C124.431 29.7774 124.389 29.9 124.385 30.0267C124.142 30.0258 123.904 30.0979 123.702 30.2338C123.68 30.1576 123.634 30.0907 123.571 30.0438C123.31 29.6754 121.445 30.1654 122.275 31.1834L122.454 31.2784C122.41 31.3332 122.38 31.398 122.366 31.4671C122.353 31.5362 122.357 31.6074 122.377 31.6748C122.398 31.7421 122.434 31.8034 122.483 31.8535C122.533 31.9036 122.594 31.9408 122.661 31.9621C122.749 32.0089 122.886 31.9672 123.071 31.8367C123.153 32.1102 123.331 32.2128 123.694 32.171V32.171ZM125.477 29.702L125.388 29.6545C125.41 29.6065 125.413 29.5523 125.398 29.502C125.383 29.4516 125.349 29.4086 125.305 29.381C125.394 29.419 125.436 29.5538 125.477 29.6925V29.702Z" fill="#9FBFFF"/>
<path d="M122.763 39.6859C122.455 39.4067 120.803 40.3544 121.865 41.1502C122.172 41.4294 123.783 40.3449 122.763 39.6859Z" fill="#9FBFFF"/>
<path d="M113.608 22.9973C113.536 23.1006 113.485 23.2173 113.458 23.3406C113.432 23.4639 113.43 23.5912 113.453 23.7152C113.358 23.8938 113.487 24.078 113.707 24.3097C113.886 24.4047 114.342 24.1919 114.533 23.8349C114.765 23.6165 114.997 23.3962 114.913 23.1246L115.002 23.172C115.318 23.2252 115.971 22.4313 115.943 21.8426L116.121 21.9375C116.209 21.985 116.482 21.9033 116.714 21.683C116.49 21.683 116.4 21.6298 116.174 21.6242C115.183 21.5501 114.82 21.5862 114.275 21.5254C114.302 21.5945 114.352 21.6517 114.417 21.6865C114.482 21.7214 114.558 21.7316 114.63 21.7153C114.439 22.008 114.335 22.3494 114.332 22.6991C114.168 22.7426 114.013 22.8153 113.874 22.9137C114.034 22.7414 114.149 22.5331 114.21 22.3066C114.272 22.0801 114.278 21.842 114.228 21.6128C113.973 21.6112 113.719 21.589 113.468 21.5463C113.052 21.8976 112.57 23.0144 113.608 22.9973Z" fill="#9FBFFF"/>
<path d="M127.53 39.1032C127.53 38.8107 127.544 38.4745 127.546 38.0928C127.335 38.3986 127.196 38.8981 127.53 39.1032Z" fill="#9FBFFF"/>
<path d="M122.682 42.6185C122.559 42.2083 120.576 42.064 121.085 43.251C121.208 43.6612 123.104 43.7581 122.682 42.6185Z" fill="#9FBFFF"/>
<path d="M127.551 35.9423V35.1921C127.491 35.3082 127.46 35.4368 127.46 35.5672C127.46 35.6977 127.491 35.8263 127.551 35.9423V35.9423Z" fill="#9FBFFF"/>
<path d="M118.492 37.3992C118.224 37.2567 116.935 38.1702 117.778 38.7286C118.133 38.9262 119.383 37.8759 118.492 37.3992Z" fill="#9FBFFF"/>
<path d="M118.702 39.5737C118.899 39.5907 119.094 39.5315 119.249 39.4084C119.467 39.6401 119.693 39.6458 120.062 39.3856C120.341 39.0761 119.756 37.3895 118.877 38.1777C118.804 38.3 118.769 38.4404 118.774 38.5823C118.453 38.7532 118.168 39.2869 118.702 39.5737V39.5737Z" fill="#9FBFFF"/>
<path d="M120.645 34.6603C120.913 34.8028 121.697 34.1931 121.758 33.6518C121.841 33.6807 121.929 33.6889 122.016 33.6757C122.103 33.6624 122.185 33.6282 122.255 33.5758C122.576 33.403 122.536 31.5512 121.496 32.0185C121.359 32.0602 121.209 32.554 121.334 32.9681C120.825 33.0403 119.714 34.0469 120.645 34.6603Z" fill="#9FBFFF"/>
<path d="M120.209 45.5304C120.564 45.7204 122.127 44.7251 121.107 44.0642C120.752 43.8743 119.104 44.822 120.209 45.5304Z" fill="#9FBFFF"/>
<path d="M121.583 30.1234C121.951 29.8632 121.414 28.0874 120.443 28.8281C120.077 29.0902 120.567 30.9552 121.583 30.1234Z" fill="#9FBFFF"/>
<path d="M121.546 49.4502C121.688 49.1824 120.729 47.9821 120.253 48.8805C120.199 49.1862 121.206 50.2992 121.546 49.4502Z" fill="#9FBFFF"/>
<path d="M109.418 31.0538C109.287 30.8639 108.746 30.8088 108.29 31.0234C108.201 30.976 108.201 30.976 108.064 31.0234C107.933 30.8335 107.511 31.4147 107.361 31.9085C107.082 32.2162 107.171 33.9806 108.18 33.3747C108.37 33.2456 108.37 32.7935 108.252 32.3833L108.442 32.0281C109.025 31.9921 109.843 31.7433 109.418 31.0538V31.0538Z" fill="#9FBFFF"/>
<path d="M98.1577 29.8402C98.5185 29.806 99.0674 27.9239 97.9336 28.1195C97.5708 28.1537 96.9346 29.9883 98.1577 29.8402Z" fill="#9FBFFF"/>
<path d="M98.9059 43.6329C99.261 43.8228 100.653 42.5066 99.6257 42.0717C99.2705 41.8818 97.7891 43.1505 98.9059 43.6329Z" fill="#9FBFFF"/>
<path d="M97.8768 26.9437C98.2319 27.1336 99.7589 25.7756 98.7333 25.3407C98.3763 25.1508 96.76 26.4613 97.8768 26.9437Z" fill="#9FBFFF"/>
<path d="M106.929 30.9853C107.108 31.0803 107.565 30.8676 107.845 30.5599L107.932 30.6074C108.242 30.8866 110.065 30.2598 109.277 29.3804C109.231 29.3489 109.18 29.3276 109.125 29.3181C109.071 29.3086 109.015 29.311 108.961 29.3254C109.018 29.2814 109.065 29.2263 109.099 29.1634C109.133 29.1005 109.154 29.0313 109.16 28.96C109.167 28.8887 109.158 28.8169 109.135 28.749C109.112 28.6812 109.076 28.6188 109.028 28.5657C109.129 28.163 108.798 27.069 108.156 27.4128C107.896 27.0444 105.913 26.9 106.47 27.9978C106.553 28.2713 107.634 28.3928 108.05 28.0415C108.047 28.1456 108.074 28.2484 108.128 28.3378C108.181 28.4272 108.259 28.4996 108.352 28.5467C108.12 28.767 107.839 29.0747 108.012 29.3956C107.607 29.2893 105.909 30.3244 106.929 30.9853V30.9853Z" fill="#9FBFFF"/>
<path d="M101.12 43.5587C101.57 43.5701 102.339 41.9215 101.211 41.8911C100.848 41.9253 99.9441 43.608 101.12 43.5587Z" fill="#9FBFFF"/>
<path d="M100.731 36.3678C100.328 36.2671 98.978 37.7201 100.277 38.0771C100.818 38.1322 101.943 36.6717 100.731 36.3678Z" fill="#9FBFFF"/>
<path d="M97.9297 24.9132C98.2374 25.1924 99.9733 24.5182 99.1357 23.7262C98.828 23.447 97.0522 23.9845 97.9297 24.9132Z" fill="#9FBFFF"/>
<path d="M110.871 22.3362C110.882 22.3428 110.895 22.3471 110.908 22.3486C110.922 22.3502 110.935 22.3491 110.948 22.3454C110.961 22.3417 110.972 22.3354 110.983 22.327C110.993 22.3185 111.002 22.3081 111.008 22.2963L111.097 22.3438C111.275 22.4388 111.868 22.1843 112.107 21.7379C112.128 21.6869 112.159 21.641 112.199 21.6033C112.239 21.5656 112.287 21.537 112.339 21.5195C111.745 21.7924 111.092 21.9138 110.44 21.8728L109.764 21.8538C109.845 22.1273 110.113 22.2697 110.523 22.1463C110.605 22.1919 110.645 22.3362 110.871 22.3362V22.3362Z" fill="#9FBFFF"/>
<path d="M99.7529 35.8438C100.108 36.0337 101.629 34.8942 100.562 34.3244C100.205 34.1421 98.5069 35.1791 99.7529 35.8438Z" fill="#9FBFFF"/>
<path d="M106.923 26.2906C107.325 26.3912 108.497 24.8433 107.424 24.4977C107.019 24.3951 105.758 25.8974 106.923 26.2906Z" fill="#9FBFFF"/>
<path d="M106.4 22.3477C106.176 22.3477 105.336 23.267 105.83 23.6411C105.372 23.8539 104.861 24.3819 105.484 24.7142C105.752 24.8567 106.947 24.1236 106.282 23.6525C106.603 23.4816 106.935 22.8586 106.628 22.5795C106.717 22.6269 106.717 22.6269 106.854 22.5795C106.983 22.7694 107.161 22.8586 107.482 22.6877C107.619 22.6459 107.672 22.5567 107.761 22.3781C107.866 22.305 107.946 22.2014 107.99 22.0815C108.033 21.9616 108.039 21.8311 108.006 21.7077C107.87 21.7495 107.691 21.6545 107.554 21.6963C107.139 21.6849 106.85 21.6412 106.628 21.6279H106.55C106.288 21.721 106.278 21.9432 106.4 22.3477V22.3477Z" fill="#9FBFFF"/>
<path d="M103.102 28.9381C103.123 29.0143 103.169 29.0812 103.233 29.128C103.275 29.2648 103.588 29.318 103.862 29.2363C103.801 29.7757 104.145 30.4176 104.834 29.9846C105.108 29.9029 105.09 28.864 104.694 28.5374C104.651 28.373 104.579 28.2179 104.481 28.0796C104.253 28.0145 104.015 27.9978 103.781 28.0305C103.546 28.0632 103.322 28.1446 103.121 28.2696C103.127 28.2579 103.132 28.2451 103.133 28.2318C103.134 28.2185 103.133 28.205 103.129 28.1922C103.125 28.1795 103.119 28.1676 103.11 28.1574C103.102 28.1472 103.091 28.1388 103.079 28.1328C103.394 28.186 104.006 27.2554 103.793 26.8033C104.245 26.8166 104.703 26.6039 104.583 25.9677C104.502 25.6942 104.014 25.546 103.558 25.5327C103.926 25.2725 104.128 24.6914 103.541 24.4938C103.364 24.3989 102.996 24.6591 102.851 24.9269C102.454 24.6002 101.962 24.4502 101.854 25.0788C101.712 25.3466 102.321 26.131 102.91 26.1025C102.952 26.2393 102.91 26.3285 102.944 26.4634C102.978 26.5982 102.986 26.6001 103.075 26.6533C102.875 26.84 102.715 27.0664 102.606 27.318C102.433 26.9971 100.534 27.1281 101.087 28.224C101.218 28.4139 101.757 28.469 102.215 28.2563C101.799 28.6057 101.465 29.2287 102.224 29.5212C101.767 29.7339 101.345 30.3094 102.01 30.7785C102.318 31.0577 104.017 30.0188 102.997 29.3616C102.952 29.3301 102.9 29.3088 102.846 29.2993C102.791 29.2898 102.736 29.2922 102.682 29.3066C102.864 29.2415 103.014 29.1098 103.102 28.9381V28.9381Z" fill="#9FBFFF"/>
<path d="M99.9895 25.5652C99.7654 25.5652 99.2526 26.0856 99.1937 26.6269C98.7417 26.6136 97.6439 27.1701 98.396 27.6886C98.5973 27.7109 98.8008 27.6792 98.9858 27.5968C99.1707 27.5143 99.3303 27.3841 99.4482 27.2195C99.4934 27.2507 99.5448 27.2719 99.5989 27.2814C99.653 27.2909 99.7085 27.2886 99.7616 27.2745C100.01 27.3353 100.476 26.7408 100.533 26.2337C100.558 26.3317 100.606 26.4221 100.674 26.4975C100.741 26.5728 100.826 26.6308 100.92 26.6665C101.015 26.7023 101.117 26.7147 101.217 26.7029C101.318 26.691 101.414 26.6552 101.498 26.5984C101.771 26.5167 101.748 25.7038 101.486 25.3354C101.54 25.3061 101.587 25.2649 101.623 25.2149C101.659 25.1648 101.683 25.1072 101.694 25.0465C101.704 24.9857 101.701 24.9234 101.683 24.8642C101.666 24.805 101.636 24.7505 101.594 24.7048C101.382 24.249 99.9743 24.5263 100.455 25.3506C100.43 25.5076 100.426 25.6673 100.443 25.8254C100.393 25.7502 100.325 25.6876 100.247 25.6425C100.168 25.5974 100.08 25.5709 99.9895 25.5652V25.5652Z" fill="#9FBFFF"/>
<path d="M74.2374 24.2202C74.4406 25.0312 74.1006 25.0901 74.1006 25.9011C74.1006 26.7709 74.3058 26.7709 74.3058 27.5819C74.3058 28.4518 73.8955 28.4518 73.8955 29.2628C73.8955 30.1326 74.0323 30.1326 74.0323 30.9436C74.0323 31.8116 74.509 31.8116 74.509 32.6245C74.509 33.4924 74.2374 33.4354 74.2374 34.3034C74.2374 35.1714 74.4406 35.1733 74.4406 35.9842C74.4406 36.8541 73.8271 36.8541 73.8271 37.6651C73.8271 38.5349 73.9639 38.5349 73.9639 39.3459V41.0268C73.9639 41.8966 74.2374 41.8966 74.2374 42.7076V44.3884C74.2374 45.2564 74.169 45.2564 74.169 46.0693C74.169 46.9372 74.3741 46.9372 74.3741 47.7482C74.3741 48.6181 73.8955 48.6181 73.8955 49.4291C73.8955 50.2989 74.1006 50.2989 74.1006 51.1099C74.1006 51.9798 74.3741 51.9798 74.3741 52.7908C74.3741 53.6606 73.8955 53.6606 73.8955 54.4716C73.8955 55.3415 74.169 55.3415 74.169 56.1524C74.169 57.0223 74.4425 57.0223 74.4425 57.8333C74.4425 58.7012 73.9639 58.7012 73.9639 59.5141V61.1931C73.9639 62.0629 74.2374 62.0629 74.2374 62.8739C74.2374 63.7438 74.3058 63.7438 74.3058 64.5548V67.9183C74.3058 68.7882 74.0323 68.7882 74.0323 69.5992V71.28C74.0323 72.148 74.3741 72.148 74.3741 72.9609C74.3741 73.8288 73.8271 73.8288 73.8271 74.6398C73.8271 75.5097 74.1006 75.5097 74.1006 76.3206C74.1006 77.1905 74.3741 77.1905 74.3741 78.0015C74.3741 78.8713 73.8955 78.8713 73.8955 79.6823V81.3632C73.8955 82.233 74.3058 82.233 74.3058 83.044V84.7248C74.3058 85.5928 74.2374 85.5928 74.2374 86.4057C74.2374 87.2736 74.3741 87.2737 74.3741 88.0865C74.3741 88.9545 74.5109 88.9545 74.5109 89.7655C74.5109 90.6353 73.8955 90.6353 73.8955 91.4463C73.8955 92.3162 74.4425 92.3162 74.4425 93.1272C74.4425 93.997 74.0323 93.997 74.0323 94.808C74.0323 95.6779 74.4425 95.6779 74.4425 96.4888C74.4425 97.3587 73.8955 97.3587 73.8955 98.1697C73.8955 99.0376 74.3741 99.0376 74.3741 99.8505V101.535C74.3741 102.403 74.169 102.403 74.169 103.214C74.169 104.084 74.4425 104.084 74.4425 104.895C74.4425 105.765 74.0323 105.765 74.0323 106.576C74.0323 107.446 74.3741 107.446 74.3741 108.257C74.3741 109.126 74.0323 109.126 74.0323 109.937V111.618C74.0323 112.486 74.3058 112.486 74.3058 113.299C74.3058 114.167 74.169 114.167 74.169 114.98C74.169 115.848 74.1006 115.848 74.1006 116.659C74.1006 117.529 74.2374 117.529 74.2374 118.34C74.2374 119.21 74.4425 119.21 74.4425 120.021C74.4425 120.89 74.2374 120.89 74.2374 121.701V123.377C74.2374 124.246 74.5109 124.246 74.5109 125.057C74.5109 125.925 73.9639 125.925 73.9639 126.738C73.9639 127.606 74.1006 127.606 74.1006 128.419C74.1006 129.287 74.3741 129.287 74.3741 130.098C74.3741 130.968 74.4425 130.968 74.4425 131.779C74.4425 132.649 73.4929 132.996 74.169 133.576C74.4775 133.876 74.8882 134.049 75.3189 134.06C75.7495 134.071 76.1685 133.919 76.4918 133.634C77.1736 133.055 76.1499 132.59 76.1499 131.779C76.1499 130.911 76.6267 130.911 76.6267 130.098C76.6267 129.23 76.0132 129.23 76.0132 128.419C76.0132 127.549 76.3551 127.549 76.3551 126.738C76.3551 125.868 76.2183 125.868 76.2183 125.057C76.2183 124.188 76.1499 124.188 76.1499 123.377C76.1499 122.507 76.0816 122.566 76.0816 121.696C76.0816 120.826 76.2183 120.826 76.2183 120.015C76.2183 119.145 76.6267 119.145 76.6267 118.334C76.6267 117.466 76.2867 117.466 76.2867 116.653C76.2867 115.785 76.4918 115.785 76.4918 114.974C76.4918 114.104 76.6267 114.104 76.6267 113.293C76.6267 112.424 76.695 112.424 76.695 111.613C76.695 110.743 76.2867 110.743 76.2867 109.932C76.2867 109.062 76.2183 109.062 76.2183 108.251C76.2183 107.381 76.3551 107.381 76.3551 106.57V104.889C76.3551 104.021 76.1499 104.021 76.1499 103.208C76.1499 102.34 76.0816 102.34 76.0816 101.528C76.0816 100.66 76.3551 100.66 76.3551 99.8486C76.3551 98.9788 76.1499 98.9788 76.1499 98.1678V96.4869C76.1499 95.6171 76.2183 95.6171 76.2183 94.8061C76.2183 93.9362 76.695 93.9362 76.695 93.1253C76.695 92.2554 76.2867 92.2554 76.2867 91.4444C76.2867 90.5765 76.0816 90.5765 76.0816 89.7636C76.0816 88.8956 76.695 88.8956 76.695 88.0846C76.695 87.2148 76.1499 87.2148 76.1499 86.4038C76.1499 85.5339 76.2183 85.5339 76.2183 84.723C76.2183 83.8531 76.5583 83.8531 76.5583 83.0421C76.5583 82.1722 76.3532 82.1722 76.3532 81.3613C76.3532 80.4914 76.2867 80.4914 76.2867 79.6804C76.2867 78.8106 76.4899 78.8106 76.4899 77.9996C76.4899 77.1316 76.5583 77.1316 76.5583 76.3187C76.5583 75.4508 76.6267 75.4508 76.6267 74.6379C76.6267 73.7699 76.0132 73.7699 76.0132 72.959C76.0132 72.0891 76.3532 72.0891 76.3532 71.2781C76.3532 70.4083 76.1499 70.4083 76.1499 69.5973C76.1499 68.7274 76.0132 68.7274 76.0132 67.9164C76.0132 67.0466 76.6267 67.0466 76.6267 66.2356V64.5548C76.6267 63.6868 76.2867 63.6868 76.2867 62.8739C76.2867 62.0059 76.2183 62.0059 76.2183 61.1931C76.2183 60.3251 76.5583 60.3251 76.5583 59.5141C76.5583 58.6443 76.4215 58.6443 76.4215 57.8333C76.4215 56.9634 76.5583 56.9634 76.5583 56.1524C76.5583 55.2826 76.6267 55.2826 76.6267 54.4716C76.6267 53.6017 76.0132 53.6017 76.0132 52.7908C76.0132 51.9209 76.3532 51.9209 76.3532 51.1099C76.3532 50.242 76.5583 50.242 76.5583 49.4291C76.5583 48.5611 76.2183 48.5611 76.2183 47.7482C76.2183 46.8803 76.6267 46.8803 76.6267 46.0693C76.6267 45.1994 76.0816 45.1994 76.0816 44.3884C76.0816 43.5186 76.2183 43.5186 76.2183 42.7076C76.2183 41.8377 76.5583 41.8377 76.5583 41.0268V39.3459C76.5583 38.4761 76.2183 38.4761 76.2183 37.6651C76.2183 36.7971 76.695 36.7971 76.695 35.9842C76.695 35.1163 76.0132 35.1163 76.0132 34.3034C76.0132 33.4354 76.6267 33.4354 76.6267 32.6245C76.6267 31.7546 76.3532 31.7546 76.3532 30.9436C76.3532 30.0738 76.1499 30.0738 76.1499 29.2628C76.1499 28.3929 76.3532 28.3929 76.3532 27.5819C76.3532 26.7121 76.5583 26.7121 76.5583 25.9011C76.5583 25.0312 76.0132 25.0312 76.0132 24.2202C76.0132 23.4093 77.242 22.9458 76.5583 22.3666C75.8081 21.7284 75.056 22.019 74.3039 22.5983C73.5518 23.1776 74.1006 23.3504 74.2374 24.2202V24.2202Z" fill="#2B292D"/>
<path d="M26.2301 45.0474C26.9708 44.8423 27.0221 45.1841 27.7628 45.1841C28.5548 45.1841 28.5548 44.979 29.2955 44.979C30.0875 44.979 30.0875 45.3893 30.8282 45.3893C31.6202 45.3893 31.6202 45.2525 32.3609 45.2525C33.1529 45.2525 33.1529 44.7739 33.8917 44.7739C34.6856 44.7739 34.6324 45.0474 35.4244 45.0474C36.2164 45.0474 36.2183 44.8423 36.9571 44.8423C37.751 44.8423 37.751 45.4576 38.4898 45.4576C39.2818 45.4576 39.2818 45.3209 40.0225 45.3209H41.5552C42.3472 45.3209 42.3472 45.0474 43.0879 45.0474H44.6206C45.4126 45.0474 45.4126 45.1158 46.1533 45.1158C46.9453 45.1158 46.9453 44.9106 47.6841 44.9106C48.478 44.9106 48.478 45.3893 49.2168 45.3893C50.0107 45.3893 50.0107 45.1841 50.7495 45.1841C51.5434 45.1841 51.5434 44.9106 52.2822 44.9106C53.0742 44.9106 53.0742 45.3893 53.8149 45.3893C54.6069 45.3893 54.6069 45.1158 55.3476 45.1158C56.1396 45.1158 56.1396 44.8423 56.8803 44.8423C57.6723 44.8423 57.6723 45.3209 58.413 45.3209H59.9457C60.7377 45.3209 60.7377 45.0474 61.4765 45.0474C62.2704 45.0474 62.2704 44.979 63.0092 44.979H66.0746C66.8666 44.979 66.8666 45.2525 67.6073 45.2525H69.14C69.932 45.2525 69.932 44.9106 70.6727 44.9106C71.4647 44.9106 71.4647 45.4576 72.2054 45.4576C72.9974 45.4576 72.9974 45.1841 73.7381 45.1841C74.5301 45.1841 74.5301 44.9106 75.2689 44.9106C76.0628 44.9106 76.0628 45.3893 76.8016 45.3893H78.3343C79.1263 45.3893 79.1263 44.979 79.867 44.979H81.3997C82.1917 44.979 82.1917 45.0474 82.9324 45.0474C83.7244 45.0474 83.7244 44.9106 84.4651 44.9106C85.2571 44.9106 85.2571 44.7739 85.9978 44.7739C86.7898 44.7739 86.7898 45.3893 87.5305 45.3893C88.3225 45.3893 88.3225 44.8423 89.0613 44.8423C89.8552 44.8423 89.8552 45.2525 90.594 45.2525C91.3879 45.2525 91.3879 44.8423 92.1267 44.8423C92.9187 44.8423 92.9187 45.3893 93.6594 45.3893C94.4514 45.3893 94.4514 44.9106 95.1921 44.9106H96.7248C97.5168 44.9106 97.5168 45.1158 98.2575 45.1158C99.0495 45.1158 99.0495 44.8423 99.7902 44.8423C100.582 44.8423 100.582 45.2525 101.321 45.2525C102.115 45.2525 102.115 44.9106 102.854 44.9106C103.648 44.9106 103.648 45.2525 104.386 45.2525H105.919C106.711 45.2525 106.711 44.979 107.452 44.979C108.244 44.979 108.244 45.1158 108.984 45.1158C109.776 45.1158 109.776 45.1841 110.517 45.1841C111.309 45.1841 111.309 45.0474 112.05 45.0474C112.842 45.0474 112.842 44.8423 113.583 44.8423C114.375 44.8423 114.375 45.0474 115.113 45.0474H116.635C117.429 45.0474 117.429 44.7739 118.167 44.7739C118.959 44.7739 118.959 45.3209 119.7 45.3209C120.492 45.3209 120.492 45.1841 121.233 45.1841C122.025 45.1841 122.025 44.9106 122.765 44.9106C123.557 44.9106 123.557 44.8423 124.298 44.8423C125.09 44.8423 125.407 45.7919 125.935 45.1158C126.212 44.7947 126.368 44.3876 126.378 43.9639C126.388 43.5402 126.25 43.1264 125.989 42.793C125.461 42.1111 125.039 43.1348 124.298 43.1348C123.504 43.1348 123.504 42.6562 122.765 42.6562C121.972 42.6562 121.972 43.2716 121.233 43.2716C120.441 43.2716 120.441 42.9297 119.7 42.9297C118.908 42.9297 118.908 43.0665 118.167 43.0665C117.375 43.0665 117.375 43.1348 116.635 43.1348C115.843 43.1348 115.896 43.2032 115.102 43.2032C114.308 43.2032 114.31 43.0665 113.569 43.0665C112.777 43.0665 112.777 42.6562 112.038 42.6562C111.245 42.6562 111.245 42.9981 110.506 42.9981C109.712 42.9981 109.712 42.793 108.973 42.793C108.179 42.793 108.179 42.6562 107.44 42.6562C106.648 42.6562 106.648 42.5879 105.908 42.5879C105.116 42.5879 105.116 42.9981 104.375 42.9981C103.583 42.9981 103.583 43.0665 102.842 43.0665C102.05 43.0665 102.05 42.9297 101.31 42.9297H99.7788C98.9849 42.9297 98.9849 43.1348 98.2461 43.1348C97.4522 43.1348 97.4522 43.2032 96.7134 43.2032C95.9195 43.2032 95.9195 42.9297 95.1807 42.9297C94.3887 42.9297 94.3887 43.1348 93.648 43.1348H92.1153C91.3233 43.1348 91.3233 43.0665 90.5826 43.0665C89.7906 43.0665 89.7906 42.5879 89.0499 42.5879C88.2579 42.5879 88.2579 42.9981 87.5172 42.9981C86.7252 42.9981 86.7252 43.2032 85.9864 43.2032C85.1925 43.2032 85.1925 42.5879 84.4537 42.5879C83.6598 42.5879 83.6598 43.1348 82.921 43.1348C82.1271 43.1348 82.1271 43.0665 81.3883 43.0665C80.5963 43.0665 80.5963 42.7246 79.8556 42.7246C79.0636 42.7246 79.0636 42.9297 78.3229 42.9297C77.5309 42.9297 77.5309 42.9981 76.7902 42.9981C75.9982 42.9981 75.9982 42.793 75.2575 42.793C74.4655 42.793 74.4655 42.7246 73.7248 42.7246C72.9328 42.7246 72.9328 42.6562 72.194 42.6562C71.4001 42.6562 71.4001 43.2716 70.6613 43.2716C69.8674 43.2716 69.8674 42.9297 69.1286 42.9297C68.3347 42.9297 68.3347 43.1348 67.5959 43.1348C66.8039 43.1348 66.8039 43.2716 66.0632 43.2716C65.2712 43.2716 65.2712 42.6562 64.5305 42.6562H62.9978C62.2058 42.6562 62.2058 42.9981 61.4651 42.9981C60.6731 42.9981 60.6731 43.0665 59.9343 43.0665C59.1404 43.0665 59.1404 42.7246 58.4016 42.7246C57.6077 42.7246 57.6077 42.8613 56.8689 42.8613C56.075 42.8613 56.075 42.7246 55.3362 42.7246C54.5442 42.7246 54.5442 42.6562 53.8035 42.6562C53.0115 42.6562 53.0115 43.2716 52.2708 43.2716C51.4788 43.2716 51.4788 42.9297 50.7381 42.9297C49.9461 42.9297 49.9461 42.7246 49.2054 42.7246C48.4134 42.7246 48.4134 43.0665 47.6727 43.0665C46.8807 43.0665 46.8807 42.6562 46.1419 42.6562C45.348 42.6562 45.348 43.2032 44.6092 43.2032C43.8153 43.2032 43.8153 43.0665 43.0765 43.0665C42.2826 43.0665 42.2826 42.7246 41.5438 42.7246H40.0187C39.2267 42.7246 39.2267 43.0665 38.486 43.0665C37.694 43.0665 37.694 42.5898 36.9533 42.5898C36.1613 42.5898 36.1613 43.2716 35.4206 43.2716C34.6286 43.2716 34.6286 42.6562 33.8879 42.6562C33.0959 42.6562 33.0959 42.9297 32.3571 42.9297C31.5632 42.9297 31.5632 43.1348 30.8244 43.1348C30.0305 43.1348 30.0305 42.9297 29.2917 42.9297C28.4978 42.9297 28.4978 42.7246 27.759 42.7246C26.967 42.7246 26.967 43.2716 26.2263 43.2716C25.4856 43.2716 25.064 42.0428 24.536 42.7246C23.9548 43.4843 24.2188 44.2288 24.7468 44.979C25.2748 45.7292 25.4343 45.1841 26.2301 45.0474V45.0474Z" fill="#2B292D"/>
</g>
<defs>
<clipPath id="clip0_418_326">
<rect width="105.821" height="134.072" fill="white" transform="translate(22.4307 2.96387)"/>
</clipPath>
</defs>
</svg>
