<svg width="151" height="140" viewBox="0 0 151 140" fill="none" xmlns="http://www.w3.org/2000/svg">
<g clip-path="url(#clip0_530_33)">
<path d="M132.874 92.9367C127.924 90.9481 124.014 86.331 124.498 80.7947C124.977 75.3122 129.913 72.5497 134.283 69.9218C134.343 69.9009 134.403 69.8767 134.46 69.8493L135.732 69.2428C136.069 69.0875 136.362 68.8511 136.584 68.555C136.713 68.5481 136.839 68.541 136.968 68.5404C136.993 67.6922 137.009 66.8527 137.017 66.022C137.05 63.2084 137.212 60.1839 135.512 57.7608C134.066 55.7094 131.655 54.7499 129.23 54.4175C128.094 54.2716 126.949 54.2108 125.804 54.2356C125.194 53.9135 124.524 53.7174 123.836 53.6594C122.048 53.5087 122.089 53.1138 120.419 52.9744C118.637 52.805 118.654 52.6217 116.985 52.479C115.197 52.3283 115.072 53.5126 113.402 53.37C111.615 53.2193 111.593 53.415 109.924 53.2724C108.133 53.1214 108.177 52.7268 106.507 52.5874L103.047 52.2937C101.257 52.1428 101.194 52.7333 99.5242 52.597C97.7367 52.4463 97.7149 52.642 96.0452 52.5025C94.2546 52.3516 94.3392 51.5621 92.6727 51.4229C90.8821 51.272 90.8198 51.8594 89.1496 51.7262L85.6895 51.4326C83.9021 51.2819 83.9207 51.0859 82.2513 50.9433C80.4702 50.7932 80.6139 49.4161 78.9445 49.2734C77.1538 49.1225 77.0317 50.3071 75.3623 50.1644C73.5716 50.0134 73.5123 50.6043 71.8423 50.468C70.0548 50.3173 70.2393 48.5453 68.5696 48.4058C66.7821 48.2552 66.6178 49.8153 64.9469 49.6885C63.1595 49.5378 63.1784 49.3387 61.5087 49.1992C59.7181 49.0482 59.8213 48.0628 58.1516 47.9233C56.361 47.7723 56.3016 48.3632 54.6316 48.2269C52.841 48.0759 52.8192 48.2716 51.1527 48.1324C49.3615 47.9877 49.4379 47.3858 47.745 47.2536C46.0221 47.2686 45.7153 47.1852 44.5306 47.5862C43.5668 47.3384 42.5587 47.3141 41.5844 47.5153C40.6102 47.7164 39.6959 48.1376 38.9123 48.7463C36.6759 50.4478 35.6717 53.1754 34.7818 55.7129C34.1911 57.424 33.6477 59.1544 33.1517 60.9043L33.2408 60.9127C33.0304 62.0794 33.6258 63.3513 35.1592 63.4044C41.2929 63.6139 43.8836 72.1122 43.4939 77.0929C43.4565 77.5874 43.3936 78.0797 43.3056 78.5678C42.6365 80.1795 41.646 81.6396 40.3935 82.8604C39.1411 84.0812 37.6527 85.0374 36.0178 85.6715C34.9199 85.7216 33.8232 85.5435 32.798 85.1487C31.4382 84.6208 30.3598 85.4243 29.9741 86.4754L29.9231 86.4705L29.929 86.6114C29.76 87.1363 29.7847 87.704 29.9985 88.213C30.0983 89.8982 30.2916 91.5767 30.5775 93.241C31.0405 95.872 32.1277 98.492 34.3584 100.13C36.4613 101.66 39.2197 102.104 41.5721 100.94C41.9404 101.135 42.3429 101.259 42.7579 101.304C44.5485 101.455 44.5893 101.06 46.2587 101.203C48.0493 101.354 48.0086 101.749 49.6751 101.888C51.4625 102.039 51.4436 102.238 53.1133 102.377C54.1223 102.473 54.6197 101.937 55.1634 101.488L58.7842 101.745C59.183 102 59.6415 102.148 60.1148 102.175C61.9023 102.325 61.8426 102.92 63.5123 103.059C65.303 103.21 65.403 102.224 67.0724 102.367C68.8631 102.518 68.7412 103.699 70.4074 103.842C71.706 103.965 72.1494 103.152 72.9384 102.758L76.0201 102.978C76.4833 103.122 76.9621 103.211 77.4464 103.244C79.2371 103.395 79.137 104.381 80.8035 104.52L84.2636 104.813C86.0542 104.964 86.1572 103.982 87.8268 104.122C89.6143 104.272 89.4735 105.653 91.1397 105.795C92.5625 105.93 92.985 104.695 93.9382 104.262L95.6801 104.386C96.5923 104.926 96.7458 106.082 98.0787 106.183C99.8693 106.334 99.9508 105.545 101.62 105.687C103.411 105.838 103.47 105.247 105.14 105.384C106.931 105.535 106.868 106.125 108.538 106.268C110.328 106.419 110.266 107.009 111.935 107.152C113.726 107.303 113.888 105.727 115.558 105.866C117.228 106.006 117.815 109.628 119.209 107.767C119.564 107.288 119.832 106.753 120.002 106.183L120.419 106.223C120.533 106.721 120.723 107.199 120.981 107.641C121.985 108.974 122.914 107.579 124.065 106.282C126.839 106.16 129.342 105.265 131.188 103.109C132.849 101.177 133.572 98.6395 134.092 96.2041C134.24 95.4972 134.378 94.7894 134.5 94.0769L134.025 93.968C133.786 93.4926 133.375 93.1243 132.874 92.9367V92.9367Z" fill="#3040C4"/>
<path d="M108.556 60.8744C108.26 60.8951 107.984 61.0294 107.787 61.249C107.59 61.4685 107.487 61.7559 107.5 62.0501L107.427 64.544C107.445 64.8389 107.579 65.1149 107.801 65.3117C108.023 65.5085 108.315 65.6101 108.612 65.5944C108.907 65.573 109.182 65.4384 109.379 65.219C109.576 64.9996 109.68 64.7127 109.667 64.4187L109.741 61.9248C109.723 61.6299 109.588 61.3539 109.366 61.1571C109.144 60.9603 108.853 60.8587 108.556 60.8744V60.8744Z" fill="#2B292D"/>
<path d="M106.602 91.9496C105.167 91.8132 104.953 94.0258 106.392 94.1625C107.831 94.2992 108.038 92.0859 106.602 91.9496Z" fill="#2B292D"/>
<path d="M108.853 57.7418C107.421 57.6057 107.208 59.8184 108.643 59.9548C110.079 60.0911 110.302 57.8794 108.853 57.7418Z" fill="#2B292D"/>
<path d="M107.197 82.2357C105.762 82.0993 105.549 84.312 106.987 84.4486C108.426 84.5853 108.633 82.3721 107.197 82.2357Z" fill="#2B292D"/>
<path d="M108.185 86.9198C108.269 85.4955 106.042 85.2775 105.957 86.7081L105.804 89.2997C105.72 90.724 107.947 90.9451 108.032 89.5114L108.185 86.9198Z" fill="#2B292D"/>
<path d="M107.273 99.3341C107.331 98.5135 107.387 97.6926 107.445 96.8752C107.545 95.4493 105.312 95.2913 105.211 96.7236L105.039 99.1825C104.94 100.599 107.172 100.763 107.273 99.3341Z" fill="#2B292D"/>
<path d="M109.022 75.1743C109.08 74.3569 109.136 73.536 109.194 72.7154C109.294 71.2894 107.061 71.1347 106.96 72.5637L106.788 75.0227C106.688 76.4486 108.921 76.6065 109.022 75.1743Z" fill="#2B292D"/>
<path d="M108.605 79.6932L108.623 78.9293C108.61 78.7861 108.569 78.6469 108.501 78.5195C108.434 78.3922 108.342 78.2792 108.231 78.1871C108.118 78.0927 107.988 78.0212 107.848 77.9768C107.708 77.9323 107.56 77.9159 107.414 77.9283C107.267 77.9408 107.125 77.9819 106.994 78.0494C106.864 78.1168 106.748 78.2092 106.654 78.3212L106.496 78.5614C106.411 78.7437 106.377 78.9452 106.396 79.1452C106.391 79.3999 106.383 79.6544 106.375 79.9088C106.404 80.1978 106.546 80.4642 106.77 80.6513C107.002 80.8413 107.301 80.9327 107.6 80.9056C107.89 80.8775 108.158 80.7382 108.347 80.5172C108.399 80.4361 108.452 80.3549 108.502 80.2735C108.589 80.0932 108.625 79.8925 108.605 79.6932V79.6932Z" fill="#2B292D"/>
<path d="M107.041 103.424L107.005 102.661C106.979 102.517 106.925 102.38 106.846 102.257C106.766 102.134 106.664 102.027 106.543 101.943C106.422 101.86 106.286 101.8 106.143 101.769C105.999 101.737 105.851 101.734 105.706 101.76C105.419 101.812 105.164 101.971 104.992 102.205L104.856 102.457C104.784 102.644 104.764 102.848 104.8 103.045C104.811 103.301 104.826 103.555 104.837 103.808C104.887 104.095 105.048 104.35 105.286 104.52C105.533 104.693 105.838 104.762 106.135 104.713C106.422 104.661 106.677 104.501 106.849 104.267L106.985 104.012C107.058 103.825 107.077 103.621 107.041 103.424V103.424Z" fill="#2B292D"/>
<path d="M110.027 55.5248L109.99 54.7621C109.965 54.6182 109.911 54.4808 109.831 54.3576C109.752 54.2344 109.649 54.1278 109.529 54.0441C109.408 53.9604 109.272 53.901 109.129 53.8695C108.985 53.838 108.837 53.8349 108.692 53.8604C108.405 53.9123 108.149 54.072 107.978 54.3062L107.842 54.558C107.77 54.7452 107.75 54.9485 107.786 55.146C107.797 55.4022 107.811 55.6556 107.823 55.9087C107.873 56.1953 108.034 56.4512 108.272 56.6212C108.519 56.7935 108.824 56.8626 109.121 56.8135C109.408 56.7625 109.664 56.6027 109.835 56.3678C109.881 56.2829 109.928 56.198 109.971 56.1128C110.044 55.9256 110.063 55.7222 110.027 55.5248V55.5248Z" fill="#2B292D"/>
<path d="M109.449 68.612L109.409 67.8458C109.358 67.5604 109.197 67.3059 108.96 67.1364C108.718 66.9648 108.418 66.8951 108.125 66.9426C107.833 66.9901 107.571 67.151 107.397 67.3899L107.261 67.6417C107.189 67.8289 107.169 68.0322 107.205 68.2297C107.219 68.4862 107.23 68.7393 107.245 68.9959C107.295 69.2808 107.455 69.5352 107.691 69.705C107.938 69.8773 108.243 69.9463 108.54 69.8972C108.828 69.8472 109.084 69.6872 109.254 69.4515L109.393 69.2C109.462 69.0121 109.482 68.8095 109.449 68.612Z" fill="#2B292D"/>
</g>
<g clip-path="url(#clip1_530_33)">
<path d="M113.399 67.9461C108.106 67.2837 103.149 63.8146 102.208 58.3376C101.275 52.9139 105.344 48.9855 108.901 45.3312C108.954 45.2956 109.005 45.2571 109.053 45.216L110.129 44.3056C110.415 44.0696 110.638 43.7664 110.778 43.4235C110.901 43.3839 111.021 43.3449 111.145 43.3117C110.953 42.485 110.755 41.669 110.552 40.8636C109.867 38.1345 109.253 35.1684 106.992 33.2581C105.071 31.6428 102.495 31.3289 100.065 31.6251C98.9298 31.7733 97.807 32.0062 96.7063 32.3217C96.0339 32.1657 95.3364 32.1467 94.6558 32.2658C92.8889 32.5754 92.8277 32.1832 91.1776 32.4735C89.4108 32.7637 89.3809 32.582 87.7302 32.8692C85.9633 33.1787 86.1437 34.3559 84.4931 34.6431C82.7262 34.9527 82.7549 35.1475 81.1043 35.4347C79.3342 35.7447 79.2762 35.352 77.626 35.6424L74.2053 36.2396C72.4353 36.5497 72.5252 37.1367 70.8756 37.4302C69.1087 37.7397 69.1374 37.9345 67.4873 38.2249C65.7172 38.5349 65.598 37.75 63.951 38.0398C62.181 38.3499 62.2704 38.9337 60.6213 39.2304L57.2006 39.8276C55.4337 40.1372 55.4018 39.9429 53.7511 40.2301C51.9905 40.5386 51.7787 39.1703 50.128 39.4575C48.358 39.7676 48.5415 40.9442 46.8909 41.2314C45.1208 41.5415 45.2139 42.128 43.5643 42.4215C41.7974 42.731 41.5244 40.9705 39.8743 41.2608C38.1074 41.5704 38.3459 43.1209 36.6978 43.4238C34.9309 43.7334 34.8985 43.536 33.2483 43.8263C31.4783 44.1364 31.3271 43.1571 29.677 43.4475C27.9069 43.7575 28 44.344 26.3504 44.6375C24.5803 44.9476 24.6091 45.1424 22.9621 45.4322C21.1931 45.7485 21.1137 45.1469 19.443 45.4503C17.7807 45.9035 17.4628 45.9011 16.4193 46.5906C15.4241 46.5964 14.4431 46.8296 13.5522 47.2723C12.6613 47.715 11.8844 48.3551 11.2817 49.1433C9.55238 51.3582 9.27593 54.2517 9.06171 56.9321C8.92618 58.7372 8.84143 60.549 8.80746 62.3675L8.89581 62.353C8.98948 63.5347 9.88914 64.613 11.3855 64.2739C17.3703 62.9144 22.0399 70.4726 22.9316 75.3883C23.0214 75.876 23.086 76.3681 23.1252 76.8625C22.8886 78.5915 22.3026 80.2557 21.4024 81.7552C20.5022 83.2548 19.3063 84.5585 17.8869 85.5881C16.8379 85.9161 15.732 86.0232 14.64 85.9025C13.1906 85.7383 12.3524 86.79 12.2472 87.9046L12.1967 87.9129L12.2382 88.0477C12.2085 88.5983 12.3769 89.141 12.7133 89.5787C13.239 91.1829 13.8534 92.7569 14.5537 94.2935C15.6716 96.7198 17.3902 98.9766 19.9645 99.9922C22.3876 100.936 25.1682 100.663 27.1465 98.938C27.5525 99.0334 27.9732 99.0506 28.3861 98.9887C30.1561 98.6786 30.0949 98.2864 31.7456 97.9992C33.5157 97.6891 33.5768 98.0813 35.2238 97.7915C36.9907 97.482 37.0232 97.6794 38.6733 97.389C39.6735 97.2247 40.0178 96.5793 40.4292 96.0064L43.9963 95.3337C44.4469 95.4787 44.9279 95.505 45.3924 95.41C47.1593 95.1005 47.2529 95.6901 48.903 95.3998C50.6731 95.0897 50.5188 94.111 52.1695 93.8238C53.9395 93.5138 54.1225 94.6873 55.77 94.4006C57.0573 94.1891 57.279 93.2902 57.9417 92.7083L60.9776 92.1357C61.4624 92.1573 61.9481 92.1218 62.4248 92.0299C64.1948 91.7198 64.3491 92.6985 65.9961 92.4087L69.4168 91.8114C71.1869 91.5014 71.0363 90.5253 72.6864 90.2349C74.4533 89.9254 74.6688 91.2963 76.3163 91.0096C77.7266 90.778 77.8204 89.4753 78.632 88.8142L80.348 88.4905C81.3676 88.78 81.8106 89.8594 83.1253 89.6177C84.8953 89.3076 84.773 88.5232 86.4236 88.236C88.1937 87.9259 88.1006 87.3394 89.7502 87.0459C91.5203 86.7359 91.6102 87.3229 93.2609 87.0357C95.0309 86.7256 95.1209 87.3126 96.7715 87.0254C98.5416 86.7154 98.2974 85.1496 99.9475 84.8593C101.598 84.5689 103.088 87.922 103.962 85.7671C104.183 85.2144 104.306 84.628 104.326 84.034L104.739 83.9661C104.976 84.4187 105.282 84.8329 105.644 85.1948C106.954 86.2282 107.497 84.6426 108.28 83.0948C110.931 82.27 113.124 80.7673 114.36 78.2119C115.474 75.921 115.527 73.2831 115.41 70.7954C115.372 70.0743 115.325 69.3547 115.262 68.6346L114.775 68.6501C114.423 68.2514 113.931 68 113.399 67.9461V67.9461Z" fill="#F8CF61"/>
<path d="M81.718 43.1345C81.4374 43.2297 81.205 43.4298 81.0702 43.6924C80.9354 43.9549 80.9089 44.2591 80.9964 44.5402L81.5608 46.9705C81.6532 47.2511 81.8537 47.4838 82.1186 47.6175C82.3834 47.7513 82.691 47.7754 82.9741 47.6845C83.2542 47.5886 83.4862 47.3883 83.6208 47.126C83.7555 46.8637 83.7824 46.5599 83.6958 46.2787L83.1314 43.8484C83.039 43.5678 82.8384 43.3352 82.5736 43.2014C82.3088 43.0676 82.0012 43.0436 81.718 43.1345V43.1345Z" fill="#2B292D"/>
<path d="M87.7432 73.6824C86.3203 73.9161 86.6774 76.1102 88.1035 75.8759C89.5296 75.6417 89.1661 73.4487 87.7432 73.6824Z" fill="#2B292D"/>
<path d="M81.2081 40.029C79.7883 40.2622 80.1455 42.4562 81.5684 42.2225C82.9913 41.9888 82.6436 39.7932 81.2081 40.029Z" fill="#2B292D"/>
<path d="M85.8447 64.137C84.4218 64.3707 84.779 66.5648 86.205 66.3305C87.6311 66.0963 87.2677 63.9033 85.8447 64.137Z" fill="#2B292D"/>
<path d="M87.9925 68.4151C87.7109 67.0165 85.5013 67.373 85.7839 68.7779L86.2959 71.323C86.5775 72.7217 88.7876 72.3683 88.5045 70.9602L87.9925 68.4151Z" fill="#2B292D"/>
<path d="M90.2717 80.6528C90.1194 79.8443 89.964 79.0363 89.8123 78.231C89.546 76.8266 87.3462 77.2426 87.6135 78.6533L88.0729 81.0751C88.3377 82.4701 90.5385 82.0603 90.2717 80.6528Z" fill="#2B292D"/>
<path d="M85.8101 56.844C85.6583 56.0387 85.5029 55.2307 85.3507 54.4222C85.0844 53.0178 82.8851 53.437 83.1519 54.8445L83.6113 57.2663C83.8776 58.6707 86.0774 58.2547 85.8101 56.844Z" fill="#2B292D"/>
<path d="M86.558 61.3198L86.3809 60.5766C86.3319 60.4414 86.2564 60.3173 86.159 60.2113C86.0615 60.1052 85.9438 60.0194 85.8128 59.9587C85.6801 59.896 85.5362 59.8599 85.3893 59.8527C85.2424 59.8454 85.0954 59.8671 84.9569 59.9165C84.8184 59.9659 84.691 60.042 84.582 60.1404C84.4731 60.2388 84.3847 60.3576 84.3221 60.49L84.2308 60.7624C84.195 60.9603 84.2128 61.1639 84.2824 61.3525C84.3425 61.6001 84.3994 61.8482 84.4563 62.0963C84.5583 62.3684 84.7633 62.5899 85.0276 62.7137C85.3007 62.8383 85.6124 62.8507 85.8951 62.7482C86.1688 62.6471 86.3923 62.4442 86.5183 62.1824C86.5486 62.0905 86.5788 61.9987 86.6059 61.9073C86.6446 61.7107 86.628 61.5075 86.558 61.3198V61.3198Z" fill="#2B292D"/>
<path d="M91.0894 84.6663L90.8596 83.9382C90.7981 83.8056 90.7109 83.6864 90.603 83.5874C90.495 83.4885 90.3684 83.4117 90.2305 83.3614C90.0925 83.3111 89.9459 83.2884 89.7989 83.2945C89.652 83.3006 89.5077 83.3354 89.3742 83.3969C89.1101 83.5202 88.9036 83.7397 88.7976 84.0098L88.7299 84.288C88.7077 84.4874 88.7408 84.689 88.8257 84.8708C88.9016 85.1158 88.9801 85.3571 89.0554 85.599C89.177 85.8634 89.3982 86.0697 89.6715 86.1736C89.954 86.2774 90.2664 86.2665 90.5414 86.1433C90.8055 86.0201 91.0119 85.8006 91.1179 85.5305L91.1851 85.2492C91.2073 85.0498 91.1742 84.8482 91.0894 84.6663V84.6663Z" fill="#2B292D"/>
<path d="M81.7788 37.5863L81.5491 36.8581C81.4876 36.7255 81.4004 36.6063 81.2924 36.5074C81.1845 36.4084 81.0579 36.3316 80.9199 36.2813C80.782 36.231 80.6353 36.2083 80.4884 36.2144C80.3415 36.2205 80.1971 36.2553 80.0636 36.3168C79.7995 36.4401 79.5931 36.6596 79.4871 36.9297L79.4194 37.2079C79.3971 37.4073 79.4303 37.6089 79.5151 37.7907C79.591 38.0357 79.6695 38.277 79.7449 38.5189C79.8665 38.7833 80.0876 38.9896 80.3609 39.0935C80.6434 39.1973 80.9559 39.1864 81.2308 39.0633C81.4956 38.9408 81.7023 38.7211 81.8074 38.4505C81.8308 38.3565 81.8543 38.2625 81.8746 38.1691C81.8968 37.9697 81.8637 37.7681 81.7788 37.5863V37.5863Z" fill="#2B292D"/>
<path d="M84.5519 50.3892L84.3184 49.6584C84.196 49.3954 83.9752 49.1904 83.7029 49.0869C83.4256 48.9825 83.1178 48.9915 82.8467 49.112C82.5756 49.2325 82.3634 49.4547 82.2565 49.7299L82.1888 50.0082C82.1665 50.2076 82.1996 50.4092 82.2845 50.591C82.3635 50.8355 82.4389 51.0773 82.5179 51.3218C82.6392 51.5845 82.8589 51.7897 83.1304 51.8938C83.4128 51.9976 83.7252 51.9867 84.0002 51.8636C84.2655 51.7419 84.4725 51.5219 84.5767 51.2507L84.6476 50.972C84.6667 50.7727 84.6338 50.5719 84.5519 50.3892Z" fill="#2B292D"/>
</g>
<defs>
<clipPath id="clip0_530_33">
<rect width="104.907" height="56.3187" fill="white" transform="translate(33.8623 44.5981) rotate(5.4269)"/>
</clipPath>
<clipPath id="clip1_530_33">
<rect width="104.907" height="56.3187" fill="white" transform="translate(5.34229 46.418) rotate(-9.3279)"/>
</clipPath>
</defs>
</svg>
