<svg width="129" height="20" viewBox="0 0 129 20" fill="none" xmlns="http://www.w3.org/2000/svg">
<path d="M15.7263 19.4926H2.23247C2.06898 19.4927 1.90876 19.4468 1.77016 19.36C1.63157 19.2733 1.5202 19.1493 1.44881 19.0022C1.37742 18.8551 1.3489 18.6909 1.36652 18.5284C1.38413 18.3658 1.44717 18.2115 1.54841 18.0832L5.36823 13.23C5.54682 13.0028 5.65198 12.7266 5.66972 12.4381C5.68746 12.1497 5.61694 11.8627 5.46754 11.6153L0.236082 2.97129C0.0864333 2.72523 0.00502361 2.44374 0.000225134 2.15578C-0.00457334 1.86782 0.0674109 1.58378 0.208779 1.33286C0.350146 1.08195 0.555794 0.873212 0.804576 0.728121C1.05336 0.58303 1.33629 0.50682 1.62429 0.507327H13.9318C14.0915 0.507408 14.248 0.551379 14.3843 0.634428C14.5206 0.717478 14.6315 0.836409 14.7047 0.978217C14.778 1.12003 14.8108 1.27925 14.7997 1.43848C14.7886 1.5977 14.7339 1.7508 14.6416 1.88103L11.4277 6.41058C11.2678 6.63615 11.1772 6.90344 11.1669 7.17973C11.1566 7.45603 11.227 7.72933 11.3697 7.96618L16.9727 17.2618C17.1072 17.484 17.1804 17.7378 17.185 17.9974C17.1895 18.257 17.1251 18.5132 16.9985 18.7398C16.8718 18.9665 16.6874 19.1556 16.4639 19.2878C16.2404 19.42 15.9859 19.4907 15.7263 19.4926Z" fill="#4743C5"/>
<path d="M33.6805 19.5504C32.4097 19.5504 31.28 19.2507 30.2916 18.6512C29.3188 18.0518 28.5579 17.2174 28.0088 16.1481C27.4596 15.0627 27.1851 13.8314 27.1851 12.4543C27.1851 11.1096 27.4596 9.91069 28.0088 8.85762C28.5579 7.80454 29.3188 6.97828 30.2916 6.37884C31.28 5.7794 32.4097 5.47968 33.6805 5.47968C35.2024 5.47968 36.489 5.88471 37.5402 6.69476C38.6071 7.50482 39.2974 8.5903 39.6112 9.9512H36.8341C36.5988 9.25455 36.2066 8.71181 35.6574 8.32298C35.1083 7.93415 34.4493 7.73974 33.6805 7.73974C32.9274 7.73974 32.2606 7.94225 31.6801 8.34728C31.0996 8.73611 30.6446 9.28695 30.3151 9.9998C29.9856 10.7127 29.8209 11.5308 29.8209 12.4543C29.8209 13.4101 29.9856 14.2526 30.3151 14.9817C30.6446 15.7107 31.0996 16.2777 31.6801 16.6828C32.2606 17.0878 32.9274 17.2903 33.6805 17.2903C34.4964 17.2903 35.1867 17.0716 35.7516 16.6342C36.3321 16.1805 36.7165 15.5811 36.9048 14.8358H39.7053C39.4072 16.2939 38.7091 17.4442 37.6108 18.2867C36.5282 19.1292 35.2181 19.5504 33.6805 19.5504Z" fill="#010211"/>
<path d="M46.7855 19.5504C45.5146 19.5504 44.3771 19.2507 43.373 18.6512C42.3845 18.0518 41.6079 17.2174 41.0431 16.1481C40.4939 15.0627 40.2194 13.8314 40.2194 12.4543C40.2194 11.1096 40.4939 9.91069 41.0431 8.85762C41.6079 7.80454 42.3845 6.97828 43.373 6.37884C44.3771 5.7794 45.5146 5.47968 46.7855 5.47968C48.0563 5.47968 49.186 5.7794 50.1744 6.37884C51.1785 6.97828 51.9552 7.80454 52.5043 8.85762C53.0691 9.91069 53.3515 11.1096 53.3515 12.4543C53.3515 13.8152 53.077 15.0384 52.5278 16.1238C51.9787 17.1931 51.2021 18.0356 50.1979 18.6512C49.2095 19.2507 48.072 19.5504 46.7855 19.5504ZM46.7855 17.2174C47.5386 17.2174 48.2132 17.0149 48.8094 16.6099C49.4056 16.2048 49.8685 15.6378 50.1979 14.9087C50.5431 14.1797 50.7157 13.3615 50.7157 12.4543C50.7157 11.5794 50.5431 10.7937 50.1979 10.097C49.8685 9.38416 49.4056 8.82522 48.8094 8.42019C48.2132 8.01516 47.5386 7.81264 46.7855 7.81264C46.0324 7.81264 45.3577 8.01516 44.7615 8.42019C44.1653 8.80902 43.6946 9.35985 43.3494 10.0727C43.02 10.7694 42.8552 11.5632 42.8552 12.4543C42.8552 13.3777 43.02 14.204 43.3494 14.9331C43.6946 15.6459 44.1653 16.2048 44.7615 16.6099C45.3577 17.0149 46.0324 17.2174 46.7855 17.2174Z" fill="#010211"/>
<path d="M57.6123 19.2831C56.5925 19.2831 55.8237 19.04 55.3059 18.554C54.7882 18.068 54.5293 17.2498 54.5293 16.0995V0.74084H57.1181V15.4434C57.1181 16.0104 57.2044 16.4155 57.377 16.6585C57.5496 16.9015 57.9026 17.023 58.436 17.023H59.1656V19.2831H57.6123Z" fill="#010211"/>
<path d="M63.0623 19.2831C62.0425 19.2831 61.2737 19.04 60.7559 18.554C60.2382 18.068 59.9793 17.2498 59.9793 16.0995V0.74084H62.5681V15.4434C62.5681 16.0104 62.6544 16.4155 62.827 16.6585C62.9996 16.9015 63.3526 17.023 63.886 17.023H64.6156V19.2831H63.0623Z" fill="#010211"/>
<path d="M70.9255 19.5504C69.6546 19.5504 68.525 19.2507 67.5365 18.6512C66.5481 18.0356 65.7793 17.2012 65.2302 16.1481C64.681 15.0789 64.4065 13.8881 64.4065 12.5758C64.4065 11.3445 64.6497 10.1861 65.136 9.10064C65.6381 8.01516 66.3755 7.14029 67.3483 6.47605C68.321 5.8118 69.4899 5.47968 70.8549 5.47968C72.0159 5.47968 73.0828 5.7389 74.0556 6.25733C75.044 6.77577 75.8363 7.55343 76.4325 8.5903C77.0287 9.61097 77.3268 10.8585 77.3268 12.3328V13.0618H67.0423C67.0894 13.5965 67.2149 14.0825 67.4189 14.5199C67.7327 15.3462 68.2034 16.0023 68.8309 16.4884C69.4585 16.9744 70.1724 17.2174 70.9726 17.2174C71.8041 17.2174 72.518 16.9987 73.1142 16.5613C73.7104 16.1076 74.1419 15.5325 74.4086 14.8358H77.115C76.6757 16.2291 75.9305 17.3632 74.8793 18.2381C73.8438 19.1129 72.5258 19.5504 70.9255 19.5504ZM74.6439 10.899C74.5812 10.3967 74.4478 9.9674 74.2438 9.61097C73.93 8.99533 73.4751 8.52549 72.8788 8.20147C72.2983 7.86125 71.6551 7.69113 70.949 7.69113C70.2116 7.69113 69.5605 7.86125 68.9957 8.20147C68.4309 8.52549 67.9837 8.99533 67.6542 9.61097C67.4659 9.93499 67.3169 10.3643 67.2071 10.899H74.6439Z" fill="#010211"/>
<path d="M84.4879 19.5504C83.217 19.5504 82.0874 19.2507 81.0989 18.6512C80.1262 18.0518 79.3652 17.2174 78.8161 16.1481C78.2669 15.0627 77.9924 13.8314 77.9924 12.4543C77.9924 11.1096 78.2669 9.91069 78.8161 8.85762C79.3652 7.80454 80.1262 6.97828 81.0989 6.37884C82.0874 5.7794 83.217 5.47968 84.4879 5.47968C86.0097 5.47968 87.2963 5.88471 88.3475 6.69476C89.4144 7.50482 90.1047 8.5903 90.4185 9.9512H87.6415C87.4061 9.25455 87.0139 8.71181 86.4647 8.32298C85.9156 7.93415 85.2566 7.73974 84.4879 7.73974C83.7348 7.73974 83.0679 7.94225 82.4874 8.34728C81.9069 8.73611 81.4519 9.28695 81.1224 9.9998C80.793 10.7127 80.6282 11.5308 80.6282 12.4543C80.6282 13.4101 80.793 14.2526 81.1224 14.9817C81.4519 15.7107 81.9069 16.2777 82.4874 16.6828C83.0679 17.0878 83.7348 17.2903 84.4879 17.2903C85.3037 17.2903 85.9941 17.0716 86.5589 16.6342C87.1394 16.1805 87.5238 15.5811 87.7121 14.8358H90.5127C90.2146 16.2939 89.5164 17.4442 88.4181 18.2867C87.3355 19.1292 86.0254 19.5504 84.4879 19.5504Z" fill="#010211"/>
<path d="M95.71 19.2831C94.6902 19.2831 93.9214 19.04 93.4036 18.554C92.8859 18.068 92.627 17.2498 92.627 16.0995V7.98276H90.6031V5.747H92.627V0.74084H95.2158V5.747H97.9458V7.98276H95.2158V15.3948C95.2158 15.9618 95.2942 16.375 95.4511 16.6342C95.608 16.8934 95.9689 17.023 96.5337 17.023H97.9222V19.2831H95.71Z" fill="#010211"/>
<path d="M101.56 19.2831H98.9715V5.747H101.56V19.2831ZM100.266 3.85146C99.7952 3.85146 99.3873 3.68945 99.0421 3.36543C98.6969 3.0414 98.5244 2.63637 98.5244 2.15034C98.5244 1.66431 98.6969 1.25928 99.0421 0.935253C99.3873 0.61123 99.7952 0.449219 100.266 0.449219C100.752 0.449219 101.16 0.61123 101.49 0.935253C101.835 1.25928 102.007 1.66431 102.007 2.15034C102.007 2.63637 101.835 3.0414 101.49 3.36543C101.16 3.68945 100.752 3.85146 100.266 3.85146Z" fill="#010211"/>
<path d="M109.343 19.5504C108.072 19.5504 106.935 19.2507 105.931 18.6512C104.942 18.0518 104.166 17.2174 103.601 16.1481C103.052 15.0627 102.777 13.8314 102.777 12.4543C102.777 11.1096 103.052 9.91069 103.601 8.85762C104.166 7.80454 104.942 6.97828 105.931 6.37884C106.935 5.7794 108.072 5.47968 109.343 5.47968C110.614 5.47968 111.744 5.7794 112.732 6.37884C113.736 6.97828 114.513 7.80454 115.062 8.85762C115.627 9.91069 115.909 11.1096 115.909 12.4543C115.909 13.8152 115.635 15.0384 115.086 16.1238C114.536 17.1931 113.76 18.0356 112.756 18.6512C111.767 19.2507 110.63 19.5504 109.343 19.5504ZM109.343 17.2174C110.096 17.2174 110.771 17.0149 111.367 16.6099C111.963 16.2048 112.426 15.6378 112.756 14.9087C113.101 14.1797 113.273 13.3615 113.273 12.4543C113.273 11.5794 113.101 10.7937 112.756 10.097C112.426 9.38416 111.963 8.82522 111.367 8.42019C110.771 8.01516 110.096 7.81264 109.343 7.81264C108.59 7.81264 107.915 8.01516 107.319 8.42019C106.723 8.80902 106.252 9.35985 105.907 10.0727C105.578 10.7694 105.413 11.5632 105.413 12.4543C105.413 13.3777 105.578 14.204 105.907 14.9331C106.252 15.6459 106.723 16.2048 107.319 16.6099C107.915 17.0149 108.59 17.2174 109.343 17.2174Z" fill="#010211"/>
<path d="M117.134 19.2831V5.747H119.723V7.64253C120.303 6.84867 120.884 6.28974 121.464 5.96571C122.045 5.64169 122.704 5.47968 123.441 5.47968C125.402 5.47968 126.728 6.20873 127.419 7.66683C127.685 8.20147 127.85 8.75231 127.913 9.31935C127.976 9.87019 128.007 10.5344 128.007 11.3121V19.2831H125.418V11.2878C125.418 9.91069 125.191 8.95482 124.736 8.42019C124.312 7.96655 123.7 7.73974 122.9 7.73974C121.943 7.73974 121.205 8.04756 120.688 8.6632C120.343 9.05203 120.092 9.57857 119.935 10.2428C119.793 10.9071 119.723 11.8062 119.723 12.9403V19.2831H117.134Z" fill="#010211"/>
</svg>
