<svg width="151" height="140" viewBox="0 0 151 140" fill="none" xmlns="http://www.w3.org/2000/svg">
<g clip-path="url(#clip0_530_262)">
<path d="M44.9584 129.824C45.6669 129.982 46.0605 130.297 46.7689 130.375C47.4774 130.454 48.2645 130.139 48.973 130.297C49.6814 130.375 50.3899 130.769 51.0196 130.848C51.728 130.926 52.4365 131.084 53.1449 131.162C53.8534 131.241 54.6405 131.162 55.2703 131.241C55.9787 131.32 56.6084 131.95 57.3169 132.028C58.0253 132.107 58.7338 132.028 59.4422 132.186C60.1507 132.264 60.7804 132.737 61.4888 132.815C62.1973 132.894 62.9844 132.579 63.6929 132.658C64.4013 132.737 65.031 133.288 65.7395 133.366C66.4479 133.445 67.2351 133.13 67.9435 133.209C68.652 133.288 69.3604 133.445 70.0689 133.524C70.7773 133.603 71.5645 133.445 72.1942 133.524C72.9027 133.603 73.6111 133.681 74.3196 133.76C75.028 133.839 75.8152 133.603 76.4449 133.681C77.1533 133.76 77.8618 134.075 78.5702 134.154C79.2787 134.232 79.9871 134.468 80.6956 134.468C81.4827 134.547 82.1912 134.232 82.8209 134.232C83.6081 134.232 84.3165 134.075 84.9462 134.075C85.7334 134.075 86.4418 134.547 87.0716 134.547C87.8587 134.547 88.5672 134.468 89.1969 134.468C90.0628 134.468 90.7712 134.311 91.3222 134.311C92.4243 134.311 93.1327 134.154 93.4476 134.154C94.156 134.232 94.7857 134.783 95.4942 134.783C96.2026 134.783 96.9111 134.862 97.5408 134.862C98.2492 134.862 98.9577 134.626 99.5874 134.626C100.296 134.626 100.926 134.39 101.634 134.39C102.342 134.39 102.972 134.154 103.681 134.075C104.389 133.996 105.019 133.839 105.727 133.76C106.436 133.681 107.144 134.232 107.853 134.154C108.561 134.075 109.191 133.524 109.821 133.445C110.529 133.288 111.237 133.445 111.867 133.288C112.576 133.13 113.127 132.737 113.835 132.501C114.465 132.264 115.173 132.186 115.803 131.95C116.433 131.713 117.141 131.477 117.771 131.241C118.401 130.926 118.952 130.454 119.503 130.139C120.132 129.824 120.762 129.509 121.313 129.116C121.864 128.722 122.179 128.014 122.73 127.62C123.281 127.148 123.989 126.912 124.383 126.361C124.855 125.81 125.013 125.18 125.406 124.55C125.8 123.999 126.43 123.606 126.744 122.976C127.059 122.346 126.823 121.559 127.059 120.851C127.295 120.221 127.453 119.591 127.61 118.883C127.846 117.938 128.004 117.938 128.24 116.915C128.476 115.97 128.555 115.97 128.791 114.947C129.027 114.002 129.342 114.002 129.578 113.058C129.814 112.113 129.421 111.956 129.657 111.011C129.893 109.988 130.208 110.066 130.444 109.122C130.68 108.099 130.759 108.177 130.995 107.154C131.153 106.446 131.074 105.737 131.153 105.029C131.31 104.32 131.546 103.69 131.625 102.982C131.704 102.274 132.176 101.644 132.255 100.935C132.333 100.227 132.097 99.5185 132.097 98.8101C132.097 98.1016 132.176 97.3932 132.176 96.6848C132.176 95.9763 131.782 95.2679 131.782 94.6381C131.782 93.9297 131.94 93.2212 131.861 92.5128C131.782 91.8044 131.389 91.1746 131.31 90.4662C131.231 89.7577 131.782 88.9706 131.704 88.2621C131.546 87.5537 130.759 87.0027 130.602 86.3729C130.444 85.6645 130.365 85.0348 130.129 84.3263C129.893 83.6966 130.208 82.8307 129.972 82.201C129.736 81.5713 129.185 81.0202 128.949 80.3118C128.712 79.6821 128.712 78.8949 128.398 78.2652C128.083 77.6355 127.61 77.0844 127.295 76.4547C126.981 75.825 126.823 75.1165 126.508 74.4868C126.193 73.8571 125.249 73.6209 124.855 73.0699C124.462 72.5189 124.226 71.8105 123.832 71.2594C123.438 70.7084 123.045 70.1574 122.573 69.6064C122.179 69.0554 121.628 68.5831 121.156 68.0321C120.683 67.4811 120.447 66.7726 119.975 66.3003C119.503 65.828 119.109 65.1983 118.558 64.726C118.086 64.2537 117.456 63.8601 116.984 63.3878C116.433 62.9155 115.724 62.7581 115.173 62.3645C114.622 61.9709 114.386 61.1051 113.756 60.7115C113.205 60.3179 112.261 60.4753 111.71 60.0818C111.159 59.6882 110.686 59.0585 110.135 58.6649C109.506 58.35 109.033 57.799 108.404 57.4841C107.774 57.1693 106.987 57.1693 106.357 56.9331C105.727 56.697 105.255 56.2247 104.625 55.9098C103.996 55.5949 103.523 55.1226 102.893 54.8078C102.264 54.4929 101.634 54.4142 101.004 54.1781C100.375 53.8632 99.9023 53.4696 99.2725 53.1547C98.6428 52.8399 98.0131 52.6824 97.3834 52.4463C96.7536 52.1314 95.9665 52.2889 95.3367 51.974C94.707 51.6591 94.3922 50.7933 93.8411 50.4784C93.2114 50.1635 92.6604 49.8487 92.1094 49.5338C91.4797 49.2189 90.6925 49.3764 90.0628 49.0615C89.433 48.7466 89.1182 48.0382 88.4884 47.7233C87.8587 47.4085 87.229 47.0149 86.5993 46.7C85.9695 46.3852 85.1037 46.6213 84.3952 46.3064C83.7655 45.9916 83.2145 45.4406 82.5847 45.1257C81.955 44.8896 81.1679 44.8896 80.4594 44.6534C79.8297 44.4173 79.2 44.0237 78.4915 43.7875C77.8618 43.5514 77.0746 43.5514 76.3662 43.3152C75.6577 43.0791 75.1854 42.3706 74.477 42.1345C73.7685 41.8983 72.9814 42.2919 72.2729 42.0558C71.5645 41.8196 71.0135 41.1899 70.3837 40.9537C69.6753 40.7963 68.9669 40.7176 68.2584 40.5602C67.55 40.4027 66.9202 40.0092 66.2118 39.773C65.5033 39.6156 64.8736 39.3007 64.1652 39.1433C63.4567 38.9858 62.6696 39.3007 61.9611 39.1433C61.2527 38.9858 60.6229 38.4348 59.9145 38.2774C59.2061 38.12 58.5763 37.8051 57.8679 37.6477C57.1594 37.4902 56.451 37.4115 55.7426 37.2541C55.0341 37.0967 54.3257 36.9392 53.6172 36.7818C52.9088 36.6244 52.279 36.9392 51.5706 36.8605C51.177 37.8051 51.3345 37.8838 51.2557 38.9071C51.177 39.9304 51.0983 39.9304 51.0196 41.0325C50.9409 42.0558 50.8622 42.0558 50.7834 43.1578C50.7047 44.1811 50.9409 44.2598 50.8622 45.2831C50.7834 46.3064 50.626 46.3064 50.5473 47.4085C50.4686 48.4318 50.3111 48.4318 50.2324 49.5338C50.1537 50.5571 50.4686 50.6358 50.3899 51.6591C50.3111 52.6824 49.9963 52.6824 49.9176 53.7058C49.8388 54.7291 49.7601 54.7291 49.6814 55.8311C49.6027 56.8544 50.2324 56.9331 50.1537 57.9564C50.075 58.9797 49.3665 58.9797 49.2878 60.003C49.2091 61.0264 49.8388 61.1051 49.7601 62.1284C49.6814 63.1517 49.6027 63.1517 49.524 64.2537C49.4453 65.277 49.1304 65.277 49.0517 66.3003C48.973 67.3236 48.973 67.3236 48.8943 68.4257C48.8155 69.449 48.5794 69.449 48.5007 70.551C48.422 71.5743 48.973 71.653 48.8943 72.6763C48.8155 73.6996 48.973 73.7784 48.8943 74.8017C48.8155 75.825 48.5794 75.825 48.5007 76.927C48.422 77.9503 48.3432 77.9503 48.2645 79.0523C48.1858 80.0757 48.1071 80.0756 48.0284 81.1777C47.9497 82.201 47.9497 82.201 47.8709 83.303C47.7922 84.3263 47.6348 84.3263 47.5561 85.4283C47.4774 86.4517 47.4774 86.4517 47.3986 87.5537C47.3199 88.577 47.8709 88.6557 47.7922 89.679C47.7135 90.7023 47.5561 90.7023 47.4774 91.8044C47.3986 92.8277 47.5561 92.8277 47.4774 93.9297C47.3986 94.953 46.7689 94.953 46.6902 95.9763C46.6115 96.9996 47.3199 97.0783 47.2412 98.1016C47.1625 99.1249 46.3753 99.1249 46.2966 100.148C46.2179 101.172 46.6115 101.25 46.5328 102.274C46.4541 103.297 46.5328 103.297 46.4541 104.399C46.3753 105.422 46.1392 105.422 46.0605 106.524C45.9818 107.548 46.1392 107.626 46.0605 108.65C45.9818 109.673 45.5882 109.673 45.5095 110.696C45.4307 111.72 45.4307 111.72 45.352 112.822C45.2733 113.845 45.6669 113.924 45.5882 114.947C45.5095 115.97 45.2733 115.97 45.1946 117.072C45.1159 118.096 45.6669 118.174 45.5882 119.198C45.5095 120.221 45.4307 120.221 45.352 121.323C45.2733 122.346 44.9584 122.346 44.8797 123.448C44.801 124.472 44.6436 124.472 44.5649 125.574C44.4861 126.597 44.3287 126.597 44.25 127.699C44.3287 128.722 44.7223 128.722 44.9584 129.824V129.824Z" fill="#F36B7F"/>
<path d="M127.138 75.51C127.059 74.8016 126.902 73.857 126.744 73.1485C126.587 72.4401 126.35 71.8104 126.193 71.1019C126.036 70.3935 125.799 69.7637 125.642 69.0553C125.485 68.3469 125.17 67.7171 125.012 67.0087C124.855 66.3002 124.697 65.6705 124.54 64.9621C124.383 64.2536 124.304 63.5452 124.146 62.8367C123.989 62.1283 123.832 61.4198 123.674 60.7901C123.517 60.0817 123.044 59.5307 122.808 58.8222C122.651 58.1138 122.179 57.5627 122.021 56.8543C121.785 56.1459 122.021 55.3587 121.785 54.729C121.549 54.0205 121.549 53.3121 121.313 52.6036C121.077 51.8952 120.683 51.3442 120.447 50.6357C120.211 49.9273 119.66 49.3763 119.423 48.7465C119.187 48.0381 119.423 47.2509 119.187 46.5425C118.951 45.8341 118.636 45.2043 118.479 44.5746C118.243 43.8661 117.692 43.3151 117.456 42.6854C117.219 41.977 117.062 41.3472 116.826 40.6388C116.59 39.9303 116.354 39.3006 116.117 38.5922C115.881 37.8837 115.881 37.1753 115.645 36.4668C115.409 35.7584 115.409 35.0499 115.173 34.3415C114.937 33.6331 114.228 33.1608 113.992 32.531C113.756 31.8226 113.362 31.2716 113.126 30.5631C112.89 29.8547 112.89 29.1462 112.654 28.4378C112.418 27.7294 112.418 27.0209 112.182 26.3912C111.945 25.6827 111.237 25.2104 111.001 24.5807C110.765 23.8723 110.686 23.1638 110.45 22.5341C110.214 21.8256 109.82 21.1959 109.584 20.5662C109.348 19.8577 108.954 19.228 108.718 18.5983C108.482 17.8898 108.954 17.024 108.718 16.3942C108.482 15.6858 108.01 15.1348 107.773 14.505C107.537 13.7966 107.616 13.0094 107.459 12.3797C107.222 11.5925 106.908 10.9628 106.75 10.4118C106.593 9.70336 106.12 9.15235 105.806 8.52262C105.491 7.89289 105.018 7.4206 104.546 6.9483C103.995 6.476 103.68 5.76756 103.051 5.45269C102.421 5.13783 101.634 5.29526 100.925 5.21655C100.217 5.13783 99.587 5.05911 98.8786 5.13783C98.1701 5.21655 97.5404 5.45269 96.9107 5.68884C96.2809 5.92499 95.4938 6.00371 94.9428 6.39729C94.3918 6.79087 94.0769 7.49931 93.5259 7.97161C93.0536 8.44391 92.5026 8.83749 92.109 9.46722C91.7154 10.0182 91.0857 10.4118 90.7708 11.1203C90.456 11.75 90.3772 12.4584 90.1411 13.1669C89.9049 13.7966 89.4326 14.4263 89.2752 15.1348C89.1178 15.7645 89.4326 16.5517 89.3539 17.2601C89.2752 17.9686 89.0391 18.5983 89.0391 19.3854C89.0391 20.0939 89.1965 20.7236 89.2752 21.5108C89.3539 22.2192 89.6688 22.849 89.8262 23.5574C89.9049 24.1871 89.4326 24.9743 89.5901 25.7614C89.6688 26.4699 89.7475 27.1783 89.8262 27.8868C89.9049 28.5952 90.6134 29.1462 90.6921 29.8547C90.7708 30.5631 90.7708 31.2716 90.9283 31.98C91.0857 32.6885 91.3218 33.3182 91.4793 34.0266C91.6367 34.7351 91.4793 35.4435 91.6367 36.152C91.7941 36.8604 92.1877 37.4901 92.3451 38.1986C92.5026 38.907 92.3451 39.6155 92.5026 40.3239C92.66 41.0324 92.9749 41.6621 93.1323 42.3705C93.2897 43.079 93.2897 43.7874 93.3684 44.4959C93.5259 45.2043 93.2897 45.9128 93.4472 46.6212C93.6046 47.3297 94.1556 47.8807 94.313 48.5891C94.4705 49.2976 94.4705 50.006 94.6279 50.6357C94.7853 51.3442 94.6279 52.0526 94.7853 52.7611C94.9428 53.4695 95.4938 54.0205 95.6512 54.729C95.8086 55.4374 95.7299 56.1459 95.8874 56.8543C96.0448 57.5627 96.2022 58.1925 96.3597 58.9009C96.5171 59.6094 96.832 60.2391 96.9894 60.9475C97.1468 61.656 96.9107 62.4431 97.0681 63.0729C97.2255 63.7813 97.6191 64.4111 97.7766 65.0408C97.934 65.7492 98.0914 66.4577 98.2488 67.0874C98.4063 67.7958 98.2488 68.5043 98.4063 69.2127C98.5637 69.9212 98.6424 70.6296 98.7999 71.2594C98.9573 71.9678 99.5083 72.5188 99.6657 73.2273C99.8232 73.9357 100.059 74.5654 100.217 75.2739C100.374 75.9823 100.689 76.612 100.846 77.3205C101.004 78.0289 100.846 78.8161 101.004 79.4458C101.161 80.1543 101.555 80.784 101.712 81.4137C101.87 82.1222 102.106 82.8306 102.263 83.4603C102.421 84.1688 102.421 84.8772 102.578 85.5857C102.736 86.2941 103.051 87.0026 103.129 87.6323C103.287 88.4195 103.051 89.2066 103.208 89.7576C103.523 91.0958 102.972 91.8043 103.995 91.4894C105.018 91.1745 105.097 91.332 105.963 90.7022C106.829 90.0725 106.593 89.7576 107.537 89.1279C108.403 88.4982 108.403 88.4195 109.269 87.7897C110.135 87.16 110.371 87.4749 111.237 86.8451C112.103 86.2154 112.26 86.3728 113.126 85.7431C113.992 85.1134 113.598 84.5624 114.464 83.9326C115.33 83.3029 115.566 83.6965 116.511 83.0668C117.377 82.437 117.298 82.2796 118.164 81.6499C119.03 81.0201 119.03 80.9414 119.896 80.3117C120.762 79.682 120.762 79.682 121.628 79.0522C122.493 78.4225 122.336 78.2651 123.281 77.6354C124.146 77.0056 124.304 77.2418 125.248 76.7695C126.193 76.1398 126.429 76.2972 127.138 75.51V75.51Z" fill="#F36B7F"/>
<path d="M45.4305 105.029C46.139 105.029 46.7687 105.501 47.4771 105.501C48.1856 105.501 48.894 105.029 49.5238 105.029C50.2322 105.029 50.8619 105.186 51.5704 105.186C52.2788 105.186 52.9086 105.894 53.617 105.973C54.3254 105.973 55.0339 105.343 55.6636 105.343C56.3721 105.343 57.0018 105.894 57.7102 105.894C58.4187 105.894 59.1271 105.501 59.7569 105.501C60.4653 105.501 61.095 106.131 61.8035 106.209C62.5119 106.209 63.1417 106.131 63.8501 106.131C64.5585 106.131 65.267 105.973 65.8967 105.973C66.6052 105.973 67.2349 106.524 67.9433 106.524C68.6518 106.524 69.3602 106.288 69.99 106.288C70.6984 106.288 71.4068 105.973 72.0366 105.973C72.745 105.973 73.3747 106.446 74.0832 106.446C74.7916 106.446 75.5001 106.446 76.1298 106.446C76.8383 106.446 77.5467 106.603 78.1764 106.603C78.8849 106.603 79.5933 106.446 80.223 106.524C80.9315 106.603 81.6399 106.288 82.2697 106.446C82.9781 106.524 83.6078 106.839 84.2376 106.997C84.946 107.233 85.5757 107.469 86.1268 107.705C86.7565 108.02 87.2288 108.571 87.7798 108.886C88.4095 109.279 88.8031 109.752 89.2754 110.224C89.7477 110.696 90.3774 111.011 90.771 111.562C91.1646 112.113 91.5582 112.664 91.873 113.294C92.1092 113.924 91.9517 114.632 92.1092 115.34C92.2666 116.049 92.9751 116.6 92.9751 117.308C92.9751 118.017 92.7389 118.725 92.6602 119.355C92.5028 119.985 92.1879 120.614 91.9517 121.323C91.7156 121.953 91.322 122.504 91.0071 123.133C90.6923 123.684 90.3774 124.314 89.9051 124.865C89.5115 125.416 88.9605 125.81 88.4095 126.282C87.9372 126.754 87.3862 127.227 86.8352 127.62C86.2842 128.014 85.6545 128.329 85.0247 128.643C84.395 128.958 83.844 129.352 83.2143 129.588C82.5845 129.824 81.9548 130.218 81.2464 130.375C80.6166 130.533 79.9082 130.533 79.1997 130.611C78.57 130.69 77.8616 131.005 77.1531 131.084C76.5234 131.162 75.8149 130.611 75.1065 130.533C74.3981 130.533 73.7683 131.005 73.0599 131.005C72.3514 131.005 71.7217 130.533 71.0133 130.533C70.3048 130.533 69.6751 130.454 68.9666 130.375C68.2582 130.375 67.6285 130.533 66.92 130.533C66.2116 130.533 65.5818 130.847 64.8734 130.847C64.165 130.847 63.5352 130.533 62.8268 130.533C62.1183 130.533 61.4886 130.218 60.7802 130.139C60.0717 130.139 59.3633 130.69 58.7335 130.69C58.0251 130.69 57.3954 130.139 56.6869 130.06C55.9785 130.06 55.27 130.533 54.6403 130.533C53.9319 130.533 53.3021 130.139 52.5937 130.06C51.8853 130.06 51.1768 130.139 50.5471 130.139C49.8386 130.139 49.1302 130.454 48.5005 130.375C47.792 130.375 47.1623 129.982 46.5326 129.903C45.8241 129.903 45.1157 129.982 44.4859 129.903C43.7775 129.824 43.069 129.431 42.3606 129.273C41.6522 129.116 40.9437 128.88 40.2353 128.643C39.5268 128.407 38.8184 128.329 38.1099 128.014C37.4015 127.699 36.8505 127.305 36.142 126.99C35.5123 126.597 34.8826 126.282 34.2528 125.888C33.7018 125.416 33.0721 125.023 32.5211 124.471C31.8126 123.763 31.8914 123.684 31.1042 123.055C30.3958 122.346 30.1596 122.582 29.4512 121.874C28.7427 121.165 28.5066 121.48 27.7194 120.772C27.011 120.063 27.4833 119.591 26.6961 118.883C25.9877 118.174 25.5154 118.646 24.8069 118.017C24.3346 117.544 24.0985 116.757 23.7049 116.285C23.2326 115.813 22.839 115.262 22.4454 114.711C22.0519 114.16 21.4221 113.766 21.1073 113.136C20.7924 112.585 20.7137 111.798 20.4775 111.168C20.2414 110.539 19.7691 109.988 19.5329 109.358C19.2968 108.728 19.5329 107.941 19.3755 107.311C19.2181 106.682 18.5096 106.052 18.4309 105.422C18.3522 104.714 19.0606 104.005 19.0606 103.376C19.0606 102.667 18.6671 102.037 18.7458 101.329C18.8245 100.699 19.3755 100.07 19.5329 99.4398C19.6904 98.81 19.6904 98.1016 19.8478 97.4719L19.4542 97.3932C19.6904 96.6847 19.9265 95.9763 20.2414 95.3465C20.5562 94.6381 21.0285 94.0871 21.3434 93.4573C21.737 92.8276 22.4454 92.434 22.839 91.883C23.3113 91.332 23.6262 90.6236 24.1772 90.1513C24.6495 89.6003 25.2005 89.128 25.7515 88.6557C26.3025 88.1834 26.7748 87.5536 27.3258 87.1601C27.9556 86.7665 28.8214 86.7665 29.4512 86.4516C30.0809 86.1368 30.7106 85.6645 31.3403 85.4283C32.0488 85.1922 32.5998 84.5624 33.3083 84.3263C34.0167 84.1688 34.7251 83.9327 35.5123 83.7753C36.4569 83.6178 36.5356 83.854 37.4802 83.7753C38.4248 83.6178 38.5035 84.0901 39.4481 84.0114C40.3927 83.854 40.3927 83.4604 41.3373 83.303C42.2819 83.1455 42.3606 83.303 43.3052 83.1455C44.2498 82.9881 44.2498 82.8307 45.1944 82.752C46.139 82.6732 46.69 81.6499 47.3984 82.3584C48.1069 83.0668 46.8474 83.6178 46.69 84.6411C46.6113 85.6645 46.4538 85.6645 46.3751 86.6878C46.2964 87.7111 46.69 87.7898 46.6113 88.8131C46.5326 89.8364 46.2177 89.8364 46.139 90.8597C46.0603 91.883 46.2964 91.883 46.139 92.9063C46.0603 93.9296 46.139 93.9296 46.0603 94.953C45.9815 95.9763 45.5092 95.9763 45.3518 96.9996C45.2731 98.0229 45.9815 98.1016 45.8241 99.1249C45.7454 100.148 45.1157 100.07 45.0369 101.093C44.9582 102.116 45.1944 102.116 45.1157 103.218C45.037 104.241 44.8795 104.241 44.8008 105.265" fill="#F36B7F"/>
<path d="M48.5 82.2009C49.2084 82.2009 49.8381 82.2796 50.5466 82.2796C51.255 82.2796 51.8848 82.1221 52.5932 82.1221H54.6398H56.6864C57.3949 82.1221 58.0246 82.2796 58.7331 82.2796C59.4415 82.2796 60.0712 82.6731 60.7797 82.6731C61.4881 82.6731 62.1179 82.7519 62.8263 82.7519C63.5347 82.7519 64.2432 82.5157 64.8729 82.5944C65.5814 82.5944 66.2111 82.988 66.9195 82.988C67.628 82.988 68.3364 82.6731 68.9662 82.7519C69.6746 82.7519 70.383 82.437 71.0128 82.5157C71.7212 82.5157 72.3509 82.988 73.0594 82.988C73.7678 82.988 74.3976 83.3029 75.106 83.3816C75.8145 83.3816 76.5229 83.1454 77.1526 83.1454H79.1992C79.9077 83.1454 80.6161 83.3816 81.2459 83.3816C81.9543 83.3816 82.6628 83.1454 83.2925 83.1454C84.0009 83.2242 84.6307 83.4603 85.3391 83.539C86.0475 83.6177 86.756 83.6177 87.3857 83.8539C88.0942 84.09 88.6452 84.4836 89.1962 84.7198C89.8259 85.0346 90.7705 84.7985 91.3215 85.1921C91.9513 85.5856 92.1087 86.4515 92.581 86.9238C93.0533 87.3961 93.3681 87.9471 93.7617 88.4981C94.1553 89.0492 94.8637 89.4427 95.0999 90.0725C95.336 90.7022 95.6509 91.3319 95.7296 92.0404C95.8871 92.7488 95.7296 93.3785 95.7296 94.087C95.7296 94.7954 95.8083 95.4252 95.6509 96.1336C95.4935 96.7633 94.9425 97.3143 94.7063 97.9441C94.4702 98.5738 94.3127 99.2035 93.9979 99.8333C93.683 100.384 93.2894 100.935 92.8171 101.486C92.4235 102.037 92.03 102.588 91.5577 103.061C91.0854 103.533 90.5344 103.926 89.9046 104.32C89.3536 104.714 88.5665 104.714 88.0154 105.029C87.3857 105.343 87.0709 106.288 86.4411 106.524C85.8114 106.76 85.0242 106.524 84.3158 106.682C83.6861 106.839 83.0563 107.233 82.3479 107.39C81.7182 107.469 80.931 107.075 80.2226 107.075C79.5928 107.154 78.8844 107.39 78.1759 107.39C77.4675 107.39 76.8378 107.626 76.1293 107.626C75.4209 107.626 74.7911 107.705 74.0827 107.705C73.3742 107.705 72.7445 107.154 72.0361 107.154C71.3276 107.154 70.6979 106.996 69.9895 106.996C69.281 106.996 68.6513 107.233 67.9428 107.233C67.2344 107.233 66.6047 107.469 65.8962 107.39C65.1878 107.39 64.5581 106.996 63.8496 106.996C63.1412 106.996 62.5114 106.76 61.803 106.76C61.0945 106.76 60.3861 107.075 59.7564 107.075C59.0479 107.075 58.4182 106.918 57.7098 106.918C57.0013 106.918 56.3716 106.996 55.6631 106.996C54.9547 106.996 54.325 106.839 53.6165 106.839C52.9081 106.839 52.1996 107.154 51.5699 107.154C50.8614 107.154 50.2317 106.918 49.5233 106.918C48.8148 106.918 48.1851 106.209 47.5554 106.209C46.8469 106.131 45.9811 106.76 45.2726 106.603C44.5642 106.445 43.777 106.209 43.0686 105.973C42.3601 105.737 41.7304 105.343 41.0219 105.107C40.3135 104.792 39.9199 104.084 39.2902 103.69C38.6605 103.297 37.8733 103.218 37.2436 102.746C36.6926 102.273 35.8267 102.116 35.2757 101.644C34.5672 100.935 34.5672 100.935 33.8588 100.227C33.1503 99.5184 33.0716 99.6758 32.2845 98.9674C31.576 98.2589 32.0483 97.7079 31.3399 97.0782C30.6314 96.3698 30.5527 96.4485 29.8443 95.8187C29.1358 95.189 28.9784 95.2677 28.2699 94.5593C27.7976 94.087 27.0105 93.9296 26.5382 93.3785C26.0659 92.9062 25.751 92.1978 25.3574 91.6468C24.9639 91.0958 24.8064 90.3873 24.4916 89.8363C24.1767 89.2853 24.098 88.5769 23.8618 87.9471C23.6257 87.3174 22.9172 86.8451 22.6811 86.2154C22.4449 85.5856 22.3662 84.8772 22.2088 84.2475C22.0514 83.6177 22.2875 82.9093 22.2875 82.2009C22.2088 81.4924 22.1301 80.8627 22.1301 80.233C22.1301 79.5245 22.2875 78.8948 22.3662 78.265C22.4449 77.6353 21.8152 76.8482 21.9726 76.1397C22.1301 75.51 22.7598 74.959 22.996 74.3292L23.1534 74.408C23.3895 73.6995 23.7831 73.0698 24.098 72.4401C24.4128 71.7316 24.649 71.1019 25.0426 70.4722C25.4361 69.8424 25.5149 69.0553 25.9872 68.4255C26.4595 67.8745 27.0892 67.4809 27.6402 66.9299C28.1125 66.3789 28.5061 65.6705 29.0571 65.1982C29.6081 64.7259 30.3165 64.4897 30.9463 64.0962C31.576 63.7026 32.0483 63.1516 32.7567 62.8367C33.3865 62.5218 34.1736 62.5218 34.8821 62.2857C35.5905 62.0495 36.0628 61.1837 36.7713 60.9475C37.4797 60.7901 38.3456 61.1837 39.054 61.1049L40.9432 60.7901C40.9432 60.7901 41.8878 60.7114 42.9111 60.5539C43.8557 60.3965 43.8557 60.3178 44.8003 60.2391C45.7449 60.0816 45.8236 60.2391 46.7682 60.1603C47.7128 60.0029 47.6341 59.5306 48.6574 59.4519C49.6807 59.3732 49.6807 58.9009 50.3892 59.6093C51.0976 60.3178 50.4679 60.3965 50.3104 61.4198C50.2317 62.4431 50.5466 62.4431 50.4679 63.5451C50.3892 64.5684 49.9956 64.5684 49.9169 65.5918C49.8381 66.6151 49.9169 66.6151 49.7594 67.6384C49.6807 68.6617 49.602 68.6617 49.5233 69.685C49.4446 70.7083 49.8381 70.787 49.7594 71.8103C49.6807 72.8336 49.602 72.8336 49.5233 73.8569C49.4446 74.8803 49.4446 74.8803 49.2871 75.9036C49.2084 76.9269 49.2084 76.9269 49.1297 77.9502C49.051 78.9735 48.7361 78.9735 48.6574 79.9968C48.5787 81.0201 48.1851 81.0201 48.1064 82.0434" fill="#F36B7F"/>
<path d="M57.6321 56.697C58.3405 56.697 59.3638 56.3821 59.9935 56.4608C60.702 56.5395 61.3317 57.1693 61.9614 57.248C62.6699 57.3267 63.4571 56.8544 64.0868 57.0118C64.7952 57.1693 65.425 57.6416 66.0547 57.799C66.7631 57.9564 67.4716 58.0351 68.1013 58.1926C68.8097 58.35 69.4395 58.5861 70.0692 58.7436C70.7777 58.901 71.3287 59.3733 71.9584 59.5307C72.6668 59.7669 73.3753 59.6882 74.005 59.8456C74.6347 60.003 75.3432 60.1605 75.9729 60.3179C76.6026 60.4753 77.3111 60.7115 77.9408 60.8689C78.5705 60.9476 79.279 61.0263 79.9874 61.1051C80.6172 61.1838 81.3256 60.9476 82.0341 60.9476C82.7425 60.9476 83.4509 61.3412 84.0807 61.3412C84.7891 61.4199 85.4976 61.0263 86.206 61.1051C86.9145 61.1838 87.4655 61.8922 88.0952 62.0497C88.8036 62.2858 89.4334 62.3645 90.0631 62.6007C90.6928 62.9155 91.2438 63.2304 91.7948 63.624C92.4246 64.0176 92.9756 64.3324 93.4479 64.8047C93.9202 65.277 94.1563 65.9067 94.5499 66.4578C94.9435 67.0088 95.4158 67.4811 95.7307 68.1108C95.9668 68.7405 96.6752 69.2915 96.8327 69.9213C96.9901 70.6297 96.754 71.3382 96.754 72.0466C96.754 72.755 96.6753 73.4635 96.5965 74.0932C96.4391 74.7229 95.8094 75.274 95.5732 75.9037C95.3371 76.5334 95.2584 77.1632 94.8648 77.7929C94.5499 78.3439 94.4712 79.2098 94.0776 79.7608C93.684 80.3118 92.9756 80.6267 92.5033 81.099C92.031 81.5713 91.48 81.9648 90.8503 82.3584C90.2992 82.752 89.7482 83.1456 89.1185 83.4604C88.4888 83.7753 87.7803 83.6966 87.0719 83.9327C86.4422 84.1689 85.8911 84.5625 85.1827 84.7199C84.553 84.8773 83.9232 85.1922 83.2148 85.3496C82.5851 85.4283 81.8766 85.1135 81.1682 85.1922C80.5384 85.2709 79.83 85.3496 79.1216 85.3496C78.4131 85.3496 77.7834 85.5858 77.0749 85.5858C76.3665 85.5858 75.7368 85.7432 75.0283 85.6645C74.3199 85.6645 73.6902 85.8219 72.9817 85.7432C72.2733 85.7432 71.6435 85.3496 70.9351 85.3496C70.2266 85.3496 69.5969 85.5071 68.8885 85.5071C68.18 85.5071 67.5503 85.0348 66.8418 84.956C66.1334 84.956 65.5037 85.2709 64.7952 85.2709C64.0868 85.2709 63.4571 85.1922 62.7486 85.1922C62.0402 85.1922 61.4104 85.0348 60.702 84.956C59.9935 84.956 59.2851 85.3496 58.6554 85.2709C57.9469 85.2709 57.3172 84.956 56.6088 84.956C55.9003 84.956 55.1919 85.1135 54.5621 85.1135C53.8537 85.1135 53.224 84.5625 52.5942 84.5625C51.8858 84.5625 51.1773 85.0348 50.5476 85.0348C49.8392 85.0348 49.2094 84.7986 48.501 84.7199C47.7926 84.6412 47.0841 84.3263 46.2969 84.1689C45.5885 84.0115 44.8801 83.6966 44.2503 83.4604C43.5419 83.2243 42.676 83.5392 41.9676 83.2243C41.2591 82.9094 40.6294 82.5158 39.9997 82.201C39.3699 81.8074 38.7402 81.4138 38.1105 80.9415C37.5595 80.4692 36.7723 80.1544 36.3 79.6821C35.5916 78.9736 35.8277 78.7375 35.0405 78.029C34.3321 77.3206 34.0172 77.6354 33.3088 77.0057C32.6003 76.2973 32.6791 76.2186 31.8919 75.5888C31.1835 74.8804 31.3409 74.6442 30.6324 74.0145C29.924 73.3061 30.0814 73.1486 29.373 72.4402C28.9007 71.9679 28.3497 71.5743 27.9561 71.102C27.4838 70.6297 27.0115 70.1574 26.6179 69.6064C26.2243 69.0554 25.8308 68.5044 25.5159 67.9534C25.201 67.4024 24.5713 66.9301 24.2564 66.3003C24.0203 65.6706 23.7841 64.9622 23.6267 64.3324C23.3906 63.7027 23.6267 62.9155 23.4693 62.2858C23.3118 61.6561 23.2331 60.9476 23.1544 60.3179C23.0757 59.6095 23.0757 58.9797 23.0757 58.35C23.0757 57.6416 22.5247 56.9331 22.6034 56.3034C22.6821 55.6737 23.3906 55.0439 23.4693 54.4142C23.6267 53.7845 23.2331 52.9186 23.4693 52.2889L23.6267 52.3676C23.8629 51.7378 24.3352 51.1081 24.5713 50.4784C24.8862 49.8487 24.9649 49.1402 25.3585 48.5105C25.6733 47.8808 26.3031 47.4085 26.6966 46.8575C27.0902 46.3064 27.3264 45.5193 27.7199 45.047C28.1922 44.496 28.5858 43.945 29.0581 43.3939C29.5304 42.9216 30.2389 42.6068 30.7899 42.2132C31.3409 41.7409 31.8132 41.2686 32.3642 40.875C32.9152 40.4814 33.4662 40.0092 34.096 39.6943C34.7257 39.3794 35.3554 38.9858 35.9851 38.7497C36.6149 38.5135 37.3233 38.12 37.953 37.9625C38.6615 37.8051 39.3699 38.12 40.0784 38.0412C41.1804 37.9625 41.1804 37.6477 42.3611 37.569C43.4632 37.569 43.5419 38.0412 44.6439 38.0412C45.7459 38.0412 45.7459 37.4902 46.9267 37.4902C48.0287 37.4902 48.1074 37.8838 49.2094 37.8838C50.3115 37.8838 50.3115 37.2541 51.3348 37.8838C52.2007 38.4348 51.5709 38.671 51.8858 39.6156C52.2007 40.5602 52.673 40.4027 52.9878 41.426C53.3027 42.3706 53.224 42.4493 53.5388 43.3939C53.8537 44.3385 53.6963 44.4173 54.0111 45.3618C54.326 46.3064 54.4834 46.3064 54.7983 47.251C55.1131 48.1956 55.1919 48.1956 55.5067 49.1402C55.8216 50.0848 56.0577 50.0061 56.3726 51.0294C56.6875 51.974 56.53 52.0527 56.8449 52.9973C57.1598 53.9419 57.4746 53.9419 57.5533 54.9652C57.7895 55.5949 57.0811 55.8311 57.6321 56.697V56.697Z" fill="#F36B7F"/>
<path d="M87.9369 128.092C87.1497 127.699 87.1497 127.384 86.8348 126.597C87.3858 126.124 87.9369 125.573 88.3304 125.101C88.8027 124.55 89.0389 123.842 89.4325 123.369C89.826 122.818 90.6919 122.503 91.0068 121.874C91.3216 121.244 91.7152 120.536 91.8727 119.906C92.1088 119.197 92.1088 118.489 92.1088 117.781C92.1088 117.072 91.6365 116.442 91.4791 115.734C91.3216 115.104 91.0068 114.632 90.6919 114.002C90.3771 113.451 90.4558 112.664 90.0622 112.192C89.6686 111.719 89.3537 111.09 88.8027 110.617C88.3304 110.224 87.5433 110.224 86.9923 109.83C86.4412 109.515 86.1264 108.807 85.4966 108.492C84.9456 108.256 84.3946 107.784 83.6862 107.626C83.2926 107.469 83.0565 107.39 83.0565 107.075C83.0565 106.682 83.2926 106.209 83.6075 106.131C84.3159 105.973 84.8669 105.501 85.4966 105.186C86.2051 104.95 87.071 105.107 87.622 104.792C88.2517 104.477 88.724 103.769 89.275 103.375C89.9048 102.903 90.6919 102.824 91.2429 102.352C91.7939 101.801 92.1875 101.171 92.5811 100.62C93.0534 99.9907 93.3683 99.3609 93.6044 98.7312C93.9193 98.1015 94.3129 97.393 94.549 96.7633C94.7064 96.0549 94.9426 95.2677 94.9426 94.638C94.9426 93.8508 94.3129 93.2211 94.2341 92.5126C94.0767 91.8042 94.0767 91.017 93.7618 90.3873C93.447 89.7576 92.896 89.2066 92.4237 88.6556C91.9514 88.1045 91.5578 87.5535 90.9281 87.0812C90.377 86.6089 89.9835 85.9005 89.275 85.5856C88.6453 85.2708 87.8581 85.2708 87.1497 84.9559C86.8348 84.7985 86.9135 84.4836 86.9135 84.09C86.9135 83.6964 86.5987 83.0667 86.9135 82.9093C87.3071 82.7518 87.9368 82.5944 88.6453 82.1221C89.1176 81.8073 89.5899 81.335 90.1409 80.9414C90.6132 80.5478 91.5578 80.6265 92.0301 80.2329C92.5024 79.8394 92.896 79.2096 93.2895 78.7373C93.7618 78.265 94.0767 77.6353 94.3916 77.0843C94.7064 76.5333 95.1787 75.9035 95.2574 75.2738C95.4149 74.6441 95.0213 73.9356 95.1 73.3059C95.1787 72.5975 95.651 72.0465 95.651 71.4167C95.651 70.7083 95.1 70.1573 94.9426 69.6063C94.7851 68.9765 94.7064 68.3468 94.4703 67.7958C94.2341 67.2448 94.0767 66.5363 93.6831 66.064C93.2895 65.5917 92.7385 65.0407 92.1875 64.6471C91.6365 64.2536 91.0855 63.9387 90.377 63.6238C89.826 63.309 89.1176 63.309 88.4091 63.1515C87.7794 62.9154 87.3071 62.2069 86.5987 62.0495C85.9689 61.8921 85.2605 62.0495 84.5521 61.9708C83.9223 61.8921 83.2139 61.7347 82.5054 61.6559C81.8757 61.5772 81.1673 62.1282 80.4588 62.1282C79.8291 62.1282 79.1206 61.8134 78.4122 61.8134C78.3335 61.8134 78.2548 61.9708 78.2548 61.9708C77.2315 61.8134 77.3102 61.3411 76.2869 61.1836C75.2636 61.0262 75.2636 60.9475 74.2402 60.7901C73.2169 60.6326 73.1382 60.9475 72.1149 60.7901C71.0916 60.6326 71.0916 60.3965 70.0683 60.239C69.045 60.0816 68.9663 60.6326 67.943 60.4752C66.9197 60.3178 66.9197 60.0816 65.8963 59.9242C64.873 59.7667 64.873 59.8455 63.8497 59.688C62.8264 59.5306 62.8264 59.4519 61.8031 59.2945C60.7798 59.137 60.8585 58.6647 59.8352 58.5073C58.8119 58.3499 58.7332 58.9009 57.7099 58.7434C56.6866 58.586 56.6866 58.586 55.6632 58.4286C54.6399 58.2711 54.6399 58.3499 53.6166 58.1924C52.5933 58.035 52.672 57.484 51.6487 57.3266C50.6254 57.1691 50.0744 58.2711 49.366 57.484C48.8149 56.8543 49.0511 56.0671 49.7595 55.6735C50.6254 55.1225 50.7829 56.0671 51.8062 56.2245C52.8295 56.382 52.9082 56.0671 53.9315 56.2245C54.9548 56.382 54.9548 56.6181 55.9781 56.7755C57.0014 56.933 57.0014 57.0904 58.0247 57.2478C59.048 57.4053 59.048 57.3265 60.0714 57.4053C61.0947 57.5627 61.1734 57.0904 62.1967 57.2478C63.22 57.4053 63.1413 58.035 64.1646 58.1924C65.1879 58.3499 65.2666 57.7201 66.2899 57.8776C67.3132 58.035 67.3132 58.1137 68.3365 58.2711C69.3599 58.4286 69.2811 58.9009 70.3044 59.0583C71.3278 59.2157 71.4065 58.6647 72.4298 58.8222C73.4531 58.9796 73.4531 58.8222 74.5551 58.9796L76.6017 59.2945C76.6017 59.2945 77.5463 59.9242 78.6483 60.0029C79.4355 60.0029 80.144 59.9242 80.8524 59.9242C81.6396 59.9242 82.348 60.239 83.0565 60.3178C83.8436 60.3965 84.5521 60.4752 85.2605 60.5539C86.0477 60.6326 86.7561 60.6326 87.4646 60.8688C88.173 61.0262 88.9602 61.0262 89.6686 61.2624C90.377 61.4985 91.1642 61.7347 91.7939 62.0495C92.5024 62.3644 93.1321 62.8367 93.6831 63.2303C94.3129 63.7026 94.549 64.4897 95.0213 65.0407C95.4936 65.5917 95.8085 66.3002 96.1233 66.9299C96.4382 67.5596 96.8318 68.1894 96.9892 68.9765C97.1466 69.685 97.5402 70.3934 97.5402 71.1806C97.5402 71.889 97.0679 72.5975 96.9892 73.3846C96.9105 74.0931 96.9892 74.8802 96.8318 75.5887C96.6743 76.3758 96.5956 77.163 96.202 77.8714C95.8085 78.5799 95.2574 79.1309 94.7852 79.6819C94.3129 80.3116 93.7618 80.8627 93.2108 81.4137C92.5811 81.9647 92.0301 82.5157 91.4791 82.9093C90.7706 83.3816 90.2983 83.539 89.7473 83.8539C90.4558 84.1687 90.6132 84.8772 91.1642 85.3495C91.7939 85.8218 92.8172 85.8218 93.2895 86.2941C93.8406 86.8451 93.9193 87.7897 94.3129 88.4194C94.7064 89.0491 95.5723 89.4427 95.8872 90.1512C96.202 90.8596 95.8085 91.7255 95.8872 92.5126C96.0446 93.2211 96.2808 93.9295 96.202 94.7167C96.202 95.4251 95.8085 96.0549 95.651 96.7633C95.4936 97.4718 95.8872 98.3376 95.651 98.9674C95.4149 99.5971 94.9426 100.227 94.6277 100.857C94.2341 101.486 93.6831 101.959 93.2108 102.51C92.7385 103.061 91.9514 103.218 91.4004 103.69C90.8493 104.163 90.6919 105.107 90.1409 105.501C89.5899 105.894 88.724 105.894 88.0943 106.209C87.4646 106.524 87.2284 106.996 86.5987 107.233C87.3071 107.547 87.4646 108.177 88.0156 108.571C88.6453 108.964 89.1963 109.437 89.7473 109.909C90.2983 110.46 91.0068 110.775 91.4791 111.326C91.9514 111.956 92.2662 112.585 92.5811 113.294C92.896 114.002 93.0534 114.711 93.2108 115.419C93.3683 116.049 93.6831 116.678 93.6831 117.466C93.6831 118.095 93.447 118.804 93.2895 119.512C93.1321 120.142 92.8172 120.693 92.5024 121.401C92.2662 122.031 92.1875 122.74 91.7939 123.369C91.4791 123.92 91.2429 124.629 90.8493 125.259C90.4558 125.731 89.5899 125.888 89.0389 126.439C88.8814 126.754 88.4879 127.62 87.9369 128.092V128.092Z" fill="#2B292D"/>
<path d="M87.7798 84.8772C86.9927 85.507 86.6778 85.1921 85.6545 85.1134C84.6312 85.1134 84.6312 84.7985 83.6079 84.7198C82.5846 84.7198 82.5846 84.7198 81.5612 84.7198C80.5379 84.7198 80.5379 84.3262 79.5146 84.3262C78.4913 84.3262 78.4913 84.4049 77.468 84.4049C76.4447 84.4049 76.4447 84.7198 75.4214 84.6411C74.3981 84.6411 74.3981 84.5624 73.3748 84.5624C72.3515 84.5624 72.3515 84.4837 71.3282 84.4837C70.3048 84.4837 70.3048 84.0901 69.2815 84.0114C68.2582 84.0114 68.2582 84.0114 67.2349 84.0114C66.2116 84.0114 66.2116 84.6411 65.1883 84.6411C64.165 84.6411 64.165 84.3262 63.1417 84.3262C62.1184 84.3262 62.1184 84.5624 61.0951 84.5624C60.0718 84.5624 60.0717 84.1688 59.0484 84.1688C58.0251 84.1688 58.0251 84.1688 57.0018 84.1688C55.9785 84.1688 55.9785 83.7752 54.9552 83.7752C53.9319 83.7752 53.9319 84.2475 52.9086 84.2475C51.8853 84.2475 51.8853 84.4049 50.862 84.4049C49.8387 84.4049 49.7599 84.5624 48.9728 83.8539C48.3431 83.3029 48.1856 82.8306 48.8941 82.2796C49.6812 81.6499 49.9174 82.1222 50.9407 82.1222C51.964 82.1222 51.964 82.0435 52.9873 82.0435C54.0106 82.0435 54.0106 82.5945 55.0339 82.6732C56.0572 82.6732 56.0572 82.2009 57.0805 82.2009C58.1038 82.2009 58.1038 82.1222 59.1272 82.2009C60.1505 82.2009 60.1505 82.437 61.1738 82.5158C62.1971 82.5158 62.1971 82.7519 63.2204 82.7519C64.2437 82.7519 64.2437 82.2796 65.267 82.2796C66.2903 82.2796 66.2903 82.9093 67.3136 82.9093C68.3369 82.9093 68.3369 82.5945 69.3602 82.5945C70.3836 82.5945 70.3836 82.9093 71.4069 82.9093C72.4302 82.9093 72.4302 82.9093 73.4535 82.9881C74.4768 82.9881 74.4768 82.7519 75.5001 82.7519C76.5234 82.7519 76.5234 82.5158 77.5467 82.5158C78.57 82.5158 78.57 83.0668 79.5933 83.1455H81.64C82.6633 83.1455 82.6633 83.3029 83.6866 83.3029C84.7099 83.3029 84.7099 83.0668 85.7332 83.0668C86.7565 83.0668 86.6778 83.0668 87.6224 83.4603C88.4883 83.8539 88.4095 84.3262 87.7798 84.8772Z" fill="#2B292D"/>
<path d="M85.7331 108.177C84.9459 108.807 84.8672 108.177 83.8439 108.177C82.8206 108.177 82.8206 108.098 81.7973 108.098C80.774 108.098 80.774 107.941 79.7507 107.941C78.7274 107.941 78.7274 108.413 77.7041 108.413C76.6808 108.413 76.6808 108.177 75.6574 108.177C74.6341 108.177 74.6341 108.098 73.6108 108.02C72.5875 108.02 72.5875 108.492 71.5642 108.492C70.5409 108.492 70.5409 108.492 69.5176 108.413C68.4943 108.413 68.4943 108.492 67.471 108.492C66.4477 108.492 66.4477 107.941 65.4244 107.941C64.401 107.941 64.401 107.705 63.3777 107.705C62.3544 107.705 62.3544 107.626 61.3311 107.626C60.3078 107.626 60.3078 107.941 59.2845 107.862C58.2612 107.862 58.2612 107.784 57.2379 107.784C56.2146 107.784 56.2146 108.02 55.1913 107.941C54.168 107.941 54.1679 107.941 53.1446 107.941C52.1213 107.941 52.1213 107.469 51.098 107.39C50.0747 107.39 50.0747 108.02 49.0514 108.02C48.0281 108.02 48.0281 108.02 47.2409 107.39C46.6112 106.839 46.4538 106.603 47.0835 106.052C47.8707 105.422 48.0281 106.052 49.0514 106.052C50.0747 106.052 50.0747 106.367 51.098 106.367C52.1213 106.367 52.1213 106.367 53.1446 106.445C54.1679 106.445 54.168 106.288 55.1913 106.367C56.2146 106.367 56.2146 106.524 57.2379 106.524C58.2612 106.524 58.2612 106.445 59.2845 106.445C60.3078 106.445 60.3078 106.288 61.3311 106.288C62.3544 106.288 62.3544 106.367 63.3777 106.367C64.401 106.367 64.401 106.445 65.4244 106.524C66.4477 106.524 66.4477 106.76 67.471 106.76C68.4943 106.76 68.4943 106.682 69.5176 106.682H71.5642H73.6108C74.6341 106.682 74.6341 106.131 75.6574 106.209C76.6808 106.209 76.6808 106.839 77.7041 106.839C78.7274 106.839 78.7274 106.682 79.7507 106.76C80.774 106.76 80.774 106.445 81.7973 106.524C82.8206 106.524 82.8206 106.682 83.8439 106.682C84.8672 106.682 84.8672 106.603 85.8118 106.996C86.6777 107.075 86.4416 107.626 85.7331 108.177V108.177Z" fill="#2B292D"/>
</g>
<defs>
<clipPath id="clip0_530_262">
<rect width="114" height="129.724" fill="white" transform="translate(18.3428 5.13794)"/>
</clipPath>
</defs>
</svg>
