<svg width="151" height="140" viewBox="0 0 151 140" fill="none" xmlns="http://www.w3.org/2000/svg">
<g clip-path="url(#clip0_418_320)">
<path d="M99.1361 133.842C97.6144 133.012 97.6144 133.012 95.9544 132.182C94.4327 131.352 94.7093 130.799 93.1876 129.969C91.6659 129.139 91.8043 128.724 90.2826 127.894C88.7609 127.064 88.7609 127.064 87.1008 126.234C85.5791 125.404 85.0258 126.234 83.5041 125.404C81.9824 124.574 82.3974 123.744 80.8757 122.914C79.354 122.084 79.354 122.084 77.694 121.254C76.5873 120.7 75.2039 121.116 74.0972 121.669C72.4372 122.499 72.1605 121.807 70.5005 122.637C68.8404 123.467 69.3938 124.297 67.7338 125.127C66.0737 125.957 66.0737 125.819 64.4137 126.649C62.7536 127.479 63.0303 127.894 61.3703 128.724C59.7102 129.554 59.4336 129.001 57.7735 129.831C56.1135 130.661 56.3902 131.076 54.7301 131.906C53.0701 132.736 52.9318 132.321 51.2717 133.151C50.165 133.704 49.0584 134.119 48.09 133.704C46.9833 133.289 46.845 132.182 46.845 130.937C46.845 129.139 45.7383 129.139 45.7383 127.202C45.7383 125.404 46.5683 125.404 46.5683 123.467C46.5683 121.669 46.43 121.669 46.43 119.732C46.43 117.934 46.9833 117.934 46.9833 115.997C46.9833 114.199 46.9833 114.199 46.9833 112.262C46.9833 110.325 46.1533 110.325 46.1533 108.527C46.1533 106.729 46.1533 106.729 46.1533 104.792C46.1533 102.855 46.2916 102.855 46.2916 101.057C46.2916 99.12 46.1533 99.12 46.1533 97.3217C46.1533 95.385 46.43 95.385 46.43 93.5866C46.43 91.7882 46.1533 91.7882 46.1533 89.8515C46.1533 87.9148 46.2916 87.9148 46.2916 86.1164C46.2916 84.1797 46.1533 84.1797 46.1533 82.3813C46.1533 80.4446 46.2916 80.4446 46.2916 78.6463C46.2916 76.7096 46.5683 76.7096 46.5683 74.9112C46.5683 72.9745 45.1849 72.5595 46.43 71.1761C47.675 69.9311 48.2283 70.6228 50.0267 70.6228C51.8251 70.6228 51.8251 71.3144 53.6235 71.3144C55.4218 71.3144 55.4218 70.4844 57.2202 70.4844C59.0186 70.4844 59.0186 71.0378 60.8169 71.0378C62.6153 71.0378 62.6153 70.8994 64.4137 70.8994C66.2121 70.8994 66.2121 71.0378 68.0104 71.0378C69.8088 71.0378 69.8088 70.7611 71.6072 70.7611C73.4055 70.7611 73.4055 71.0378 75.2039 71.0378C77.0023 71.0378 77.0023 70.7611 78.8007 70.7611C80.599 70.7611 80.599 71.7294 82.3974 71.7294C84.1958 71.7294 84.1958 71.3144 85.9941 71.3144C87.7925 71.3144 87.7925 70.4844 89.5909 70.4844H93.1876C94.986 70.4844 94.986 70.6228 96.7844 70.6228C98.5828 70.6228 98.5827 71.7294 100.381 71.7294C102.179 71.7294 102.456 70.0694 103.701 71.4528C104.946 72.8361 103.978 73.1128 103.978 74.9112C103.978 76.7096 104.393 76.7096 104.393 78.6463C104.393 80.4446 104.255 80.4446 104.255 82.3813C104.255 84.1797 104.393 84.1797 104.393 86.1164C104.393 87.9148 103.84 87.9148 103.84 89.8515C103.84 91.6499 103.701 91.6499 103.701 93.5866C103.701 95.385 104.531 95.385 104.531 97.3217V101.057C104.531 102.855 104.116 102.855 104.116 104.792C104.116 106.59 103.425 106.59 103.425 108.527C103.425 110.325 104.255 110.325 104.255 112.262C104.255 114.06 103.701 114.06 103.701 115.997C103.701 117.795 104.116 117.795 104.116 119.732C104.116 121.669 104.255 121.669 104.255 123.467C104.255 125.404 103.563 125.404 103.563 127.202C103.563 129.139 104.531 129.139 104.531 130.937C104.531 132.182 103.425 133.566 102.318 134.119C102.041 134.396 100.243 134.396 99.1361 133.842V133.842Z" fill="#F36B7F"/>
<path d="M62.2007 18.6081C62.7541 17.5014 62.2007 17.2247 62.7541 16.118C63.3074 14.873 63.8608 13.628 64.6908 12.6596C65.5208 11.6913 66.9042 11.1379 68.0109 10.4462C69.1176 9.75455 70.3626 9.61621 71.6076 9.2012C72.8526 8.78619 73.9593 8.50952 75.3427 8.50952C76.5877 8.50952 77.8327 8.78619 79.0778 9.2012C80.3228 9.61621 81.9828 9.06287 83.0895 9.75455C84.1962 10.4462 84.8879 11.6913 85.7179 12.7979C86.5479 13.7663 86.6863 15.1497 87.2396 16.3947C87.793 17.5014 88.208 17.363 88.7613 18.4697C89.1763 19.5764 90.1447 20.2681 90.8364 21.0981C91.528 21.9281 91.8047 23.3115 92.7731 24.0032C93.7414 24.6949 94.9864 24.8332 95.9548 25.2482C97.0615 25.6632 98.0298 26.3549 99.1365 26.4932C100.243 26.6316 101.35 26.4932 102.595 26.3549C103.84 26.2166 103.84 26.3549 105.085 26.2166C106.468 26.0782 107.852 25.3865 109.097 25.6632C110.48 25.9399 111.31 27.4616 112.417 28.0149C113.524 28.5683 114.769 28.9833 115.737 29.8133C116.705 30.7817 117.95 31.4733 118.504 32.58C119.195 33.6867 119.195 35.0701 119.472 36.4535C119.749 37.6985 119.334 38.9435 119.334 40.1885C119.334 41.4336 119.749 42.8169 119.334 44.0619C118.919 45.1686 117.812 46.137 116.982 47.2437C116.29 48.212 116.429 48.4887 115.737 49.4571C115.045 50.4254 114.492 51.3938 114.077 52.5005C113.662 53.6072 114.215 54.8522 113.939 55.9589C113.8 57.0656 112.832 58.1723 112.97 59.2789C113.109 60.3856 113.385 61.6307 113.8 62.599C114.215 63.7057 115.599 64.1207 116.29 65.0891C116.982 66.0574 116.014 66.7491 116.844 67.8558C117.674 68.9625 118.365 69.9308 118.78 71.0375C119.195 72.2826 120.025 73.3892 120.164 74.6343C120.164 75.8793 120.164 77.2627 119.749 78.5077C119.472 79.7527 118.365 80.7211 117.812 81.8278C117.12 82.9344 116.429 83.9028 115.599 84.8712C114.63 85.7012 113.524 86.1162 112.417 86.8079C111.31 87.3612 110.203 87.9146 108.958 88.0529C107.437 88.3296 106.192 89.1596 104.808 89.0212C103.563 88.8829 103.702 88.1912 102.457 88.0529C101.35 87.9146 100.105 88.0529 98.9982 88.1912C97.8915 88.3296 96.6465 88.7446 95.6781 89.1596C94.5714 89.5746 93.4647 90.1279 92.6347 90.8196C91.8047 91.5113 91.6664 93.033 90.9747 94.0013C90.283 94.8314 88.8996 95.3847 88.4846 96.3531C87.9313 97.4598 87.9313 97.4598 87.378 98.5665C86.8246 99.8115 86.9629 101.472 86.1329 102.44C85.3029 103.408 83.9195 104.1 82.8128 104.792C81.7062 105.483 80.5995 106.59 79.3544 106.867C78.1094 107.282 76.5877 107.143 75.3427 107.143C74.0977 107.143 72.576 107.005 71.3309 106.59C70.0859 106.175 68.7026 105.76 67.5959 104.93C66.6275 104.377 66.0742 102.993 65.1058 101.887C64.2758 100.918 63.9991 99.6731 63.4458 98.4281C62.8924 97.3214 62.8924 97.3214 62.3391 96.2147C61.9241 95.108 60.679 94.5547 59.9874 93.7247C59.2957 92.8947 58.3273 92.203 57.4973 91.5113C56.529 90.8196 55.8373 89.8513 54.8689 89.4363C53.7622 89.0212 52.6555 89.4362 51.5489 89.2979C50.4422 89.1596 49.3355 88.1912 48.2288 88.3296C46.9838 88.4679 46.9838 88.6062 45.7387 88.7446C44.3554 88.8829 43.1103 88.7446 41.8653 88.4679C40.4819 88.1912 39.3753 87.7762 38.2686 87.0845C37.1619 86.5312 35.5018 86.3929 34.5335 85.5628C33.5651 84.5945 33.2885 83.2111 32.5968 81.9661C31.9051 80.8594 30.7984 79.891 30.5217 78.5077C30.2451 77.2627 30.9367 75.8793 31.0751 74.4959C31.0751 73.2509 31.6284 72.1442 32.0434 70.8992C32.4584 69.7925 32.4584 68.2708 33.1501 67.1641C33.8418 66.1958 34.2568 66.3341 34.9485 65.3657C35.6402 64.3974 36.1935 63.429 36.6085 62.3223C37.1619 61.4923 36.8852 60.2473 37.0235 59.1406C37.1619 58.0339 37.8536 56.9272 37.7152 55.6822C37.5769 54.5755 36.4702 53.6071 36.0552 52.6388C35.6402 51.5321 34.9485 50.8404 34.2568 49.8721C33.5651 48.9037 34.2568 48.212 33.5651 47.2437C32.7351 46.137 31.7668 45.307 31.3517 44.0619C30.9367 42.8169 31.2134 41.4336 31.2134 40.1885C31.2134 38.9435 31.3517 37.6985 31.6284 36.4535C31.9051 35.2084 31.3517 33.5484 32.0434 32.4417C32.7351 31.335 33.5651 30.2283 34.5335 29.26C35.6402 28.5683 37.1619 28.2916 38.2686 27.7383C39.3753 27.1849 40.6203 26.7699 41.8653 26.6316C43.1103 26.3549 44.3554 25.5249 45.7387 25.6632C46.9838 25.8016 46.8454 26.3549 48.0904 26.4932C49.1971 26.6316 50.4422 26.9082 51.5489 26.7699C52.6555 26.6316 53.7622 25.8016 54.7306 25.3865C55.8373 24.9715 56.8056 24.4182 57.774 23.7265C58.604 23.0348 58.8807 21.7898 59.5724 20.8215C60.4024 20.1298 61.7857 19.7148 62.2007 18.6081V18.6081Z" fill="#F8CF61"/>
<path d="M75.3412 109.356C74.0962 109.356 72.9895 108.665 71.7445 108.388C70.4995 108.111 69.3928 107.835 68.2861 107.281C67.1794 106.728 65.9344 106.451 64.966 105.621C63.9977 104.791 63.5826 103.685 62.7526 102.716C62.0609 101.748 61.2309 100.78 60.6776 99.6728C60.1242 98.5661 60.8159 98.2895 60.4009 97.0444C59.8476 95.9378 58.4642 95.3844 57.6342 94.5544C56.8042 93.586 56.5275 92.0643 55.5591 91.3727C54.5908 90.8193 53.0691 91.096 51.8241 90.8193C50.7174 90.5426 49.4723 90.681 48.3657 90.8193C47.1206 90.9577 47.1206 90.266 45.8756 90.4043C44.6306 90.5426 43.5239 91.2343 42.2789 91.096C41.0338 90.9577 40.0655 90.1276 38.9588 89.7126C37.8521 89.2976 36.6071 89.0209 35.6387 88.3293C34.6704 87.6376 34.117 86.5309 33.287 85.7009C32.457 84.8709 31.0736 84.3175 30.5203 83.3492C29.9669 82.2425 30.2436 80.8591 29.8286 79.7524C29.4136 78.6457 28.9986 77.539 28.9986 76.294C28.8602 75.049 28.1686 73.804 28.3069 72.5589C28.4452 71.4522 29.5519 70.3455 30.1053 69.2389C30.5203 68.1322 30.5203 66.7488 31.3503 65.7804C32.042 64.8121 32.872 65.3654 33.5637 64.2587C34.2554 63.2904 35.0854 62.1837 35.5004 61.077C35.7771 60.1087 35.5004 58.7253 35.5004 57.4803C35.5004 56.2352 35.362 54.9902 34.947 53.8835C34.532 52.7768 34.2554 51.3935 33.5637 50.4251C32.872 49.4568 32.5953 49.5951 31.9036 48.4884C31.212 47.5201 30.5203 46.5517 29.9669 45.445C29.5519 44.3383 29.5519 43.0933 29.4136 41.9866C29.2752 40.7416 27.8919 39.6349 28.0302 38.5282C28.1686 37.2832 28.8602 36.1765 29.2752 35.0698C29.6903 33.9631 29.8286 32.7181 30.5203 31.6114C31.0736 30.5047 31.7653 29.398 32.457 28.4296C33.287 27.5996 34.532 26.9079 35.5004 26.3546C36.4687 25.6629 37.7138 25.2479 38.8204 24.8329C39.9271 24.4179 41.0338 23.7262 42.2789 23.5879C43.3855 23.4495 44.7689 23.8645 45.8756 24.0029C47.1206 24.1412 47.1206 24.2796 48.3657 24.4179C49.6107 24.5562 50.7174 23.7262 51.8241 23.4495C53.0691 23.1729 54.3141 23.4495 55.2825 22.8962C56.2508 22.3428 57.3575 21.6512 58.1875 20.6828C59.0175 19.8528 59.0175 18.4694 59.5709 17.3627C60.1242 16.2561 60.5392 16.3944 60.9543 15.2877C61.5076 14.181 62.1993 13.2127 62.891 12.2443C63.5826 11.2759 64.4127 10.3076 65.2427 9.61591C66.211 8.78589 66.7644 7.54086 67.8711 6.98752C68.9778 6.43417 70.3611 6.84918 71.6062 6.57251C72.7128 6.29584 73.9579 5.46582 75.2029 5.46582V6.57251C76.4479 6.57251 77.5546 6.43417 78.6613 6.71085C79.9063 6.98752 81.2897 6.71085 82.258 7.26419C83.3647 7.81754 83.9181 9.2009 84.7481 10.0309C85.7165 10.8609 87.0998 11.1376 87.7915 12.106C88.4832 13.0743 89.3132 14.0427 89.7282 15.1494C90.2816 16.2561 89.5899 16.5327 90.1432 17.6394C90.6966 18.7461 91.5266 19.5761 92.3566 20.4061C93.1866 21.3745 94.0166 22.0662 95.1233 22.6195C96.0917 23.1729 97.1984 23.4495 98.4434 23.7262C99.5501 24.0029 100.657 23.8645 101.902 23.7262C103.147 23.5879 103.147 23.8645 104.392 23.7262C105.637 23.5879 106.882 23.3112 108.127 23.4495C109.372 23.5879 110.34 24.8329 111.447 25.2479C112.554 25.6629 113.799 25.8013 114.767 26.4929C115.735 27.1846 116.98 27.5996 117.81 28.4296C118.64 29.2597 118.502 30.9197 119.056 31.8881C119.609 32.9947 120.162 33.9631 120.577 35.0698C120.992 36.1765 121.269 37.2832 121.407 38.5282C121.546 39.7732 121.546 40.8799 121.269 41.9866C121.131 43.0933 120.577 44.2 120.162 45.3067C119.747 46.4134 119.886 47.9351 119.194 48.9034C118.502 49.8718 117.672 49.3184 116.98 50.2868C116.289 51.2551 115.597 52.5002 115.182 53.6069C114.767 54.7135 115.735 56.0969 115.735 57.3419C115.735 58.587 115.044 59.832 115.459 60.9387C115.874 62.0454 116.842 62.8754 117.672 63.8437C118.364 64.8121 118.364 64.9504 119.056 65.9188C119.747 66.8871 119.471 68.4088 119.886 69.5155C120.301 70.6222 121.407 71.4522 121.684 72.6973C121.822 73.9423 122.099 75.1873 122.099 76.294C121.961 77.539 121.546 78.6457 121.131 79.7524C120.716 80.8591 119.886 81.8275 119.332 82.7958C118.779 83.9025 118.64 85.2859 117.81 86.2542C116.98 87.0842 115.735 87.6376 114.767 88.1909C113.937 89.1593 113.107 90.1276 112 90.5426C110.894 90.9577 109.51 90.4043 108.265 90.5426C107.159 90.681 105.914 91.096 104.669 90.9577C103.424 90.8193 103.423 90.5426 102.178 90.4043C100.933 90.266 99.6884 90.1276 98.4434 90.4043C97.1984 90.681 96.5067 91.926 95.4 92.4794C94.4316 93.0327 93.0483 93.3094 92.2183 94.1394C91.3882 94.9694 91.5266 96.3528 90.9732 97.5978C90.4199 98.7045 90.1432 98.5661 89.5899 99.6728C89.0365 100.78 88.6215 102.025 87.9298 102.855C87.2382 103.823 86.1315 104.515 85.1631 105.206C84.1948 106.036 83.0881 106.313 81.9814 106.866C80.8747 107.42 80.0447 108.665 78.938 108.941C77.8313 109.356 76.5863 109.356 75.3412 109.356V109.356ZM49.749 85.8392C50.994 85.8392 52.1007 86.5309 53.3458 86.8076C54.4525 87.0842 55.6975 87.3609 56.6658 87.9143C57.7725 88.4676 59.0175 88.7443 59.9859 89.5743C60.9543 90.266 61.3693 91.511 62.1993 92.4794C62.891 93.4477 63.721 94.4161 64.2743 95.5228C64.8277 96.6294 64.136 96.9061 64.551 98.1511C64.966 99.1195 66.4877 99.5345 67.1794 100.365C67.8711 101.195 68.0094 102.855 68.8394 103.408C69.8078 103.961 71.1911 103.823 72.1595 104.1C73.1279 104.376 74.2345 104.376 75.3412 104.376C76.4479 104.376 77.6929 104.791 78.6613 104.515C79.768 104.238 80.4597 103.131 81.428 102.578C82.3964 102.025 83.5031 101.748 84.3331 100.78C85.0248 99.9495 85.3014 98.8428 85.8548 97.7361C86.4081 96.6294 86.8231 96.7678 87.3765 95.6611C87.9298 94.4161 87.9298 92.8944 88.6215 91.926C89.4515 90.8193 90.9732 90.5426 91.9416 89.7126C93.0483 88.8826 93.8783 88.0526 95.1233 87.6376C96.3684 87.0842 97.475 85.9775 98.7201 85.7009C99.9651 85.5625 101.348 86.2542 102.732 86.3926C103.977 86.5309 104.115 85.8392 105.36 85.9775C106.467 86.1159 107.574 86.9459 108.68 86.8076C109.787 86.6692 111.032 86.3926 112 85.8392C112.969 85.2859 113.66 84.3175 114.49 83.4875C115.32 82.7958 116.012 81.8275 116.565 80.8591C117.119 79.8908 117.949 78.9224 118.087 77.8157C118.364 76.709 118.225 75.464 118.225 74.3573C118.225 73.2506 117.81 72.1439 117.395 71.1756C116.98 70.2072 116.842 68.8238 116.15 67.9938C115.459 67.0255 114.352 67.7172 113.66 66.7488C112.83 65.6421 112.692 64.1204 112.277 63.0137C111.724 61.7687 111.17 60.5237 111.032 59.2786C110.894 58.0336 110.617 56.5119 110.755 55.2669C110.894 54.0219 111.585 52.6385 112.139 51.3935C112.554 50.1484 113.522 49.1801 114.214 48.0734C114.905 47.105 114.629 46.8284 115.459 45.86C116.15 44.8917 116.98 44.2 117.257 43.2316C117.672 42.1249 118.087 41.1566 118.087 40.0499C118.087 38.9432 117.257 37.9748 116.98 37.0065C116.704 35.8998 116.98 34.7931 116.427 33.8248C115.874 32.8564 115.182 31.8881 114.49 31.1964C113.66 30.3664 112.415 30.3664 111.447 29.813C110.479 29.2597 109.649 28.568 108.542 28.4296C107.435 28.2913 106.329 28.0146 105.222 28.153C103.977 28.2913 103.977 28.4296 102.732 28.568C101.348 28.7063 99.9651 29.398 98.7201 29.2597C97.475 29.1213 96.3684 27.8763 95.1233 27.4613C93.8783 26.9079 92.3566 26.9079 91.2499 26.0779C90.2816 25.2479 90.0049 23.5879 89.1749 22.6195C88.3448 21.6512 87.5148 20.6828 86.9615 19.4378C86.4081 18.3311 85.8548 18.6078 85.3014 17.3627C84.8864 16.3944 85.0248 14.8727 84.3331 14.181C83.6414 13.2127 82.258 13.0743 81.2897 12.3826C80.3213 11.8293 79.353 11.5526 78.3846 11.2759C77.4163 10.9993 76.4479 10.1693 75.3412 10.1693C74.2345 10.1693 73.1279 10.5843 72.1595 10.9993C71.0528 11.2759 70.0845 11.691 69.2544 12.3826C68.2861 12.936 67.7327 13.766 67.0411 14.596C66.3494 15.426 66.0727 16.3944 65.5194 17.3627C64.966 18.4694 64.6893 18.3311 64.2743 19.5761C63.721 20.8211 63.1676 22.0662 62.3376 23.1729C61.5076 24.2796 59.8476 24.4179 58.8792 25.2479C57.7725 26.0779 56.9425 27.0463 55.6975 27.5996C54.4525 28.153 53.3458 28.983 51.9624 29.1213C50.7174 29.2597 49.334 28.2913 48.089 28.153C46.844 28.0146 46.844 28.153 45.5989 28.0146C44.4922 27.8763 43.2472 28.0146 42.1405 28.2913C41.0338 28.4296 39.9271 28.983 38.9588 29.398C37.9904 29.6747 37.0221 30.228 36.1921 31.058C35.362 31.7497 35.5004 33.2714 34.947 34.2398C34.3937 35.2081 33.1487 35.8998 32.872 36.8682C32.5953 37.9749 32.457 39.2199 32.457 40.3266C32.457 41.4333 33.8403 42.2633 34.2554 43.2316C34.6704 44.2 34.3937 45.5833 35.0854 46.4134C35.777 47.3817 36.3304 47.105 37.0221 48.0734C37.8521 49.1801 38.4054 50.4251 38.9588 51.6701C39.5121 52.9152 38.8204 54.4369 38.9588 55.6819C39.0971 56.9269 39.9271 58.1719 39.7888 59.5553C39.6505 60.8003 39.3738 62.1837 38.9588 63.4287C38.5438 64.6738 37.5754 65.6421 36.7454 66.7488C36.0537 67.7172 35.6387 67.5788 34.947 68.5472C34.2554 69.5155 34.532 70.7606 34.117 71.8672C33.702 72.9739 33.0103 73.804 33.0103 74.9106C33.0103 76.0173 33.5637 76.9857 33.8403 78.0924C34.117 79.1991 33.702 80.4441 34.2554 81.4125C34.8087 82.2425 35.777 82.9341 36.4687 83.6258C37.2987 84.4558 37.9904 85.2859 38.9588 85.7009C39.9271 86.2542 41.0338 86.6692 42.1405 86.9459C43.2472 87.0842 44.3539 86.2542 45.4606 86.2542C46.7056 86.1159 46.844 86.8076 48.089 86.6692C48.6423 86.6692 49.1957 85.8392 49.749 85.8392V85.8392Z" fill="#2B292D"/>
<path d="M75.0642 86.1158C73.8192 86.1158 72.7125 85.9775 71.6058 85.8392C70.3608 85.7008 69.1158 86.1158 68.0091 85.8392C66.9024 85.5625 65.934 84.5942 64.8274 84.1791C63.7207 83.7641 62.199 84.1791 61.2306 83.6258C60.1239 83.0725 59.7089 81.5508 58.7406 80.8591C57.7722 80.1674 56.2505 80.1674 55.4205 79.4757C54.5905 78.6457 53.7604 77.8157 52.9304 76.8473C52.1004 76.0173 52.2387 74.4956 51.5471 73.5272C50.8554 72.5589 50.1637 71.7289 49.6104 70.6222C49.057 69.5155 48.5037 68.5471 48.0887 67.4404C47.6736 66.3338 47.1203 65.3654 46.8436 64.1204C46.567 63.0137 45.8753 61.907 45.7369 60.662C45.5986 59.5553 45.1836 58.3103 45.1836 57.0652C45.1836 55.8202 45.3219 54.5752 45.4603 53.4685C45.5986 52.2235 46.1519 51.1168 46.4286 50.0101C46.7053 48.9034 46.7053 47.52 47.1203 46.4133C47.5353 45.3066 48.5037 44.3383 49.057 43.3699C49.6104 42.2632 49.887 41.0182 50.5787 40.0499C51.2704 39.0815 52.1004 38.1132 52.7921 37.2831C53.6221 36.4531 54.8671 35.8998 55.6972 35.2081C56.5272 34.3781 57.6339 33.8247 58.6022 33.133C59.5706 32.4414 60.6773 32.0264 61.6456 31.473C62.7523 30.9197 63.5823 30.0897 64.689 29.6746C65.7957 29.2596 66.9024 28.7063 68.0091 28.4296C69.1158 28.1529 70.3608 27.8763 71.4675 27.7379C72.5742 27.5996 73.8192 28.0146 75.0642 28.0146C76.3093 28.0146 77.5543 27.1846 78.661 27.3229C79.906 27.4613 80.8744 28.568 81.9811 28.8446C83.0877 29.1213 84.4711 28.983 85.5778 29.398C86.6845 29.813 87.6528 30.5047 88.7595 31.058C89.8662 31.6114 91.1113 31.888 92.0796 32.5797C93.048 33.2714 93.7396 34.3781 94.5697 35.2081C95.3997 36.0381 96.6447 36.4531 97.4747 37.4215C98.3047 38.2515 98.9964 39.3582 99.6881 40.3265C100.38 41.2949 100.656 42.5399 101.21 43.6466C101.763 44.7533 101.763 45.9983 102.178 47.105C102.593 48.2117 103.147 49.1801 103.423 50.4251C103.7 51.5318 103.562 52.7768 103.7 53.8835C103.838 54.9902 103.7 56.2352 103.7 57.3419C103.7 58.5869 104.115 59.6936 103.977 60.9386C103.838 62.1837 103.147 63.152 102.87 64.2587C102.593 65.3654 102.732 66.6104 102.316 67.7171C101.901 68.8238 101.21 69.7922 100.656 70.7605C100.103 71.8672 99.8264 72.9739 99.1348 73.9423C98.4431 74.9106 97.4747 75.6023 96.6447 76.4323C95.8147 77.2623 95.2613 78.369 94.4313 79.199C93.6013 80.0291 92.6329 80.7207 91.6646 81.2741C90.6962 81.9658 89.8662 82.7958 88.7595 83.3491C87.6528 83.9025 86.5462 84.1791 85.4395 84.5942C84.3328 85.0092 83.2261 85.7008 82.1194 85.9775C81.0127 86.2542 79.6293 85.8392 78.5226 85.9775C77.416 85.9775 76.3093 86.1158 75.0642 86.1158ZM75.0642 31.473C73.8192 31.473 72.5742 31.473 71.4675 31.6113C70.2225 31.7497 69.2541 32.5797 68.0091 32.9947C66.9024 33.2714 65.519 33.133 64.4123 33.6864C63.3057 34.2397 62.7523 35.6231 61.784 36.3148C60.8156 37.0065 59.1556 36.8681 58.1872 37.6981C57.2189 38.5282 57.0805 40.0499 56.2505 40.8799C55.4205 41.8482 54.7288 42.6783 54.0371 43.6466C53.3454 44.615 51.9621 45.3066 51.4087 46.4133C50.8554 47.52 50.5787 48.7651 50.302 49.8717C50.0254 50.9784 49.7487 52.2235 49.6104 53.4685C49.472 54.5752 49.6104 55.9585 49.6104 57.0652C49.6104 58.3103 50.1637 59.4169 50.4404 60.662C50.5787 61.907 51.1321 62.8754 51.4087 64.1204C51.6854 65.2271 52.1004 66.3338 52.6538 67.4404C53.2071 68.5471 53.4838 69.6538 54.0371 70.6222C54.7288 71.5905 55.6972 72.2822 56.3888 73.2506C57.2189 74.2189 57.6339 75.3256 58.4639 76.1556C59.4322 76.9857 60.5389 77.2623 61.5073 77.954C62.4756 78.6457 63.444 79.199 64.5507 79.614C65.6574 80.1674 66.4874 81.1357 67.7324 81.4124C68.8391 81.6891 70.0841 82.2424 71.1908 82.3808C72.2975 82.5191 73.5425 82.7958 74.7876 82.7958C76.0326 82.7958 77.2776 82.3808 78.3843 82.1041C79.6293 81.9658 80.736 81.4124 81.8427 81.1357C82.9494 80.8591 84.0561 80.4441 85.1628 79.8907C86.2695 79.3374 87.5145 79.199 88.6212 78.5074C89.5895 77.8157 90.0046 76.4323 90.9729 75.6023C91.9413 74.7723 93.3246 74.6339 94.1547 73.6656C94.9847 72.6972 95.2613 71.4522 95.953 70.4838C96.6447 69.5155 97.3364 68.5471 97.8897 67.4404C98.4431 66.3338 98.4431 65.0887 98.7197 63.982C98.9964 62.8754 99.8264 61.7687 99.9648 60.662C100.103 59.5553 99.6881 58.3103 99.6881 57.0652C99.6881 55.8202 99.6881 54.7135 99.5498 53.6068C99.4114 52.3618 99.5498 51.2551 99.1348 50.0101C98.8581 48.9034 98.8581 47.52 98.3047 46.4133C97.7514 45.3066 96.9214 44.3383 96.368 43.3699C95.6763 42.4016 95.2613 41.1566 94.4313 40.3265C93.6013 39.3582 92.9096 38.3898 91.9413 37.5598C90.9729 36.7298 89.7279 36.4531 88.7595 35.7614C87.7912 35.0698 86.9612 34.1014 85.8545 33.5481C84.7478 32.9947 83.3644 33.1331 82.2577 32.718C81.151 32.4414 79.906 31.888 78.7993 31.6113C77.5543 31.6113 76.3093 31.473 75.0642 31.473V31.473Z" fill="#2B292D"/>
</g>
<defs>
<clipPath id="clip0_418_320">
<rect width="93.3606" height="127.684" fill="white" transform="translate(28.6621 6.15771)"/>
</clipPath>
</defs>
</svg>
