<svg width="160" height="140" viewBox="0 0 160 140" fill="none" xmlns="http://www.w3.org/2000/svg">
<g clip-path="url(#clip0_418_303)">
<path d="M146.053 47.1416C146.021 46.9972 145.974 46.8516 145.895 46.702C145.778 46.477 145.418 46.4197 145.317 46.1819C145.182 45.8676 145.327 45.5973 145.243 45.314C145.039 44.6227 144.692 44.415 144.335 43.8172C143.994 43.2483 144.097 42.6876 143.79 42.1433C143.556 41.728 143.058 41.5079 142.78 41.109C142.512 40.7246 142.517 40.2214 142.177 39.8501C141.966 39.6186 141.524 39.6512 141.308 39.4097C141.041 39.1096 141.113 38.7577 140.917 38.4549C140.467 37.7548 139.856 37.8122 139.336 37.2212C138.822 36.6382 138.677 36.2769 138.078 35.8C137.812 35.5885 137.562 35.5723 137.302 35.2911C137.058 35.0284 137.094 34.5862 136.786 34.3439C136.372 34.0188 135.759 34.1698 135.325 33.8547C134.898 33.5455 134.847 32.9313 134.344 32.6623C133.825 32.384 133.44 32.5272 132.933 32.1251C132.39 31.6943 132.426 31.5123 131.744 31.2524C131.099 31.0063 130.998 30.9525 130.435 30.5539C129.84 30.1317 129.706 30.2627 129.048 30.0496C128.427 29.8481 128.343 29.4516 127.82 29.1673C127.272 28.8685 126.841 29.1662 126.303 28.9824C125.774 28.8006 125.596 28.2019 125.089 28.018C124.582 27.8338 124.062 28.1785 123.54 27.9764C123.012 27.7722 122.87 27.2667 122.261 27.1403C121.678 27.0196 121.359 27.2639 120.756 27.0166C120.092 26.7442 120.029 26.6137 119.294 26.5119C118.602 26.4153 118.442 26.2592 117.807 26.0414C117.206 25.8358 116.626 26.1525 116.023 25.9903C115.501 25.8506 115.149 25.3662 114.588 25.3047C114.198 25.262 113.838 25.62 113.445 25.5656C113.069 25.5139 112.893 25.1824 112.584 25.1137C111.862 24.9527 111.336 25.3044 110.623 25.1888C110.302 25.1361 110.097 24.7467 109.789 24.684C109.342 24.5936 109.137 24.7884 108.725 24.8023C107.941 24.8289 107.536 24.4243 106.787 24.397C106.392 24.3828 106.07 24.7719 105.68 24.7662C105.291 24.7615 105.097 24.5124 104.763 24.4611C103.952 24.3359 103.48 24.7038 102.69 24.6688C102.18 24.6456 101.777 24.2709 101.274 24.2594C100.773 24.2477 100.395 24.6584 99.8819 24.6194C99.3349 24.5773 99.1151 24.2122 98.5089 24.2986C97.9217 24.3817 97.7125 24.6786 97.0744 24.6364C96.4623 24.5958 96.3386 24.3645 95.6809 24.5006C95.0481 24.6323 94.9215 24.7556 94.2643 24.7253C93.2533 24.6791 92.4756 24.9086 91.4605 24.8903C90.7865 24.8785 90.7054 25.0019 90.0652 25.1732C89.2113 25.4027 88.231 25.0971 87.3261 25.2713C86.2167 25.4847 85.1683 25.9531 84.047 26.1135C82.739 26.3005 81.2693 26.1615 79.9585 26.5876C79.6237 26.6963 79.3654 26.9891 79.0122 27.0693C78.6501 27.1515 78.2547 26.9637 77.9422 27.0361C77.3181 27.1807 76.9875 27.5885 76.3386 27.7226C75.5613 27.8832 75.0689 27.855 74.2867 28.1296C73.7478 28.3186 73.1172 28.1299 72.5929 28.3456C72.1426 28.5304 71.9025 29.0466 71.4352 29.1854C71.0101 29.3117 70.4453 28.9741 70.0209 29.1055C69.5984 29.2362 69.322 29.8338 68.8992 29.9698C68.4784 30.1052 67.9055 29.7811 67.4834 29.9222C67.0642 30.0623 66.8018 30.6667 66.3823 30.8122C65.9619 30.9581 65.3809 30.6473 64.964 30.7972C64.4861 30.9693 64.1156 31.427 63.6285 31.6278C63.0507 31.8663 62.3864 31.9559 61.793 32.2073C60.7614 32.6446 59.7294 33.0809 58.6986 33.5178C58.2537 33.706 57.8079 33.8945 57.3633 34.0837C56.9398 34.2634 56.5151 34.4425 56.0916 34.6222C55.6643 34.8032 55.2333 34.9856 54.8529 35.2498C54.141 35.7423 53.5182 35.6557 52.8814 35.9528C52.4178 36.1697 52.2935 36.76 51.8702 36.9862C51.4165 37.2283 50.7534 37.1567 50.248 37.3595C49.07 37.8327 48.253 38.712 47.2038 39.3671C46.674 39.698 46.2029 39.6031 45.6784 39.8517C44.8105 40.2639 43.6962 41.1892 42.9585 41.769C42.2202 42.3501 41.3624 42.8127 40.5176 43.4561C39.6067 44.15 38.6293 44.887 37.6859 45.463C37.0939 45.825 36.778 46.141 36.3064 46.5269C35.8677 46.8855 35.4818 46.9082 35.0112 47.2143C34.5468 47.5172 34.4898 48.0821 34.0966 48.4164C33.6424 48.8037 33.104 48.7068 32.6552 49.0424C32.2434 49.3504 32.1486 49.9315 31.6678 50.2878C31.1149 50.6987 30.7708 50.8234 30.3359 51.3425C29.7623 52.0263 29.1079 52.7243 28.486 53.3602C27.9962 53.8614 27.4203 53.9617 26.9391 54.3964C26.6526 54.6567 26.7047 54.9593 26.5027 55.2316C26.0419 55.8529 25.487 55.9099 24.9932 56.4517C24.7211 56.7503 24.8434 57.2096 24.6269 57.5102C24.3896 57.8391 24.1269 57.8689 23.8614 58.1229C23.5907 58.383 23.3424 58.3993 23.1087 58.7418C22.9328 59.0007 23.0639 59.4241 22.8732 59.6861C22.5867 60.0776 22.1163 60.0429 21.8159 60.3609C21.5565 60.635 21.6033 60.9257 21.4127 61.1972C20.9813 61.8115 20.244 62.3255 19.9147 62.9997C19.7552 63.327 19.8754 63.768 19.6823 64.0689C19.4833 64.3771 19.0806 64.3877 18.9014 64.634C18.4964 65.1905 18.5268 65.7663 18.1844 66.372C17.8203 67.0159 17.5201 67.6609 17.1709 68.3324C16.911 68.8311 16.281 69.0624 16.0544 69.5718C15.838 70.0586 16.1042 70.5727 15.8965 71.0481C15.7174 71.4563 15.0971 71.6757 14.9328 72.0841C14.7671 72.4972 15.0639 73.0844 14.9143 73.4983C14.7622 73.9173 14.1582 74.1776 14.0232 74.597C13.8863 75.0202 14.2233 75.586 14.1032 76.0087C13.9819 76.4372 13.3984 76.7412 13.2951 77.1697C13.1641 77.7105 13.5495 78.2267 13.4159 78.7875C13.3103 79.2274 12.809 79.4574 12.7654 79.9604C12.7247 80.4318 13.119 80.8179 13.0419 81.322C12.9854 81.6899 12.5399 81.9344 12.4957 82.3074C12.4467 82.7214 12.7177 82.929 12.7579 83.2982C12.838 84.0325 12.3899 84.4526 12.4137 85.1345C12.4289 85.578 12.8791 85.8536 12.9344 86.2695C12.9813 86.6364 12.7541 86.8634 12.7489 87.1933C12.737 87.9521 13.2091 88.6785 13.3456 89.426C13.5351 90.4664 13.5696 91.515 13.8349 92.5481C14.0006 93.1967 14.3111 93.2466 14.5965 93.8071C14.8748 94.353 14.7116 94.923 15.0192 95.4863C15.3032 96.0059 15.7479 96.2231 15.9613 96.817C16.2058 97.4974 16.2087 97.6245 16.6143 98.2173C16.9923 98.77 17.154 99.5808 17.5891 100.072C17.9441 100.473 18.4303 100.535 18.7898 100.974C19.1994 101.474 19.2725 102.02 19.7786 102.451C20.2123 102.819 20.5865 102.931 21.0139 103.443C21.4247 103.935 21.9207 104.129 22.322 104.517C22.7617 104.942 22.8972 105.497 23.3945 105.878C24.3113 106.581 25.6255 106.903 26.5638 107.658C27.0793 108.073 27.2926 108.605 27.9291 108.86C28.4122 109.053 28.8213 108.89 29.2847 109.182C29.5897 109.375 29.64 109.847 29.9992 110.025C30.3937 110.219 31.003 109.971 31.4072 110.157C31.8073 110.34 32.0153 110.964 32.4261 111.138C32.8307 111.31 33.425 111.027 33.8403 111.19C34.2496 111.351 34.4917 111.964 34.9107 112.116C35.4402 112.309 35.9809 111.985 36.5349 112.187C37.128 112.405 37.5152 112.783 38.1065 112.953C38.5822 113.088 39.1688 113.269 39.7007 113.423C40.3231 113.603 40.9658 113.402 41.5924 113.595C42.671 113.924 43.6714 114.266 44.6633 114.541C45.3576 114.733 45.9851 114.48 46.669 114.624C47.1668 114.728 47.4228 115.1 47.9214 115.198C48.4575 115.303 49.0942 115.155 49.7033 115.288C50.3476 115.427 50.741 115.475 51.4183 115.438C53.9893 115.298 56.4458 115.81 58.9296 115.781C60.6121 115.762 62.2805 115.516 63.9603 115.451C64.6791 115.424 65.4247 115.538 66.135 115.49C66.8008 115.444 67.4212 115.072 68.0742 115.066C68.392 115.064 68.6731 115.404 68.9996 115.384C69.8098 115.334 70.8053 115.146 71.6185 115.019C72.2378 114.921 72.604 114.503 73.2335 114.414C73.8996 114.321 74.3554 114.609 75.0514 114.394C75.3286 114.309 75.4846 114.029 75.8039 113.97C76.0993 113.915 76.3271 114.233 76.5924 114.205C77.3207 114.126 77.8453 113.578 78.5607 113.499C79.2362 113.423 79.4529 113.633 80.1279 113.412C80.7743 113.201 81.1231 113.144 81.833 113.064C82.5499 112.983 82.8168 112.538 83.4312 112.377C84.063 112.212 84.5425 112.53 85.2182 112.311C85.817 112.118 86.2639 111.832 86.8956 111.688C87.9852 111.439 88.8396 111.034 90.0077 110.792C93.326 110.102 96.3845 108.34 99.6817 107.474C100.217 107.334 100.307 107.037 100.741 106.778C101.574 106.283 102.402 106.202 103.244 105.713C104.066 105.235 104.847 105.104 105.657 104.596C106.81 103.872 108.208 103.451 109.409 102.894C110.097 102.574 110.416 102.01 111.1 101.69C111.393 101.554 111.772 101.703 112.078 101.532C112.392 101.357 112.46 100.994 112.719 100.822C113.357 100.398 114.043 100.436 114.662 99.9922C114.915 99.8101 114.914 99.3861 115.218 99.2024C115.549 99.003 115.95 99.1888 116.265 99.0373C116.941 98.7128 117.181 98.0812 117.845 97.711C118.141 97.5458 118.51 97.6729 118.83 97.4445C119.096 97.255 119.107 96.8649 119.34 96.659C119.968 96.1046 120.844 95.8558 121.497 95.3498C121.754 95.1506 121.856 94.8739 122.175 94.6702C122.451 94.4938 122.843 94.5536 123.162 94.3267C123.771 93.8911 124.137 93.3418 124.775 92.9438C125.426 92.538 125.684 92.0197 126.342 91.5351C127.862 90.4151 129.219 89.102 130.613 87.834C131.31 87.2006 132.129 86.6328 132.781 85.9592C133.224 85.4993 133.245 85.0465 133.597 84.5932C133.848 84.2723 134.111 84.253 134.386 84.0093C134.736 83.6995 134.927 83.6703 135.212 83.2668C135.392 83.0107 135.296 82.6225 135.525 82.3601C136.035 81.7755 136.534 81.7666 136.97 81.0757C137.199 80.7114 137.14 80.448 137.476 80.1072C137.726 79.8533 138.17 79.8802 138.407 79.5724C138.838 79.0157 138.698 78.4459 139.226 77.8965C139.544 77.5663 139.846 77.5714 140.09 77.132C140.243 76.857 140.077 76.4497 140.242 76.1691C140.52 75.6993 141.161 75.6238 141.438 75.1574C141.686 74.7401 141.455 74.2116 141.7 73.79C141.925 73.4049 142.567 73.2595 142.778 72.874C142.993 72.483 142.77 71.864 142.971 71.4725C143.174 71.076 143.807 70.8947 143.996 70.4977C144.188 70.0956 143.929 69.49 144.106 69.0878C144.374 68.4761 144.887 68.2219 145.116 67.5667C145.595 66.194 145.816 64.7455 146.318 63.3839C146.553 62.7422 146.394 62.2176 146.544 61.6361C146.689 61.0812 147.07 60.7881 147.181 60.2001C147.292 59.6153 147.162 58.8465 147.237 58.251C147.271 57.9853 147.513 57.8274 147.516 57.4981C147.519 57.2091 147.196 56.9676 147.174 56.6674C147.128 56.0873 147.542 55.5902 147.514 55.0314C147.487 54.4555 147.114 54.0961 147.046 53.5406C146.975 52.9472 147.213 52.4877 147.039 51.7807C146.868 51.0864 147.011 50.6135 146.93 50.0044C146.852 49.4143 146.384 48.9491 146.222 48.3489C146.105 47.9228 146.14 47.5368 146.053 47.1416V47.1416ZM63.0264 63.9322C63.0829 64.7636 63.3616 64.7643 63.3096 65.6672C63.2858 66.517 62.8944 66.4749 62.7563 67.3219C62.6446 68.1196 62.8139 68.1561 62.6085 69.0043C62.3773 69.781 62.3427 69.7665 62.0512 70.58C61.7312 71.3176 61.5394 71.2285 61.1794 71.9969C60.795 72.6891 60.7845 72.6832 60.3595 73.4171C59.9216 74.0739 59.912 74.0676 59.4293 74.7633C58.9486 75.3883 58.971 75.407 58.4357 76.0637C57.9211 76.6614 58.0363 76.7707 57.449 77.3904C56.9016 77.9698 56.8651 77.9316 56.2345 78.506C55.6388 79.0376 55.4189 78.7635 54.7453 79.2629C54.1111 79.7231 54.2386 79.9075 53.5112 80.3461C52.8333 80.7506 52.9502 80.9504 52.1935 81.3504C51.48 81.7101 51.3303 81.4096 50.5796 81.7875C49.8543 82.0857 49.9247 82.2581 49.1354 82.5732C48.4035 82.8769 48.4317 82.9613 47.6189 83.221C46.8528 83.4444 46.7755 83.1452 45.9524 83.308C45.1848 83.4599 45.2156 83.6281 44.3817 83.7628C43.6002 83.8625 43.5943 83.8148 42.7597 83.9201C41.9775 83.9872 41.976 83.9676 41.1366 84.0164C40.3529 84.0638 40.3542 84.2264 39.5078 84.2152C38.7178 84.1928 38.7169 84.2175 37.8743 84.1319C37.089 84.0497 37.075 84.1773 36.2348 84.0528C35.4502 83.9238 35.5213 83.5033 34.6983 83.3612C33.9377 83.1826 33.9047 83.3221 33.0848 83.1281C32.2721 82.8999 32.385 82.7157 31.5857 82.4711C30.8443 82.2287 30.7361 82.5087 29.9385 82.2021C29.1988 81.9094 29.1736 81.9498 28.3968 81.5779C27.6739 81.2179 27.8405 80.9199 27.109 80.4835C26.4418 80.0428 26.376 80.1186 25.6794 79.5875C25.0844 79.0012 25.1999 78.8214 24.5564 78.2815C23.9551 77.6253 23.478 77.6352 23.6999 76.8194C23.7944 76.4723 23.9321 76.2255 24.1149 76.0721C24.109 76.0551 24.1 76.0381 24.0938 76.0202L24.0934 76.0192C23.8269 76.1022 23.534 76.045 23.2236 75.7727C22.9255 75.5268 22.8905 75.2489 22.9667 74.9558C23.0586 74.6593 23.2096 74.338 23.1904 73.8981C23.2207 73.0852 23.195 73.0814 23.2946 72.2181C23.4803 71.4414 23.2575 71.3821 23.5017 70.5512C23.7686 69.7949 23.6408 69.744 23.9705 68.949C24.3022 68.218 24.6228 68.3608 25.0011 67.6146C25.3773 66.9295 25.1936 66.827 25.6174 66.0957C26.0426 65.4328 26.0426 65.4328 26.4969 64.7226C26.9633 64.0899 27.0823 64.1766 27.5821 63.5058C28.0603 62.889 27.9725 62.8158 28.5156 62.1722C29.0231 61.5728 28.9717 61.525 29.563 60.923C30.1233 60.3687 30.1371 60.384 30.7794 59.8374C31.3795 59.3275 31.4228 59.3792 32.0822 58.8604C32.7115 58.3923 32.5968 58.2384 33.2778 57.7333C33.935 57.2937 33.945 57.3071 34.6618 56.8532C35.3293 56.4248 35.4647 56.6657 36.2085 56.2743C36.9118 55.9277 36.7907 55.6701 37.5873 55.361C38.3286 55.0689 38.4252 55.3201 39.2136 55.0329C39.9665 54.8109 39.9111 54.6269 40.7279 54.388C41.4942 54.1835 41.534 54.3624 42.3596 54.1914C43.1315 54.0337 43.1346 54.0548 43.9742 53.97C44.7568 53.9039 44.7332 53.5278 45.5925 53.5303C46.3936 53.5361 46.3902 53.8802 47.2273 53.9286C48.0083 53.9921 48.0344 53.6952 48.8842 53.7772C49.6704 53.9046 49.6251 54.1891 50.4541 54.3239C51.2177 54.493 51.3034 54.133 52.137 54.336C52.9099 54.5474 52.7711 54.9893 53.5674 55.2465C54.3095 55.4971 54.3301 55.4498 55.112 55.7692C55.8389 56.0737 55.8609 56.0333 56.6208 56.4175C57.3251 56.785 57.2765 56.8706 57.9998 57.3172C58.6639 57.7548 58.64 57.7927 59.3218 58.3087C59.9249 58.833 60.1098 58.6398 60.7466 59.2519C61.2693 59.9046 61.3156 59.8579 61.8216 60.6117C62.2832 61.3322 62.0111 61.4816 62.3608 62.3034C62.5402 62.6804 62.6311 62.8722 62.7272 63.0728C62.8216 63.2718 62.9469 63.4835 63.0264 63.9322V63.9322Z" fill="#F8CF61"/>
<path d="M115.895 77.8913C115.651 77.2776 115.699 77.2555 115.404 76.7082C115.099 76.1132 114.812 76.2932 114.492 75.787C114.092 75.2823 114.065 75.301 113.658 74.8632C113.206 74.4095 113.28 74.3286 112.809 73.9482C112.314 73.5291 112.287 73.5649 111.794 73.2164C111.228 72.9003 111.168 73.0089 110.63 72.7618C110.043 72.509 110.029 72.5468 109.463 72.3728C108.861 72.1748 108.893 72.0328 108.304 71.891C107.659 71.8172 107.646 71.9306 107.052 71.9103C106.413 71.895 106.413 71.8896 105.819 71.9433C105.182 71.9865 105.18 71.989 104.588 72.0822C103.979 72.2427 103.858 71.9301 103.298 72.1074C102.733 72.3034 102.828 72.5755 102.299 72.7587C101.734 72.9547 101.782 73.0907 101.254 73.2739C100.689 73.4699 100.547 73.0617 100.019 73.2449C99.4539 73.4409 99.5797 73.8037 99.0516 73.9869C98.4866 74.1829 98.4709 74.1375 97.9427 74.3207C97.3778 74.5167 97.2991 74.29 96.771 74.4732C96.206 74.6692 96.2532 74.8052 95.7251 74.9884C95.1601 75.1844 95.1758 75.2297 94.6477 75.4129C94.0821 75.6102 94.0371 75.4713 93.5059 75.6577C92.9043 75.9129 92.8692 75.833 92.323 76.1167C91.7397 76.4217 91.7119 76.3752 91.2007 76.723C90.6406 77.0856 90.9387 77.4659 90.4759 77.8254C90.0278 78.2666 89.8396 78.0842 89.4416 78.5419C89.0265 79.0416 89.1353 79.1235 88.8077 79.6192C88.4441 80.1454 88.5683 80.2167 88.2743 80.7272C88.0299 81.3041 87.6021 81.1297 87.4063 81.7184C87.2007 82.3465 87.2007 82.3465 87.0746 82.9501C86.9354 83.5986 87.2158 83.6379 87.1338 84.2315C87.129 84.8767 87.141 84.8778 87.1853 85.4753C87.2332 86.1139 86.991 86.145 87.1081 86.7511C87.2185 87.4018 87.3623 87.3647 87.5171 87.9513C87.7449 88.5593 87.6518 88.599 87.9071 89.1582C88.2209 89.7362 88.1512 89.7763 88.4999 90.2872C88.8631 90.8461 89.2276 90.5694 89.5952 91.025C90.0139 91.4937 89.854 91.655 90.2908 92.0751C90.7941 92.4795 90.6864 92.6205 91.1996 92.959C91.7428 93.3348 91.8779 93.1048 92.3985 93.3942C92.9727 93.6702 92.8632 93.9315 93.4393 94.1551C94.073 94.3523 94.1712 94.007 94.7489 94.1253C95.3676 94.2673 95.3595 94.3294 95.9537 94.4069C96.5905 94.4422 96.5893 94.6829 97.2048 94.6694C97.8607 94.6102 97.8645 94.6396 98.468 94.5212C99.1204 94.4093 99.0553 94.1514 99.6289 93.9894C100.233 93.8053 100.314 94.1136 100.851 93.9338C101.416 93.7378 101.259 93.2843 101.787 93.1011C102.352 92.9051 102.493 93.3133 103.022 93.1301C103.587 92.9341 103.524 92.7527 104.052 92.5695C104.617 92.3735 104.57 92.2375 105.098 92.0543C105.663 91.8583 105.71 91.9943 106.238 91.8111C106.803 91.6151 106.85 91.7512 107.378 91.568C107.943 91.372 107.817 91.0092 108.346 90.826C108.873 90.6431 109.458 91.3536 109.677 90.7706C109.812 90.4103 109.754 90.1182 109.584 89.8641L109.621 89.8513L109.621 89.851C109.709 90.1213 109.895 90.3584 110.194 90.5237C110.79 90.809 110.837 90.0073 111.341 89.7235C111.893 89.4123 112.064 89.6695 112.58 89.3255C113.086 88.8946 112.835 88.5998 113.245 88.1802C113.696 87.7402 113.866 87.8928 114.252 87.4235C114.653 86.9148 114.552 86.843 114.885 86.3484C115.182 85.7797 115.177 85.7763 115.403 85.2258C115.659 84.6405 115.586 84.6584 115.78 84.0546C115.951 83.445 116.029 83.4601 116.146 82.8733C116.21 82.2382 116.536 82.2662 116.539 81.6456C116.559 80.9816 116.298 80.9926 116.252 80.3936C116.181 79.7547 116.297 79.7324 116.186 79.1307C115.995 78.5068 116.126 78.4644 115.895 77.8913V77.8913Z" fill="#F36B7F"/>
<path d="M68.1838 91.6899C67.9392 91.0762 67.9876 91.0541 67.6919 90.5067C67.3871 89.9118 67.1002 90.0917 66.7807 89.5855C66.3802 89.0809 66.3538 89.0996 65.9469 88.6617C65.4942 88.2081 65.5688 88.1271 65.0971 87.7467C64.6024 87.3277 64.5757 87.3634 64.0822 87.0149C63.5164 86.6989 63.4566 86.8075 62.9179 86.5604C62.3317 86.3075 62.3173 86.3453 61.7506 86.1704C61.1496 85.9724 61.1807 85.8304 60.5917 85.6886C59.9469 85.6148 59.9344 85.7282 59.3399 85.7079C58.7006 85.6926 58.7009 85.6872 58.1066 85.7409C57.4696 85.7841 57.4684 85.7866 56.8762 85.8798C56.2672 86.0403 56.146 85.7277 55.5862 85.905C55.0212 86.101 55.1156 86.3731 54.5875 86.5563C54.0225 86.7523 54.0697 86.8883 53.5416 87.0715C52.9766 87.2675 52.835 86.8593 52.3069 87.0425C51.7419 87.2385 51.8678 87.6013 51.3397 87.7845C50.7747 87.9805 50.759 87.9352 50.2308 88.1184C49.6658 88.3143 49.5872 88.0876 49.0591 88.2708C48.4941 88.4668 48.5413 88.6028 48.0132 88.786C47.4482 88.982 47.4639 89.0274 46.9358 89.2106C46.3702 89.4078 46.3252 89.2689 45.7939 89.4553C45.1924 89.7105 45.1572 89.6306 44.611 89.9143C44.0278 90.2193 44 90.1728 43.4888 90.5206C42.9287 90.8832 43.2268 91.2635 42.764 91.623C42.3159 92.0642 42.1277 91.8818 41.7297 92.3395C41.3146 92.8392 41.4234 92.9211 41.0958 93.4168C40.7321 93.943 40.8564 94.0143 40.5624 94.5248C40.318 95.1018 39.8902 94.9273 39.6943 95.516C39.4888 96.1441 39.4888 96.1441 39.3627 96.7477C39.2235 97.3962 39.5039 97.4355 39.4216 98.0282C39.4168 98.6734 39.4288 98.6745 39.4731 99.272C39.521 99.9105 39.2788 99.9416 39.3959 100.548C39.5063 101.199 39.65 101.161 39.8048 101.748C40.0327 102.356 39.9395 102.396 40.1949 102.955C40.5087 103.533 40.439 103.573 40.7877 104.084C41.1509 104.643 41.515 104.365 41.883 104.822C42.3017 105.29 42.1417 105.452 42.5785 105.872C43.0818 106.276 42.9741 106.417 43.4874 106.756C44.0305 107.131 44.1656 106.901 44.6862 107.191C45.2604 107.467 45.151 107.728 45.7271 107.952C46.3607 108.149 46.459 107.804 47.0366 107.922C47.6554 108.064 47.6473 108.126 48.2415 108.204C48.8782 108.239 48.877 108.48 49.4926 108.466C50.1484 108.407 50.1523 108.436 50.7558 108.318C51.4081 108.206 51.343 107.948 51.9166 107.786C52.5206 107.602 52.6022 107.91 53.1389 107.73C53.7039 107.534 53.5466 107.081 54.0747 106.898C54.6397 106.702 54.7812 107.11 55.3094 106.927C55.8743 106.731 55.8114 106.549 56.3395 106.366C56.9045 106.17 56.8573 106.034 57.3854 105.851C57.9504 105.655 57.9976 105.791 58.5257 105.608C59.0907 105.412 59.1379 105.548 59.666 105.365C60.231 105.169 60.1052 104.806 60.6333 104.623C61.1614 104.439 61.7456 105.15 61.9656 104.567C62.101 104.207 62.0431 103.915 61.8727 103.661L61.9095 103.649L61.9105 103.648C61.9979 103.919 62.1839 104.156 62.4825 104.321C63.079 104.606 63.1258 103.805 63.6297 103.521C64.1822 103.21 64.3529 103.467 64.8686 103.123C65.3754 102.692 65.1239 102.397 65.534 101.977C65.9847 101.537 66.1548 101.689 66.5406 101.221C66.9421 100.712 66.841 100.64 67.1743 100.146C67.4713 99.577 67.4659 99.5736 67.692 99.0231C67.9483 98.4377 67.8755 98.4567 68.0689 97.8518C68.2396 97.2423 68.3179 97.2574 68.435 96.6706C68.4994 96.0354 68.8246 96.0634 68.8284 95.4429C68.8479 94.7789 68.5871 94.7899 68.5412 94.1909C68.4699 93.552 68.586 93.5297 68.4746 92.9279C68.284 92.305 68.4153 92.2626 68.1838 91.6899V91.6899Z" fill="#82B5A5"/>
<path d="M133.866 46.7486C133.622 46.1349 133.67 46.1128 133.374 45.5655C133.07 44.9705 132.783 45.1505 132.463 44.6443C132.063 44.1396 132.036 44.1583 131.629 43.7205C131.177 43.2668 131.251 43.1859 130.78 42.8055C130.285 42.3864 130.258 42.4222 129.765 42.0737C129.199 41.7577 129.139 41.8662 128.6 41.6195C128.013 41.3666 127.999 41.4044 127.432 41.2295C126.831 41.0315 126.862 40.8895 126.273 40.7477C125.629 40.6739 125.616 40.7873 125.022 40.767C124.382 40.7517 124.382 40.7463 123.788 40.8C123.151 40.8432 123.15 40.8457 122.558 40.9389C121.949 41.0994 121.828 40.7868 121.268 40.9641C120.703 41.1601 120.797 41.4322 120.269 41.6154C119.704 41.8113 119.751 41.9474 119.223 42.1306C118.658 42.3266 118.517 41.9184 117.989 42.1016C117.424 42.2976 117.549 42.6604 117.021 42.8436C116.456 43.0396 116.441 42.9942 115.912 43.1774C115.347 43.3734 115.269 43.1467 114.741 43.3299C114.176 43.5259 114.223 43.6619 113.695 43.8451C113.13 44.0411 113.146 44.0864 112.617 44.2696C112.052 44.4669 112.007 44.328 111.476 44.5144C110.874 44.7696 110.839 44.6897 110.293 44.9734C109.709 45.2784 109.682 45.2319 109.17 45.5797C108.611 45.9419 108.908 46.3226 108.446 46.6821C107.998 47.1233 107.809 46.9409 107.411 47.3986C106.996 47.8983 107.105 47.9801 106.777 48.4759C106.414 49.0021 106.538 49.0734 106.244 49.5839C106 50.1608 105.572 49.9864 105.376 50.5751C105.17 51.2032 105.17 51.2032 105.044 51.8068C104.905 52.4553 105.186 52.4945 105.104 53.0882C105.099 53.7334 105.111 53.7345 105.155 54.332C105.203 54.9706 104.961 55.0017 105.078 55.6078C105.188 56.2585 105.332 56.2214 105.487 56.808C105.715 57.4159 105.622 57.4557 105.877 58.0148C106.191 58.5929 106.121 58.633 106.47 59.1439C106.833 59.7028 107.197 59.4251 107.565 59.8817C107.984 60.3504 107.824 60.5117 108.26 60.9318C108.764 61.3361 108.656 61.4772 109.169 61.8157C109.713 62.1915 109.848 61.9615 110.368 62.2509C110.942 62.5269 110.833 62.7882 111.409 63.0118C112.043 63.209 112.141 62.8637 112.719 62.9819C113.337 63.124 113.329 63.1861 113.923 63.2636C114.56 63.2989 114.559 63.5396 115.175 63.5261C115.83 63.4669 115.834 63.4963 116.438 63.3779C117.09 63.2659 117.025 63.008 117.599 62.8461C118.203 62.662 118.284 62.9703 118.821 62.7905C119.386 62.5945 119.229 62.141 119.757 61.9578C120.322 61.7618 120.463 62.17 120.991 61.9868C121.556 61.7908 121.493 61.6094 122.022 61.4262C122.586 61.2302 122.539 61.0941 123.067 60.9109C123.632 60.715 123.68 60.851 124.208 60.6678C124.773 60.4718 124.82 60.6079 125.348 60.4247C125.913 60.2287 125.787 59.8659 126.315 59.6827C126.843 59.4995 127.428 60.2103 127.648 59.627C127.783 59.2667 127.725 58.9746 127.555 58.7214L127.592 58.7086L127.592 58.7083C127.68 58.9786 127.866 59.2157 128.165 59.381C128.761 59.6663 128.808 58.8646 129.312 58.5808C129.864 58.2696 130.035 58.5268 130.551 58.1828C131.057 57.7519 130.806 57.4571 131.216 57.0375C131.667 56.5975 131.837 56.7491 132.223 56.2808C132.624 55.7721 132.523 55.7003 132.856 55.2058C133.153 54.637 133.148 54.6336 133.374 54.0831C133.63 53.4978 133.557 53.5167 133.751 52.9119C133.922 52.3023 134 52.3175 134.117 51.7307C134.181 51.0955 134.507 51.1235 134.51 50.5029C134.53 49.8389 134.269 49.85 134.223 49.2509C134.152 48.612 134.268 48.5897 134.157 47.988C133.966 47.3651 134.097 47.3217 133.866 46.7486V46.7486Z" fill="#3040C4"/>
<path d="M93.7356 38.767C93.4909 38.1533 93.5394 38.1312 93.2437 37.5839C92.9389 36.9889 92.652 37.1689 92.3324 36.6627C91.9319 36.158 91.9056 36.1767 91.4986 35.7389C91.0459 35.2852 91.1206 35.2043 90.6488 34.8239C90.1542 34.4048 90.1274 34.4406 89.6339 34.0921C89.0681 33.776 89.0084 33.8846 88.4697 33.6375C87.8834 33.3847 87.869 33.4225 87.3024 33.2475C86.7013 33.0496 86.7325 32.9075 86.1435 32.7657C85.4987 32.692 85.4862 32.8053 84.8917 32.7851C84.2524 32.7697 84.2526 32.7644 83.6584 32.8181C83.0214 32.8612 83.0201 32.8638 82.428 32.957C81.8189 33.1174 81.6978 32.8049 81.138 32.9821C80.573 33.1781 80.6674 33.4502 80.1393 33.6334C79.5743 33.8294 79.6215 33.9655 79.0933 34.1487C78.5284 34.3446 78.3868 33.9365 77.8587 34.1197C77.2937 34.3157 77.4195 34.6785 76.8914 34.8617C76.3264 35.0577 76.3107 35.0123 75.7826 35.1955C75.2176 35.3915 75.139 35.1647 74.6108 35.3479C74.0459 35.5439 74.093 35.68 73.5649 35.8632C72.9999 36.0592 73.0157 36.1045 72.4875 36.2877C71.922 36.485 71.8769 36.346 71.3457 36.5324C70.7441 36.7877 70.709 36.7078 70.1628 36.9915C69.5795 37.2965 69.5518 37.25 69.0405 37.5977C68.4804 37.9603 68.7785 38.3406 68.3158 38.7002C67.8676 39.1414 67.6795 38.959 67.2815 39.4167C66.8663 39.9164 66.9751 39.9982 66.6475 40.494C66.2839 41.0202 66.4081 41.0914 66.1142 41.6019C65.8698 42.1789 65.442 42.0045 65.2461 42.5932C65.0406 43.2212 65.0406 43.2212 64.9145 43.8249C64.7753 44.4733 65.0556 44.5126 64.9737 45.1063C64.9689 45.7515 64.9809 45.7526 65.0252 46.3501C65.0731 46.9886 64.8309 47.0197 64.948 47.6258C65.0584 48.2766 65.2021 48.2394 65.3569 48.8261C65.5847 49.434 65.4916 49.4737 65.747 50.0329C66.0608 50.611 65.9911 50.6511 66.3398 51.162C66.703 51.7208 67.0671 51.4432 67.435 51.8998C67.8538 52.3684 67.6938 52.5298 68.1306 52.9498C68.6339 53.3542 68.5262 53.4953 69.0395 53.8338C69.5826 54.2095 69.7177 53.9796 70.2383 54.2689C70.8125 54.545 70.7031 54.8063 71.2792 55.0298C71.9128 55.2271 72.0111 54.8818 72.5887 55C73.2074 55.1421 73.1993 55.2042 73.7936 55.2817C74.4303 55.317 74.4291 55.5576 75.0447 55.5442C75.7005 55.485 75.7043 55.5143 76.3079 55.396C76.9602 55.284 76.8951 55.0261 77.4687 54.8642C78.0727 54.6801 78.1543 54.9884 78.691 54.8085C79.256 54.6126 79.0986 54.1591 79.6268 53.9759C80.1917 53.7799 80.3333 54.188 80.8614 54.0048C81.4264 53.8088 81.3635 53.6274 81.8916 53.4442C82.4566 53.2483 82.4094 53.1122 82.9375 52.929C83.5025 52.733 83.5497 52.8691 84.0778 52.6859C84.6428 52.4899 84.69 52.6259 85.2181 52.4427C85.7831 52.2468 85.6572 51.884 86.1854 51.7008C86.7126 51.5179 87.2977 52.2284 87.5167 51.6454C87.6522 51.2851 87.5942 50.993 87.4238 50.7398L87.4607 50.727L87.4616 50.7267C87.549 50.997 87.735 51.2341 88.0337 51.3994C88.6301 51.6847 88.677 50.883 89.1808 50.5992C89.7333 50.288 89.904 50.5452 90.4198 50.2012C90.9266 49.7703 90.675 49.4755 91.0852 49.0559C91.5359 48.6159 91.706 48.7675 92.0918 48.2992C92.4932 47.7905 92.3921 47.7187 92.7255 47.2241C93.0225 46.6554 93.017 46.652 93.2431 46.1015C93.4994 45.5162 93.4266 45.5351 93.6201 44.9303C93.7907 44.3207 93.869 44.3358 93.9862 43.749C94.0506 43.1139 94.3757 43.1419 94.3795 42.5213C94.399 41.8573 94.1382 41.8683 94.0924 41.2693C94.021 40.6304 94.1371 40.6081 94.0258 40.0064C93.8361 39.3831 93.9671 39.3398 93.7356 38.767V38.767Z" fill="#FCF0E3"/>
</g>
<defs>
<clipPath id="clip0_418_303">
<rect width="139.818" height="83.933" fill="white" transform="translate(0.198242 53.2625) rotate(-19.131)"/>
</clipPath>
</defs>
</svg>
