<svg width="49" height="49" viewBox="0 0 49 49" fill="none" xmlns="http://www.w3.org/2000/svg">
<path d="M34.9666 24.515C32.7067 24.5172 30.5078 25.2484 28.6966 26.6L22.3666 20.27C23.7342 18.4721 24.4722 16.274 24.4666 14.015C24.4725 11.6494 23.6794 9.35106 22.2158 7.49253C20.7522 5.63399 18.7039 4.32415 16.4028 3.77529C14.1017 3.22643 11.6826 3.47071 9.53773 4.46854C7.39282 5.46637 5.64772 7.15928 4.58523 9.27291C3.52275 11.3865 3.20514 13.797 3.68389 16.1137C4.16264 18.4304 5.40969 20.5176 7.22294 22.0369C9.03619 23.5563 11.3094 24.4188 13.6741 24.4847C16.0388 24.5506 18.3565 23.816 20.2516 22.4L26.5666 28.73C25.151 30.6246 24.4164 32.9415 24.4818 35.3056C24.5473 37.6697 25.409 39.9425 26.9273 41.7558C28.4455 43.5691 30.5315 44.8167 32.8473 45.2966C35.1632 45.7765 37.5732 45.4605 39.687 44.3998C41.8008 43.3391 43.4946 41.5959 44.4941 39.4524C45.4936 37.309 45.7402 34.8909 45.1939 32.5899C44.6477 30.2888 43.3406 28.2395 41.4844 26.774C39.6282 25.3085 37.3316 24.5125 34.9666 24.515ZM6.46659 14.015C6.46659 12.5317 6.90646 11.0816 7.73057 9.84825C8.55468 8.61489 9.72602 7.65359 11.0965 7.08593C12.4669 6.51828 13.9749 6.36975 15.4298 6.65914C16.8846 6.94853 18.221 7.66284 19.2699 8.71173C20.3188 9.76062 21.0331 11.097 21.3225 12.5519C21.6119 14.0067 21.4634 15.5147 20.8957 16.8852C20.328 18.2556 19.3667 19.4269 18.1334 20.2511C16.9 21.0752 15.45 21.515 13.9666 21.515C11.9775 21.515 10.0698 20.7249 8.66329 19.3183C7.25677 17.9118 6.46659 16.0042 6.46659 14.015Z" fill="#5A2CA5"/>
</svg>
