<svg width="87" height="25" viewBox="0 0 87 25" fill="none" xmlns="http://www.w3.org/2000/svg">
<path d="M14.9317 21.0294H2.80742C2.66052 21.0295 2.51656 20.9882 2.39203 20.9103C2.2675 20.8324 2.16743 20.721 2.10329 20.5888C2.03914 20.4567 2.01352 20.3091 2.02935 20.1631C2.04517 20.017 2.10181 19.8784 2.19278 19.763L5.62493 15.4024C5.78539 15.1983 5.87988 14.9501 5.89582 14.6909C5.91176 14.4317 5.8484 14.1738 5.71416 13.9516L1.01364 6.18485C0.879175 5.96376 0.806027 5.71084 0.801716 5.45211C0.797404 5.19337 0.862083 4.93815 0.989103 4.7127C1.11612 4.48725 1.3009 4.2997 1.52443 4.16934C1.74797 4.03897 2.00219 3.97049 2.26096 3.97095H13.3194C13.4628 3.97102 13.6035 4.01053 13.726 4.08515C13.8484 4.15977 13.948 4.26663 14.0139 4.39405C14.0797 4.52147 14.1092 4.66453 14.0992 4.8076C14.0892 4.95066 14.0401 5.08823 13.9571 5.20524L11.0694 9.27509C10.9258 9.47776 10.8443 9.71793 10.8351 9.96618C10.8258 10.2144 10.8891 10.46 11.0173 10.6728L16.0517 19.0251C16.1725 19.2247 16.2383 19.4527 16.2424 19.6859C16.2464 19.9192 16.1886 20.1494 16.0748 20.3531C15.961 20.5567 15.7953 20.7266 15.5945 20.8454C15.3937 20.9642 15.165 21.0277 14.9317 21.0294Z" fill="#4743C5"/>
<g clip-path="url(#clip0_2807_42416)">
<path d="M24.3131 18.4663C23.7515 18.052 23.2814 17.5264 22.9321 16.9223C22.5829 16.3181 22.362 15.6486 22.2832 14.9552H25.0263C25.1891 15.7028 25.6179 16.3656 26.2331 16.8205C26.9468 17.2921 27.7927 17.5228 28.647 17.4788C29.348 17.5087 30.0431 17.3374 30.6498 16.9851C30.8822 16.8478 31.0734 16.6506 31.2036 16.4141C31.3339 16.1777 31.3982 15.9108 31.3901 15.641C31.394 15.4396 31.3544 15.2396 31.2739 15.055C31.1935 14.8703 31.0742 14.7054 30.924 14.5711C30.5931 14.2757 30.1989 14.0599 29.7718 13.9403C29.3055 13.9403 28.6747 13.6384 27.8792 13.4738C27.002 13.3307 26.139 13.1105 25.3005 12.8155C24.6434 12.6135 24.0548 12.2337 23.5998 11.7182C23.1019 11.1198 22.8472 10.3561 22.8866 9.57866C22.8514 9.008 22.9642 8.4379 23.2141 7.92366C23.464 7.40943 23.8426 6.96848 24.3131 6.64353C25.4228 5.91997 26.7189 5.53467 28.0436 5.53467C29.3684 5.53467 30.6645 5.91997 31.7742 6.64353C32.7948 7.45345 33.4712 8.61969 33.6671 9.90782H31.1708C31.0216 9.21309 30.6084 8.6034 30.0186 8.20711C29.4013 7.82678 28.686 7.63599 27.9613 7.65846C27.3274 7.61917 26.6966 7.77223 26.1511 8.09745C25.9489 8.22053 25.7819 8.39387 25.6665 8.60056C25.5512 8.80726 25.4914 9.04025 25.4927 9.27696C25.4818 9.46069 25.516 9.64432 25.5925 9.81172C25.6691 9.97911 25.7853 10.1251 25.9314 10.237C26.2373 10.5052 26.6049 10.6937 27.0013 10.7856C27.596 10.9588 28.2006 11.0963 28.8118 11.1972C29.7413 11.3601 30.658 11.5893 31.5549 11.8829C32.2531 12.0925 32.8798 12.4912 33.3654 13.035C33.8876 13.6643 34.1519 14.4679 34.1058 15.2844C34.124 15.8789 34.0021 16.4693 33.7495 17.0078C33.4969 17.5464 33.121 18.018 32.6522 18.3841C31.507 19.2106 30.1119 19.6175 28.702 19.5361C27.163 19.649 25.6275 19.2747 24.3131 18.4663Z" fill="#010211"/>
<path d="M35.2863 3.57135C35.1201 3.41728 34.9876 3.23055 34.8969 3.02286C34.8062 2.81518 34.7593 2.591 34.7593 2.36438C34.7593 2.13776 34.8062 1.91358 34.8969 1.7059C34.9876 1.49821 35.1201 1.31148 35.2863 1.15741C35.6287 0.838123 36.0799 0.661544 36.5481 0.663672C37.0261 0.65151 37.4899 0.828997 37.8376 1.15741C38.0037 1.31148 38.1363 1.49821 38.227 1.7059C38.3177 1.91358 38.3643 2.13776 38.3643 2.36438C38.3643 2.591 38.3177 2.81518 38.227 3.02286C38.1363 3.23055 38.0037 3.41728 37.8376 3.57135C37.4899 3.89976 37.0261 4.07725 36.5481 4.06509C36.0799 4.06722 35.6287 3.89064 35.2863 3.57135ZM38.0294 19.4813H35.2863V5.95783H38.0294V19.4813Z" fill="#010211"/>
<path d="M39.647 19.3993V5.8758H42.3901V7.76854C42.8852 7.10391 43.4991 6.53648 44.2006 6.09512C44.8273 5.76853 45.5238 5.5991 46.2305 5.60138C47.0657 5.58516 47.8899 5.79367 48.617 6.20495C48.9374 6.39099 49.2171 6.63992 49.4387 6.93694C49.6603 7.23396 49.8191 7.57292 49.9061 7.93312C50.2897 7.18542 50.8838 6.56618 51.6149 6.15188C52.346 5.73758 53.1822 5.54621 54.0208 5.60138C54.6433 5.55542 55.2686 5.64712 55.8517 5.86994C56.4349 6.09276 56.9618 6.44132 57.3951 6.89073C58.201 7.94025 58.6002 9.2456 58.5195 10.5664V19.3993H55.7764V11.0054C55.8461 10.1782 55.6228 9.3528 55.1455 8.67364C54.9359 8.40558 54.6638 8.193 54.353 8.05434C54.0421 7.91567 53.702 7.85519 53.3625 7.8782C53.0059 7.85976 52.6496 7.91889 52.3181 8.05149C51.9866 8.18409 51.6879 8.38693 51.4424 8.64618C51.0351 9.10701 50.7518 9.66407 50.6194 10.2647C50.447 11.0943 50.3735 11.9414 50.4 12.7883V19.3993H47.6569V11.0054C47.7117 10.1756 47.4793 9.3522 46.9986 8.67364C46.7774 8.41188 46.4994 8.20426 46.1856 8.06639C45.8718 7.92852 45.5305 7.86411 45.1881 7.8782C44.8191 7.86563 44.4524 7.94089 44.1182 8.0977C43.7952 8.23534 43.5123 8.4523 43.2955 8.72856C42.9085 9.15711 42.6349 9.67577 42.4999 10.2372C42.3154 11.0746 42.2326 11.9311 42.2531 12.7883V19.3993H39.647Z" fill="#010211"/>
<path d="M70.0397 6.50658C70.9692 7.10621 71.7031 7.96418 72.1516 8.97527C72.6397 10.1345 72.8913 11.3796 72.8913 12.6374C72.8913 13.8951 72.6397 15.1403 72.1516 16.2995C71.6969 17.314 70.965 18.1793 70.0397 18.7956C69.1044 19.385 68.018 19.69 66.9125 19.6734C66.1281 19.6923 65.3494 19.5329 64.6356 19.2071C63.8901 18.7929 63.2516 18.2106 62.7704 17.5064V24.4189H60.0273V5.87572H62.7704V7.76847C63.2619 7.08059 63.8985 6.50918 64.6356 6.09505C65.3428 5.74707 66.1247 5.57757 66.9125 5.60131C68.0225 5.5797 69.1129 5.89539 70.0397 6.50658ZM64.4162 8.53645C63.8189 8.96285 63.3456 9.54027 63.0447 10.2097C62.6831 10.962 62.5047 11.7892 62.5237 12.6236C62.5075 13.4667 62.6857 14.3021 63.0447 15.065C63.3307 15.7435 63.8071 16.3247 64.4162 16.7383C65.0054 17.1414 65.7048 17.3523 66.4186 17.3419C66.9474 17.3548 67.4718 17.2421 67.9486 17.0132C68.4254 16.7843 68.8411 16.4457 69.1617 16.0251C69.8225 15.0188 70.1747 13.8412 70.1747 12.6374C70.1747 11.4335 69.8225 10.256 69.1617 9.24968C68.8411 8.82906 68.4254 8.49041 67.9486 8.26153C67.4718 8.03266 66.9474 7.92014 66.4186 7.93305C65.7066 7.93448 65.0105 8.14418 64.4162 8.53645Z" fill="#010211"/>
<path d="M77.2826 19.399C76.4261 19.4661 75.575 19.2118 74.8958 18.6857C74.6029 18.3495 74.3815 17.9574 74.2448 17.533C74.1081 17.1086 74.059 16.6608 74.1005 16.2169V0.828125H76.8436V15.5036C76.8097 15.93 76.8951 16.3575 77.0904 16.7381C77.2342 16.8769 77.4079 16.9812 77.598 17.0429C77.7881 17.1047 77.9897 17.1224 78.1877 17.0947H78.9558V19.344L77.2826 19.399Z" fill="#010211"/>
<path d="M79.7231 19.3992V5.87572H82.4662V7.60372C82.9392 6.9446 83.5717 6.41611 84.3042 6.06759C85.0296 5.74748 85.8156 5.58843 86.6083 5.60131H86.8555V8.34441H86.1422C85.6821 8.31483 85.2205 8.37991 84.7864 8.53561C84.3524 8.6913 83.9549 8.93434 83.6185 9.24968C83.1909 9.73802 82.868 10.3089 82.6698 10.9269C82.4717 11.545 82.4023 12.1972 82.4662 12.8431V19.5088L79.7231 19.3992Z" fill="#010211"/>
</g>
<defs>
<clipPath id="clip0_2807_42416">
<rect width="64.5177" height="23.8375" fill="white" transform="translate(22.2839 0.581299)"/>
</clipPath>
</defs>
</svg>
