<svg width="59" height="17" viewBox="0 0 59 17" fill="none" xmlns="http://www.w3.org/2000/svg">
<path d="M9.73573 13.7904H1.55887C1.4598 13.7905 1.36271 13.7627 1.27873 13.7101C1.19474 13.6576 1.12725 13.5824 1.08399 13.4933C1.04074 13.4042 1.02345 13.3046 1.03413 13.2062C1.0448 13.1077 1.083 13.0142 1.14435 12.9364L3.45905 9.99548C3.56727 9.8578 3.631 9.69042 3.64175 9.51562C3.6525 9.34083 3.60977 9.1669 3.51924 9.01699L0.349114 3.77899C0.258431 3.62988 0.209099 3.45931 0.206191 3.28481C0.203283 3.11031 0.246904 2.93819 0.332569 2.78614C0.418234 2.63409 0.542851 2.50761 0.693605 2.41969C0.84436 2.33176 1.01581 2.28558 1.19033 2.28589H8.64837C8.7451 2.28594 8.83994 2.31258 8.92254 2.36291C9.00514 2.41324 9.07231 2.48531 9.11671 2.57124C9.16111 2.65717 9.18102 2.75365 9.17427 2.85014C9.16752 2.94663 9.13437 3.0394 9.07845 3.11832L7.13093 5.8631C7.03404 5.99979 6.97911 6.16176 6.97287 6.32919C6.96662 6.49661 7.00933 6.66223 7.09577 6.80575L10.4911 12.4387C10.5726 12.5733 10.6169 12.7271 10.6197 12.8844C10.6224 13.0417 10.5834 13.1969 10.5067 13.3343C10.4299 13.4717 10.3181 13.5862 10.1827 13.6663C10.0473 13.7465 9.89307 13.7893 9.73573 13.7904Z" fill="#4743C5"/>
<g clip-path="url(#clip0_2807_23388)">
<path d="M16.0628 12.0619C15.6841 11.7825 15.3671 11.428 15.1315 11.0206C14.896 10.6132 14.747 10.1616 14.6938 9.69395H16.5438C16.6536 10.1981 16.9428 10.6452 17.3577 10.9519C17.8391 11.27 18.4096 11.4256 18.9857 11.3959C19.4585 11.4161 19.9273 11.3005 20.3364 11.0629C20.4932 10.9703 20.6221 10.8373 20.7099 10.6779C20.7978 10.5184 20.8412 10.3384 20.8357 10.1565C20.8383 10.0206 20.8117 9.88577 20.7574 9.76125C20.7031 9.63673 20.6227 9.52546 20.5214 9.43493C20.2982 9.23568 20.0324 9.09017 19.7443 9.00946C19.4298 9.00946 19.0044 8.80588 18.4679 8.69488C17.8763 8.5984 17.2943 8.44984 16.7288 8.2509C16.2856 8.11464 15.8886 7.85851 15.5818 7.51086C15.246 7.10732 15.0742 6.59225 15.1008 6.06792C15.0771 5.68306 15.1531 5.29857 15.3217 4.95176C15.4902 4.60495 15.7456 4.30757 16.0628 4.08841C16.8112 3.60043 17.6854 3.34058 18.5788 3.34058C19.4722 3.34058 20.3464 3.60043 21.0948 4.08841C21.7831 4.63464 22.2393 5.42117 22.3714 6.28991H20.6878C20.5872 5.82137 20.3085 5.41019 19.9107 5.14292C19.4944 4.88642 19.012 4.75775 18.5232 4.7729C18.0957 4.7464 17.6703 4.84963 17.3024 5.06896C17.166 5.15197 17.0534 5.26887 16.9756 5.40827C16.8978 5.54767 16.8575 5.70481 16.8584 5.86445C16.851 5.98836 16.8741 6.1122 16.9257 6.2251C16.9773 6.33799 17.0557 6.43643 17.1543 6.5119C17.3606 6.69281 17.6085 6.81993 17.8758 6.88192C18.2769 6.99874 18.6847 7.09145 19.0968 7.15947C19.7237 7.26936 20.342 7.42392 20.9468 7.62197C21.4177 7.76333 21.8404 8.03222 22.1679 8.39893C22.52 8.82335 22.6983 9.36534 22.6672 9.91594C22.6795 10.3169 22.5973 10.7151 22.4269 11.0783C22.2566 11.4415 22.0031 11.7595 21.6869 12.0064C20.9146 12.5639 19.9737 12.8383 19.0228 12.7834C17.9848 12.8595 16.9493 12.6071 16.0628 12.0619Z" fill="#010211"/>
<path d="M23.4629 2.01656C23.3508 1.91266 23.2614 1.78672 23.2002 1.64665C23.1391 1.50659 23.1074 1.35539 23.1074 1.20256C23.1074 1.04973 23.1391 0.898535 23.2002 0.758466C23.2614 0.618397 23.3508 0.492464 23.4629 0.388557C23.6938 0.173224 23.9981 0.0541357 24.3138 0.0555712C24.6362 0.0473688 24.949 0.167069 25.1835 0.388557C25.2956 0.492464 25.385 0.618397 25.4461 0.758466C25.5073 0.898535 25.5387 1.04973 25.5387 1.20256C25.5387 1.35539 25.5073 1.50659 25.4461 1.64665C25.385 1.78672 25.2956 1.91266 25.1835 2.01656C24.949 2.23805 24.6362 2.35775 24.3138 2.34955C23.9981 2.35098 23.6938 2.2319 23.4629 2.01656ZM25.3129 12.7465H23.4629V3.62605H25.3129V12.7465Z" fill="#010211"/>
<path d="M26.4043 12.691V3.57054H28.2543V4.84704C28.5882 4.3988 29.0023 4.01612 29.4754 3.71845C29.898 3.49819 30.3678 3.38393 30.8443 3.38547C31.4076 3.37453 31.9635 3.51515 32.4538 3.79253C32.67 3.91799 32.8586 4.08588 33.008 4.28619C33.1574 4.48651 33.2646 4.71511 33.3233 4.95803C33.582 4.45377 33.9826 4.03615 34.4757 3.75673C34.9688 3.47732 35.5327 3.34826 36.0983 3.38547C36.5181 3.35447 36.9398 3.41631 37.3331 3.56658C37.7264 3.71686 38.0817 3.95194 38.3739 4.25503C38.9175 4.96284 39.1867 5.84319 39.1323 6.73396V12.691H37.2823V7.03002C37.3293 6.47217 37.1787 5.91549 36.8568 5.45746C36.7154 5.27667 36.5319 5.1333 36.3223 5.03978C36.1127 4.94627 35.8833 4.90548 35.6543 4.921C35.4138 4.90856 35.1735 4.94844 34.9499 5.03786C34.7263 5.12729 34.5249 5.26409 34.3594 5.43894C34.0847 5.74973 33.8936 6.12542 33.8043 6.53049C33.6881 7.09001 33.6385 7.66127 33.6564 8.23245V12.691H31.8064V7.03002C31.8433 6.47042 31.6866 5.91509 31.3624 5.45746C31.2132 5.28092 31.0257 5.1409 30.8141 5.04791C30.6025 4.95493 30.3723 4.91149 30.1413 4.921C29.8925 4.91252 29.6452 4.96328 29.4198 5.06903C29.2019 5.16186 29.0111 5.30818 28.8649 5.49449C28.6039 5.78352 28.4194 6.13331 28.3284 6.51197C28.2039 7.07669 28.1481 7.65435 28.1619 8.23245V12.691H26.4043Z" fill="#010211"/>
<path d="M46.9015 3.99604C47.5283 4.40045 48.0232 4.97907 48.3258 5.66097C48.655 6.44275 48.8246 7.28249 48.8246 8.13076C48.8246 8.97902 48.655 9.81876 48.3258 10.6005C48.0191 11.2848 47.5255 11.8683 46.9015 12.284C46.2707 12.6815 45.5379 12.8872 44.7924 12.876C44.2634 12.8887 43.7382 12.7812 43.2568 12.5615C42.754 12.2822 42.3234 11.8895 41.9989 11.4145V16.0765H40.1489V3.57058H41.9989V4.84708C42.3304 4.38316 42.7597 3.99779 43.2568 3.7185C43.7338 3.48382 44.2611 3.3695 44.7924 3.38551C45.541 3.37094 46.2764 3.58384 46.9015 3.99604ZM43.1089 5.36502C42.706 5.65259 42.3868 6.04202 42.1839 6.49349C41.94 7.00086 41.8197 7.55871 41.8325 8.1215C41.8216 8.69005 41.9417 9.25349 42.1839 9.76802C42.3768 10.2256 42.698 10.6175 43.1089 10.8965C43.5062 11.1684 43.9779 11.3106 44.4593 11.3036C44.8159 11.3123 45.1696 11.2363 45.4912 11.0819C45.8127 10.9275 46.0931 10.6991 46.3093 10.4155C46.755 9.73681 46.9925 8.94266 46.9925 8.13076C46.9925 7.31885 46.755 6.5247 46.3093 5.84604C46.0931 5.56236 45.8127 5.33397 45.4912 5.17961C45.1696 5.02526 44.8159 4.94937 44.4593 4.95808C43.9791 4.95904 43.5097 5.10047 43.1089 5.36502Z" fill="#010211"/>
<path d="M51.7861 12.6908C51.2084 12.736 50.6344 12.5645 50.1764 12.2098C49.9788 11.983 49.8296 11.7185 49.7373 11.4323C49.6451 11.1461 49.612 10.8441 49.64 10.5447V0.16626H51.49V10.0637C51.4672 10.3513 51.5248 10.6396 51.6564 10.8962C51.7534 10.9898 51.8706 11.0602 51.9988 11.1018C52.127 11.1435 52.263 11.1554 52.3965 11.1367H52.9145V12.6537L51.7861 12.6908Z" fill="#010211"/>
<path d="M53.4321 12.691V3.57057H55.2821V4.73596C55.6011 4.29144 56.0276 3.93501 56.5217 3.69997C57.0109 3.48408 57.541 3.37681 58.0756 3.3855H58.2423V5.23549H57.7613C57.4509 5.21555 57.1396 5.25944 56.8469 5.36444C56.5542 5.46945 56.2861 5.63336 56.0592 5.84603C55.7708 6.17537 55.5531 6.56036 55.4194 6.97721C55.2858 7.39405 55.239 7.8339 55.2821 8.26952V12.765L53.4321 12.691Z" fill="#010211"/>
</g>
<defs>
<clipPath id="clip0_2807_23388">
<rect width="43.5119" height="16.0765" fill="white" transform="translate(14.6943)"/>
</clipPath>
</defs>
</svg>
