<svg width="86" height="24" viewBox="0 0 86 24" fill="none" xmlns="http://www.w3.org/2000/svg">
<path d="M14.1302 20.5294H2.0059C1.859 20.5295 1.71504 20.4882 1.59051 20.4103C1.46598 20.3324 1.36592 20.221 1.30177 20.0888C1.23763 19.9567 1.212 19.8091 1.22783 19.6631C1.24366 19.517 1.3003 19.3784 1.39126 19.263L4.82341 14.9024C4.98388 14.6983 5.07837 14.4501 5.09431 14.1909C5.11025 13.9317 5.04688 13.6738 4.91265 13.4516L0.212123 5.68485C0.0776612 5.46376 0.00451377 5.21084 0.000202285 4.95211C-0.0041092 4.69337 0.0605695 4.43815 0.18759 4.2127C0.31461 3.98725 0.499387 3.7997 0.72292 3.66934C0.946453 3.53897 1.20068 3.47049 1.45945 3.47095H12.5179C12.6613 3.47102 12.802 3.51053 12.9244 3.58515C13.0469 3.65977 13.1465 3.76663 13.2123 3.89405C13.2782 4.02147 13.3077 4.16453 13.2977 4.3076C13.2877 4.45066 13.2385 4.58823 13.1556 4.70524L10.2679 8.77509C10.1243 8.97776 10.0428 9.21793 10.0336 9.46618C10.0243 9.71443 10.0876 9.96 10.2158 10.1728L15.2502 18.5251C15.371 18.7247 15.4368 18.9527 15.4409 19.1859C15.4449 19.4192 15.3871 19.6494 15.2733 19.8531C15.1595 20.0567 14.9938 20.2266 14.793 20.3454C14.5922 20.4642 14.3635 20.5277 14.1302 20.5294Z" fill="#4743C5"/>
<g clip-path="url(#clip0_2807_3528)">
<path d="M23.5116 17.9663C22.95 17.552 22.4799 17.0264 22.1306 16.4223C21.7814 15.8181 21.5604 15.1486 21.4817 14.4552H24.2248C24.3876 15.2028 24.8164 15.8656 25.4316 16.3205C26.1453 16.7921 26.9912 17.0228 27.8455 16.9788C28.5465 17.0087 29.2416 16.8374 29.8483 16.4851C30.0807 16.3478 30.2718 16.1506 30.4021 15.9141C30.5324 15.6777 30.5967 15.4108 30.5886 15.141C30.5925 14.9396 30.5529 14.7396 30.4724 14.555C30.392 14.3703 30.2727 14.2054 30.1225 14.0711C29.7916 13.7757 29.3974 13.5599 28.9703 13.4403C28.504 13.4403 27.8732 13.1384 27.0777 12.9738C26.2005 12.8307 25.3375 12.6105 24.499 12.3155C23.8418 12.1135 23.2533 11.7337 22.7983 11.2182C22.3004 10.6198 22.0457 9.85612 22.0851 9.07866C22.0499 8.508 22.1627 7.9379 22.4126 7.42366C22.6625 6.90943 23.0411 6.46848 23.5116 6.14353C24.6213 5.41997 25.9174 5.03467 27.2421 5.03467C28.5669 5.03467 29.863 5.41997 30.9727 6.14353C31.9933 6.95345 32.6697 8.11969 32.8656 9.40782H30.3693C30.22 8.71309 29.8069 8.1034 29.2171 7.70711C28.5998 7.32678 27.8844 7.13599 27.1598 7.15846C26.5259 7.11917 25.8951 7.27223 25.3496 7.59745C25.1474 7.72053 24.9804 7.89387 24.865 8.10056C24.7497 8.30726 24.6899 8.54025 24.6912 8.77696C24.6802 8.96069 24.7145 9.14432 24.791 9.31172C24.8675 9.47911 24.9838 9.62508 25.1299 9.73698C25.4358 10.0052 25.8034 10.1937 26.1997 10.2856C26.7945 10.4588 27.3991 10.5963 28.0103 10.6972C28.9398 10.8601 29.8565 11.0893 30.7534 11.3829C31.4516 11.5925 32.0783 11.9912 32.5639 12.535C33.0861 13.1643 33.3504 13.9679 33.3043 14.7844C33.3225 15.3789 33.2006 15.9693 32.948 16.5078C32.6954 17.0464 32.3195 17.518 31.8507 17.8841C30.7055 18.7106 29.3104 19.1175 27.9004 19.0361C26.3614 19.149 24.826 18.7747 23.5116 17.9663Z" fill="#010211"/>
<path d="M34.4846 3.07135C34.3184 2.91728 34.1858 2.73055 34.0951 2.52286C34.0045 2.31518 33.9575 2.091 33.9575 1.86438C33.9575 1.63776 34.0045 1.41358 34.0951 1.2059C34.1858 0.998207 34.3184 0.811479 34.4846 0.65741C34.8269 0.338123 35.2781 0.161544 35.7463 0.163672C36.2244 0.15151 36.6881 0.328997 37.0358 0.65741C37.202 0.811479 37.3346 0.998207 37.4252 1.2059C37.5159 1.41358 37.5625 1.63776 37.5625 1.86438C37.5625 2.091 37.5159 2.31518 37.4252 2.52286C37.3346 2.73055 37.202 2.91728 37.0358 3.07135C36.6881 3.39976 36.2244 3.57725 35.7463 3.56509C35.2781 3.56722 34.8269 3.39064 34.4846 3.07135ZM37.2277 18.9813H34.4846V5.45783H37.2277V18.9813Z" fill="#010211"/>
<path d="M38.8455 18.8993V5.3758H41.5886V7.26854C42.0837 6.60391 42.6976 6.03648 43.3991 5.59512C44.0257 5.26853 44.7223 5.0991 45.429 5.10138C46.2642 5.08516 47.0884 5.29367 47.8154 5.70495C48.1359 5.89099 48.4156 6.13992 48.6372 6.43694C48.8588 6.73396 49.0176 7.07292 49.1046 7.43312C49.4882 6.68542 50.0822 6.06618 50.8134 5.65188C51.5445 5.23758 52.3807 5.04621 53.2193 5.10138C53.8418 5.05542 54.4671 5.14712 55.0502 5.36994C55.6334 5.59276 56.1603 5.94132 56.5936 6.39073C57.3995 7.44025 57.7987 8.7456 57.718 10.0664V18.8993H54.9749V10.5054C55.0446 9.67822 54.8213 8.8528 54.344 8.17364C54.1343 7.90558 53.8622 7.693 53.5514 7.55434C53.2406 7.41567 52.9005 7.35519 52.5609 7.3782C52.2044 7.35976 51.8481 7.41889 51.5165 7.55149C51.185 7.68409 50.8864 7.88693 50.6409 8.14618C50.2336 8.60701 49.9503 9.16407 49.8179 9.76469C49.6455 10.5943 49.572 11.4414 49.5985 12.2883V18.8993H46.8554V10.5054C46.9102 9.67563 46.6778 8.8522 46.1971 8.17364C45.9759 7.91188 45.6979 7.70426 45.3841 7.56639C45.0703 7.42852 44.729 7.36411 44.3866 7.3782C44.0176 7.36563 43.6509 7.44089 43.3167 7.5977C42.9937 7.73534 42.7108 7.9523 42.494 8.22856C42.107 8.65711 41.8334 9.17577 41.6984 9.73723C41.5139 10.5746 41.4311 11.4311 41.4516 12.2883V18.8993H38.8455Z" fill="#010211"/>
<path d="M69.2381 6.00658C70.1676 6.60621 70.9014 7.46418 71.35 8.47527C71.8381 9.63446 72.0897 10.8796 72.0897 12.1374C72.0897 13.3951 71.8381 14.6403 71.35 15.7995C70.8953 16.814 70.1634 17.6793 69.2381 18.2956C68.3028 18.885 67.2163 19.19 66.1109 19.1734C65.3265 19.1923 64.5478 19.0329 63.8339 18.7071C63.0884 18.2929 62.4499 17.7106 61.9688 17.0064V23.9189H59.2257V5.37572H61.9688V7.26847C62.4603 6.58059 63.0969 6.00918 63.8339 5.59505C64.5412 5.24707 65.3231 5.07757 66.1109 5.10131C67.2209 5.0797 68.3113 5.39539 69.2381 6.00658ZM63.6146 8.03645C63.0172 8.46285 62.5439 9.04027 62.243 9.7097C61.8815 10.462 61.703 11.2892 61.722 12.1236C61.7058 12.9667 61.884 13.8021 62.243 14.565C62.5291 15.2435 63.0054 15.8247 63.6146 16.2383C64.2037 16.6414 64.9032 16.8523 65.617 16.8419C66.1458 16.8548 66.6701 16.7421 67.1469 16.5132C67.6238 16.2843 68.0395 15.9457 68.3601 15.5251C69.0209 14.5188 69.373 13.3412 69.373 12.1374C69.373 10.9335 69.0209 9.75598 68.3601 8.74968C68.0395 8.32906 67.6238 7.99041 67.1469 7.76153C66.6701 7.53266 66.1458 7.42014 65.617 7.43305C64.9049 7.43448 64.2089 7.64418 63.6146 8.03645Z" fill="#010211"/>
<path d="M76.4811 18.899C75.6246 18.9661 74.7735 18.7118 74.0942 18.1857C73.8014 17.8495 73.58 17.4574 73.4433 17.033C73.3065 16.6086 73.2575 16.1608 73.299 15.7169V0.328125H76.0421V15.0036C76.0082 15.43 76.0936 15.8575 76.2889 16.2381C76.4327 16.3769 76.6064 16.4812 76.7965 16.5429C76.9866 16.6047 77.1882 16.6224 77.3862 16.5947H78.1543V18.844L76.4811 18.899Z" fill="#010211"/>
<path d="M78.9214 18.8992V5.37572H81.6645V7.10372C82.1375 6.4446 82.7699 5.91611 83.5025 5.56759C84.2278 5.24748 85.0139 5.08843 85.8066 5.10131H86.0537V7.84441H85.3405C84.8803 7.81483 84.4187 7.87991 83.9847 8.03561C83.5506 8.1913 83.1532 8.43434 82.8167 8.74968C82.3891 9.23802 82.0662 9.80886 81.8681 10.4269C81.6699 11.045 81.6006 11.6972 81.6645 12.3431V19.0088L78.9214 18.8992Z" fill="#010211"/>
</g>
<defs>
<clipPath id="clip0_2807_3528">
<rect width="64.5177" height="23.8375" fill="white" transform="translate(21.4823 0.0812988)"/>
</clipPath>
</defs>
</svg>
